<?xml version="1.0" standalone="no"?>
<!DOCTYPE svg PUBLIC "-//W3C//DTD SVG 20010904//EN"
 "http://www.w3.org/TR/2001/REC-SVG-20010904/DTD/svg10.dtd">
<svg version="1.0" xmlns="http://www.w3.org/2000/svg"
 width="512.000000pt" height="512.000000pt" viewBox="0 0 512.000000 512.000000"
 preserveAspectRatio="xMidYMid meet">
<metadata>
Created by potrace 1.14, written by Peter Selinger 2001-2017
</metadata>
<g transform="translate(0.000000,512.000000) scale(0.100000,-0.100000)"
fill="#000000" stroke="none">
<path d="M2155 4420 c3 -5 8 -10 11 -10 2 0 4 5 4 10 0 6 -5 10 -11 10 -5 0
-7 -4 -4 -10z"/>
<path d="M2250 4425 c1 -5 1 -12 0 -15 -7 -20 -7 -41 2 -47 6 -3 8 -2 5 3 -10
17 31 13 44 -4 11 -14 11 -15 -1 -4 -21 18 -34 15 -19 -5 12 -16 12 -17 -1 -7
-8 6 -23 10 -33 9 -9 -2 -14 1 -11 6 3 6 -5 8 -20 5 -14 -3 -28 -1 -31 4 -3 5
3 7 15 5 11 -2 23 1 26 7 4 7 2 8 -4 4 -7 -4 -12 -1 -12 8 0 8 -4 17 -9 20 -5
4 -7 -4 -4 -16 3 -13 2 -20 -2 -16 -5 4 -15 2 -23 -5 -13 -10 -15 -9 -9 8 6
17 5 18 -5 4 -7 -8 -27 -15 -45 -14 -17 0 -29 -3 -26 -8 3 -5 -4 -6 -16 -2
-14 4 -21 2 -21 -6 0 -8 -7 -6 -19 5 -18 16 -18 16 -17 -5 0 -12 -5 -24 -13
-27 -8 -3 -11 0 -7 6 9 15 -31 7 -52 -10 -14 -11 -15 -10 -9 7 7 19 6 19 -7 2
-8 -10 -18 -19 -23 -19 -27 -2 -53 -24 -53 -44 0 -13 -4 -25 -8 -28 -5 -3 -8
8 -7 24 1 16 -2 27 -7 24 -5 -4 -7 -11 -5 -18 3 -6 -1 -20 -9 -30 -7 -11 -11
-22 -9 -26 3 -4 -5 -16 -18 -26 -20 -18 -21 -18 -7 0 24 31 33 93 14 93 -9 0
-11 -4 -4 -12 10 -11 -21 -68 -35 -65 -4 1 -12 -4 -16 -12 -7 -10 -9 -10 -9 0
0 6 -5 12 -11 12 -6 0 -9 -7 -6 -15 7 -17 -9 -30 -18 -16 -9 15 -35 1 -28 -15
3 -8 0 -14 -7 -14 -6 0 -8 5 -5 10 3 6 -1 10 -10 10 -9 0 -13 5 -10 10 4 6 10
8 15 5 5 -3 12 0 15 6 4 5 13 8 20 5 17 -6 28 21 13 30 -7 4 -8 3 -4 -4 6 -10
-15 -17 -28 -9 -2 1 -13 -6 -23 -16 -11 -9 -24 -14 -29 -10 -5 5 0 -3 11 -17
11 -14 16 -22 11 -18 -5 4 -15 1 -23 -7 -8 -8 -23 -15 -33 -15 -10 0 -22 -5
-26 -12 -4 -6 -3 -8 3 -5 6 4 16 0 23 -8 9 -10 9 -15 1 -15 -6 0 -11 5 -11 12
0 6 -3 8 -7 5 -3 -4 -13 -1 -21 5 -17 15 -44 20 -36 7 3 -5 10 -6 16 -3 6 4 9
1 6 -6 -2 -7 -14 -15 -27 -17 -15 -2 -20 1 -15 9 4 7 3 8 -5 4 -9 -6 -9 -11 1
-24 11 -13 10 -15 -5 -9 -11 4 -16 3 -12 -3 3 -6 -1 -13 -9 -16 -9 -3 -13 -10
-10 -15 3 -5 18 5 34 22 17 16 30 27 30 23 0 -3 6 -2 13 4 7 6 18 7 26 3 9 -6
10 -11 2 -15 -6 -4 -11 -2 -11 4 0 6 -4 9 -10 5 -5 -3 -7 -12 -3 -20 3 -8 0
-15 -7 -15 -6 0 -8 5 -5 10 3 6 2 10 -3 10 -15 0 -22 -13 -12 -24 5 -7 5 -17
-1 -26 -8 -12 -9 -11 -7 4 2 10 -3 21 -10 24 -8 2 -12 -2 -10 -9 3 -17 -6 -21
-28 -12 -8 3 -20 1 -26 -5 -14 -14 -2 -46 13 -36 7 4 9 3 5 -4 -3 -6 -15 -9
-26 -7 -13 2 -20 -2 -20 -11 0 -17 -16 -19 -26 -2 -5 7 -3 8 6 3 9 -5 11 -4 6
4 -4 6 -12 9 -17 6 -8 -6 -13 9 -10 28 1 5 -3 6 -9 2 -7 -4 -7 -12 0 -26 6
-11 8 -25 4 -31 -5 -7 -3 -8 6 -3 9 6 11 4 6 -4 -5 -7 -14 -10 -22 -7 -17 7
-18 -15 -1 -34 6 -8 1 -6 -12 5 -14 11 -21 15 -18 8 4 -6 2 -23 -4 -37 -12
-25 -12 -26 -26 -6 -8 11 -20 20 -26 19 -9 0 -8 -2 1 -6 6 -2 9 -10 6 -15 -4
-6 -3 -8 3 -5 5 3 10 0 10 -8 0 -13 -4 -13 -24 0 -13 9 -23 12 -22 8 3 -21 -2
-27 -12 -13 -9 13 -10 12 -5 -2 3 -10 -1 -21 -11 -26 -13 -8 -12 -10 5 -14 16
-4 19 -2 15 10 -5 11 -3 13 7 7 8 -5 11 -4 6 3 -7 12 19 10 31 -2 4 -4 2 -6
-6 -4 -7 2 -16 -3 -19 -11 -3 -8 0 -11 7 -7 7 5 9 1 4 -9 -3 -9 -9 -13 -12 -8
-9 13 -39 15 -46 3 -4 -6 -3 -10 2 -9 4 1 15 1 23 0 13 -1 13 -3 1 -10 -9 -6
-22 -6 -34 1 -10 5 -21 7 -25 4 -3 -3 0 -6 7 -6 7 0 9 -5 6 -10 -4 -6 -10 -8
-14 -5 -5 2 -7 -11 -5 -30 1 -19 -2 -35 -7 -35 -6 0 -8 4 -4 9 8 14 -15 25
-27 13 -7 -7 -1 -15 18 -26 22 -13 24 -15 7 -11 -17 5 -23 2 -23 -9 0 -9 6
-16 13 -16 6 -1 1 -7 -12 -14 -15 -8 -20 -15 -12 -19 8 -4 7 -5 -1 -3 -7 2
-11 10 -10 17 11 42 11 59 2 59 -6 0 -8 -4 -5 -10 3 -5 1 -10 -5 -10 -7 0 -9
-8 -5 -20 4 -12 2 -20 -5 -20 -6 0 -9 -4 -6 -9 4 -5 -6 -19 -21 -30 l-28 -21
28 11 c15 7 27 16 27 21 0 5 5 6 11 3 6 -4 -5 -18 -28 -33 -21 -14 -42 -31
-46 -39 -5 -7 -12 -11 -17 -8 -5 3 -12 0 -16 -6 -4 -7 -3 -9 3 -6 6 4 16 0 22
-7 8 -10 9 -16 1 -21 -7 -4 -7 -12 0 -26 6 -10 8 -19 4 -19 -3 0 -1 -6 5 -14
9 -11 7 -13 -11 -12 -14 0 -22 -4 -21 -11 2 -7 -2 -13 -8 -13 -5 0 -7 -4 -4
-10 10 -17 24 -11 20 9 -3 15 1 18 18 13 20 -5 20 -6 1 -13 -11 -5 -13 -8 -5
-8 11 -1 10 -5 -4 -15 -11 -8 -23 -12 -27 -10 -14 9 -51 14 -44 6 4 -4 12 -8
17 -8 5 -1 13 -2 17 -3 17 -3 9 -39 -11 -49 -21 -9 -21 -10 4 -8 21 1 26 6 24
23 -1 12 4 24 11 27 10 4 11 -1 4 -19 -7 -18 -5 -25 7 -29 13 -5 14 -9 5 -18
-19 -19 -14 -32 6 -17 15 12 16 12 5 -2 -7 -9 -9 -20 -5 -24 4 -5 2 -5 -4 -2
-7 4 -17 -6 -24 -23 -7 -16 -17 -27 -23 -23 -6 3 -7 1 -3 -5 7 -11 26 -10 60
4 14 5 17 4 12 -4 -4 -7 -13 -12 -21 -12 -8 0 -17 -5 -21 -11 -4 -6 1 -9 12
-8 23 4 44 -8 44 -24 0 -6 -6 -3 -13 8 -10 13 -16 15 -21 6 -4 -6 -13 -8 -19
-5 -7 4 -9 4 -5 -1 4 -4 3 -14 -4 -22 -9 -11 -7 -12 7 -7 14 6 16 4 10 -7 -7
-11 -6 -12 6 -3 8 7 25 11 39 9 34 -3 34 -3 20 -20 -15 -18 0 -20 20 -2 8 6 6
2 -5 -11 -11 -13 -21 -19 -23 -13 -2 6 -8 11 -13 11 -6 0 -3 -10 6 -22 8 -13
20 -23 25 -23 6 0 9 -4 8 -10 -2 -5 -7 -9 -11 -7 -5 1 -5 -3 -2 -9 5 -8 10 -8
18 0 6 6 20 11 32 11 16 0 17 2 5 9 -8 6 -17 8 -21 5 -4 -2 -10 0 -14 6 -4 6
-11 8 -16 5 -5 -4 -9 -1 -9 4 0 6 7 11 15 11 8 0 15 -4 15 -8 0 -5 6 -9 13
-10 32 -3 51 -10 55 -20 2 -7 9 -9 14 -6 7 5 8 2 3 -6 -6 -10 -4 -12 10 -6 11
4 26 0 38 -11 20 -17 20 -17 14 2 -6 17 -5 18 5 5 17 -20 46 -24 65 -9 12 10
16 10 24 -2 4 -8 6 -22 3 -31 -3 -10 -1 -18 5 -18 6 0 10 3 10 8 -3 18 2 35 8
29 4 -4 19 5 34 19 26 25 49 26 49 2 0 -7 -4 -7 -13 1 -17 13 -28 4 -20 -17 4
-10 2 -13 -5 -8 -6 3 -13 3 -16 -2 -2 -4 6 -8 19 -8 14 0 21 5 18 13 -3 8 2
11 14 9 19 -4 20 -3 14 46 -1 4 -9 5 -18 2 -15 -5 -15 -4 -3 5 18 13 51 -14
43 -35 -3 -8 -1 -14 5 -14 6 0 9 6 7 13 -9 38 -19 57 -28 57 -6 0 -8 2 -5 5 8
8 39 -6 33 -15 -3 -4 8 -15 23 -24 26 -17 26 -17 7 1 -23 21 -31 68 -14 79 8
4 9 3 5 -4 -4 -6 0 -24 9 -39 11 -21 15 -23 13 -8 -2 14 2 19 14 17 9 -1 19 2
23 8 3 6 0 7 -9 4 -9 -3 -16 -1 -16 5 0 6 4 11 9 11 4 0 6 11 3 25 -2 14 -9
22 -15 18 -6 -3 -7 -1 -3 6 4 6 11 9 16 6 5 -3 14 3 20 12 11 17 11 17 6 -1
-5 -13 -2 -17 9 -13 8 4 17 2 20 -3 3 -4 -1 -10 -7 -13 -7 -2 -9 -8 -5 -13 4
-5 12 -2 17 6 5 9 5 19 0 24 -4 4 -6 15 -3 24 4 10 2 13 -5 8 -7 -4 -12 -2
-12 4 0 7 8 9 21 5 14 -5 19 -3 15 3 -3 6 -2 13 4 17 6 4 7 11 4 17 -4 6 -2 8
4 4 12 -7 45 22 37 34 -3 4 3 14 13 21 16 13 16 13 2 -5 -16 -20 -15 -22 2
-44 8 -9 6 -11 -8 -6 -16 5 -16 4 -4 -5 24 -17 29 -13 25 18 -3 24 0 29 12 24
10 -4 14 -2 10 4 -4 6 -1 18 7 26 11 11 12 17 3 27 -7 7 0 5 14 -6 15 -10 25
-23 22 -28 -3 -4 -9 -3 -13 3 -5 9 -10 8 -20 -4 -10 -12 -10 -15 0 -15 10 0
10 -3 0 -15 -7 -8 -17 -12 -24 -8 -6 3 -7 2 -3 -2 10 -11 39 -16 32 -6 -8 14
42 54 57 45 11 -6 11 -5 0 8 -9 11 -10 18 -2 23 5 3 10 12 10 18 0 7 -7 3 -15
-8 -15 -19 -16 -19 -33 0 -14 16 -15 17 0 6 14 -10 18 -9 26 6 10 17 11 17 33
-2 l23 -20 -16 25 c-15 25 -15 26 7 26 13 0 21 -4 19 -8 -3 -5 -11 -5 -17 -2
-7 4 -8 3 -4 -1 13 -15 34 -14 35 1 1 8 3 21 4 29 1 8 5 12 9 9 10 -6 40 37
33 47 -2 4 0 10 5 14 6 3 8 -6 5 -21 -3 -18 -1 -23 7 -18 8 4 9 3 5 -5 -4 -6
-13 -8 -19 -4 -7 4 -6 0 2 -10 7 -9 19 -17 25 -16 7 0 6 2 -2 6 -6 2 -9 9 -6
14 3 6 11 5 20 -2 10 -8 14 -8 14 0 0 6 -4 11 -9 11 -5 0 -12 7 -15 16 -6 15
-4 15 11 3 15 -12 16 -12 10 4 -4 10 -7 21 -7 23 0 3 -6 2 -12 -2 -7 -4 -9 -3
-5 1 13 15 36 14 30 -1 -3 -9 2 -12 18 -9 13 3 32 -3 43 -13 20 -16 20 -16 7
1 -12 15 -11 17 3 17 9 0 16 4 16 10 0 5 -6 7 -13 4 -8 -3 -18 7 -25 23 l-13
28 21 -25 c18 -23 25 -19 22 11 -1 3 6 6 13 6 11 0 12 -4 4 -13 -16 -19 -1
-36 24 -28 18 5 20 4 10 -7 -7 -7 -13 -18 -13 -24 0 -5 5 -2 11 8 6 9 14 15
19 12 5 -3 11 -1 15 5 4 6 11 8 16 5 5 -3 6 1 3 9 -3 9 -1 16 5 16 6 0 11 -6
11 -14 0 -8 7 -17 16 -20 25 -9 29 -7 12 7 -23 18 -29 44 -12 57 10 9 14 9 14
1 0 -6 -4 -11 -10 -11 -5 0 -7 -6 -4 -13 6 -16 56 -16 69 0 8 10 41 11 53 3 8
-8 49 -4 61 4 11 8 13 8 8 0 -4 -7 0 -14 8 -18 8 -3 15 0 15 6 0 6 3 8 7 5 3
-4 -1 -15 -10 -25 -14 -15 -15 -19 -2 -19 8 0 12 4 10 7 -3 4 7 8 20 8 22 0
24 -3 13 -17 -12 -14 -11 -14 5 -2 13 11 15 17 6 28 -9 10 -9 17 -2 24 8 8 11
7 10 -2 -1 -8 3 -15 8 -16 6 -2 10 1 10 6 0 5 4 13 9 18 5 4 6 3 2 -4 -3 -6
-2 -14 4 -18 6 -4 8 -11 4 -16 -3 -5 -10 -6 -16 -3 -7 4 -8 2 -4 -4 4 -7 2
-12 -4 -12 -6 0 -9 -4 -5 -10 3 -5 14 -1 25 10 22 22 40 26 40 9 0 -5 -4 -8
-9 -5 -11 7 -36 -22 -27 -31 10 -11 37 -12 30 -2 -3 5 -10 7 -15 4 -5 -4 -9
-2 -9 4 0 19 19 21 32 3 14 -19 54 -40 43 -22 -3 6 -1 10 5 10 6 0 9 4 5 9 -3
5 -1 12 4 15 5 4 8 -2 7 -11 -2 -10 2 -23 8 -30 30 -33 34 -41 28 -48 -4 -4
-2 -6 3 -5 21 5 36 0 30 -10 -3 -6 1 -7 10 -4 13 5 10 10 -13 24 -38 23 -45
36 -34 56 6 11 11 13 16 5 4 -6 2 -11 -3 -11 -6 0 -11 -5 -11 -11 0 -5 5 -7
10 -4 6 3 10 -1 10 -9 0 -19 11 -20 30 -3 11 9 11 8 0 -7 -14 -18 -13 -19 5
-12 11 4 16 4 12 0 -4 -4 -3 -12 3 -18 5 -7 5 -17 0 -26 -7 -11 -10 -12 -10
-2 0 7 -5 10 -11 6 -8 -4 -7 -9 2 -15 8 -5 21 -1 33 9 14 12 17 13 10 2 -12
-20 -13 -80 -1 -80 5 0 6 7 3 16 -4 9 -2 13 5 8 8 -5 8 -1 0 13 -11 21 -6 33
13 33 6 0 5 -4 -3 -9 -11 -7 -9 -10 9 -16 17 -5 19 -9 9 -15 -11 -7 -10 -12 4
-27 15 -18 15 -19 -2 -19 -12 0 -17 6 -14 16 4 12 3 12 -5 1 -5 -7 -16 -18
-23 -23 -11 -7 -9 -8 5 -4 15 5 17 2 13 -13 -3 -13 -1 -18 9 -14 7 2 10 12 7
20 -4 11 -2 14 5 9 17 -10 15 -46 -3 -46 -8 0 -15 -5 -15 -11 0 -5 5 -7 10 -4
6 3 13 -1 16 -9 3 -9 11 -16 16 -16 6 0 5 6 -2 15 -14 17 -7 31 20 38 11 3 18
1 14 -4 -3 -5 -12 -9 -20 -9 -8 0 -14 -5 -14 -11 0 -5 6 -7 13 -3 6 4 9 4 5
-1 -10 -10 11 -37 23 -29 5 3 9 1 9 -5 0 -11 -48 -9 -67 2 -6 4 -15 2 -19 -5
-4 -7 -4 -10 1 -6 4 4 14 3 22 -3 11 -10 11 -15 1 -28 -11 -14 -11 -14 3 -4 9
7 19 10 22 6 4 -3 -1 -12 -11 -19 -9 -7 -12 -14 -6 -14 6 0 17 7 24 15 11 13
10 18 -6 30 -18 14 -17 15 7 4 14 -6 26 -17 26 -24 0 -8 -4 -12 -9 -9 -4 3 -9
0 -9 -5 -1 -6 -2 -15 -3 -20 0 -5 -5 -13 -10 -18 -5 -5 -6 -3 -2 4 5 9 2 11
-10 6 -15 -6 -15 -7 0 -15 12 -6 23 -5 34 3 9 8 14 9 10 5 -4 -5 0 -14 8 -21
15 -11 15 -12 0 -12 -9 0 -16 5 -16 10 0 5 -6 5 -13 -2 -9 -7 -17 -7 -24 0 -7
7 -14 5 -22 -5 -8 -10 -9 -16 -1 -21 6 -4 9 -3 8 2 -2 4 1 8 7 8 5 0 8 -4 6
-10 -3 -5 -5 -25 -5 -43 -1 -21 -5 -31 -13 -28 -7 3 -15 0 -19 -7 -4 -7 -3 -9
1 -4 5 4 18 1 30 -7 18 -12 22 -12 22 -1 0 8 -3 12 -7 10 -3 -2 -7 5 -7 16 -1
10 8 24 20 30 12 7 19 8 15 4 -4 -5 -3 -14 3 -22 9 -9 8 -13 0 -13 -6 0 -11 5
-11 11 0 5 -5 7 -11 4 -7 -5 -5 -13 6 -25 14 -15 14 -18 0 -30 -8 -7 -12 -17
-8 -24 14 -21 11 -33 -11 -45 -17 -11 -19 -11 -8 0 14 15 16 33 3 24 -5 -3
-13 -1 -16 5 -4 6 -1 9 5 8 7 -2 14 5 15 15 3 14 0 15 -9 8 -7 -6 -15 -9 -17
-6 -3 2 -5 -6 -5 -20 0 -13 3 -22 7 -19 15 9 5 -41 -11 -54 -13 -10 -12 -11 5
-5 18 6 18 5 6 -10 -8 -10 -11 -20 -7 -24 3 -3 6 0 6 7 0 17 13 4 16 -16 2
-10 -3 -14 -12 -10 -8 3 -14 1 -14 -4 0 -6 15 -9 33 -8 28 3 32 0 31 -20 -1
-12 1 -20 5 -17 3 4 6 15 6 26 0 10 5 18 10 17 6 -2 10 -8 9 -14 -1 -6 4 -11
11 -11 8 0 11 7 7 15 -4 11 -1 13 8 7 9 -5 11 -4 6 3 -4 7 -2 12 3 12 6 0 11
-5 11 -12 0 -6 2 -9 5 -6 10 10 -7 38 -19 31 -18 -12 -56 -11 -56 1 0 6 -4 5
-9 -3 -6 -9 -11 -10 -15 -2 -7 10 7 16 29 11 43 -9 47 -9 41 6 -5 12 -2 12 16
3 18 -10 20 -9 15 5 -3 8 -1 18 5 22 6 4 8 3 4 -4 -3 -6 2 -18 11 -28 17 -17
17 -18 1 -11 -25 9 -22 0 3 -14 14 -7 19 -7 15 0 -4 5 3 15 15 21 11 7 18 14
15 17 -3 3 -12 0 -20 -6 -8 -7 -17 -8 -20 -3 -9 15 18 32 34 22 8 -6 22 -10
30 -10 11 1 10 4 -4 15 -23 17 -14 20 15 4 11 -6 17 -15 12 -22 -4 -8 -1 -7
10 1 9 8 21 11 26 7 7 -3 8 0 5 9 -3 9 -10 13 -15 10 -5 -3 -9 0 -9 5 0 6 9
11 21 11 11 0 17 -5 14 -10 -4 -6 5 -5 19 2 14 6 26 15 26 20 0 5 5 6 10 3 6
-3 10 -2 10 3 0 6 -7 13 -16 16 -10 4 -13 2 -8 -7 4 -6 3 -8 -1 -4 -5 4 -10
14 -11 23 -2 13 0 13 14 2 13 -11 15 -11 10 3 -4 9 2 29 12 45 17 25 19 25 17
7 0 -12 -4 -20 -8 -17 -14 8 -17 -23 -4 -46 l13 -23 6 21 c4 12 11 20 16 17 5
-3 12 0 16 6 4 8 3 9 -4 5 -7 -4 -12 -3 -12 2 0 17 13 22 29 9 14 -10 14 -10
4 4 -7 9 -9 20 -5 25 4 5 -3 0 -15 -10 -32 -27 -28 -14 6 23 17 18 29 37 27
44 -1 7 -1 9 1 4 3 -4 10 -4 16 0 7 4 7 1 -1 -9 -10 -13 -10 -18 -1 -24 8 -4
9 -3 5 4 -4 7 -2 12 3 12 6 0 11 9 11 21 0 11 -4 18 -8 15 -4 -2 -14 -1 -21 3
-9 6 -4 9 13 9 14 0 26 -5 26 -10 0 -5 5 -6 11 -3 6 5 4 11 -7 19 -13 10 -14
15 -4 21 9 6 11 4 5 -4 -6 -10 -3 -11 14 -2 28 15 27 18 -9 16 -29 -2 -30 -1
-16 20 17 26 12 36 -12 29 -11 -4 -10 -1 3 7 11 6 29 19 39 28 11 9 17 11 13
5 -4 -6 3 -20 16 -30 22 -19 22 -19 6 1 -9 11 -14 26 -12 33 6 16 -8 15 -33
-2 -18 -13 -21 -13 -21 0 0 8 3 12 5 9 3 -3 11 3 19 13 8 9 12 11 8 5 -4 -9
-1 -11 10 -6 9 3 13 9 8 12 -11 8 -10 42 1 60 6 10 5 12 -2 7 -7 -4 -12 -2
-12 3 0 6 -5 11 -11 11 -8 0 -8 -4 0 -14 9 -10 9 -16 1 -21 -8 -5 -8 -11 1
-21 10 -12 9 -13 -4 -8 -16 6 -31 33 -22 42 3 3 5 0 5 -7 0 -7 5 -9 11 -6 7 5
2 16 -12 31 -12 13 -17 24 -11 24 7 0 12 -5 12 -11 0 -8 4 -8 13 0 10 7 17 7
24 0 8 -8 13 -7 18 2 5 8 4 10 -4 5 -6 -4 -14 0 -17 8 -3 9 -10 16 -16 16 -5
0 -6 -6 -2 -12 6 -10 4 -10 -7 0 -21 20 5 40 28 21 16 -13 17 -12 5 3 -10 13
-10 17 0 22 7 3 2 3 -10 0 -24 -6 -24 -6 -7 23 l17 28 -20 -25 c-11 -13 -18
-28 -15 -33 3 -5 -4 -3 -14 4 -11 6 -20 18 -20 25 0 7 4 11 9 8 4 -3 8 -1 8 5
0 5 -6 11 -12 14 -7 2 -9 8 -5 13 12 13 27 -18 21 -41 -7 -23 -4 -20 19 18 10
15 14 27 10 26 -20 -3 -29 3 -30 21 -1 11 2 20 8 20 5 0 9 4 9 10 0 5 -3 9 -7
9 -20 -3 -24 2 -14 15 9 11 9 16 0 21 -8 6 -7 10 2 16 11 7 10 9 -3 9 -12 0
-16 -8 -14 -28 1 -15 5 -33 9 -40 5 -7 3 -12 -4 -12 -8 0 -8 -5 2 -17 7 -10 9
-15 5 -11 -5 4 -15 3 -22 -3 -8 -7 -14 -7 -19 1 -4 6 -1 9 5 8 7 -2 14 7 16
20 2 13 0 21 -5 17 -6 -3 -8 3 -6 14 2 11 -3 22 -11 25 -16 6 -19 26 -3 26 5
0 7 -4 4 -10 -3 -5 -1 -10 4 -10 15 0 14 23 -1 39 -11 11 -9 11 10 1 13 -6 26
-9 30 -6 3 3 0 6 -7 6 -7 0 -9 5 -5 12 4 6 3 8 -4 4 -6 -3 -13 -2 -17 4 -4 6
-11 8 -16 5 -5 -4 -9 -1 -9 4 0 6 4 11 10 11 15 0 7 24 -10 33 -10 5 -8 6 7 3
13 -2 26 1 30 6 3 7 1 8 -5 4 -7 -4 -12 -2 -12 4 0 6 -4 9 -8 6 -4 -2 -9 4 -9
15 -1 10 3 19 8 19 6 0 7 -5 3 -11 -4 -8 0 -8 15 0 25 14 28 23 4 14 -15 -6
-16 -4 -5 9 9 11 10 18 2 23 -5 3 -10 11 -10 16 0 6 5 7 12 3 7 -4 2 6 -10 23
-25 35 -27 43 -11 43 5 0 7 -4 4 -10 -4 -6 1 -7 11 -3 15 5 13 10 -12 32 -16
13 -21 22 -11 18 19 -7 23 3 7 19 -7 7 -6 11 4 11 8 0 13 -4 10 -9 -3 -4 0 -8
7 -8 9 0 9 -3 0 -14 -9 -10 -8 -15 3 -19 11 -4 13 -1 9 10 -4 10 -2 14 5 9 6
-3 14 -1 18 5 4 7 3 9 -4 5 -6 -3 -13 -2 -16 3 -4 5 3 12 14 16 22 7 26 20 8
31 -7 4 -8 3 -4 -4 5 -8 1 -10 -11 -6 -15 5 -16 4 -3 -5 9 -7 10 -11 3 -11
-19 0 -26 20 -9 26 9 3 14 10 11 14 -3 5 -1 11 5 15 6 4 8 11 5 16 -4 5 -1 9
4 9 14 0 14 -13 1 -26 -6 -6 -2 -14 13 -23 20 -13 21 -13 8 2 -8 10 -9 17 -3
17 6 0 16 -8 22 -17 8 -15 9 -13 6 9 -5 28 8 46 19 28 3 -5 12 -10 18 -10 7 0
4 5 -5 11 -10 5 -18 15 -18 21 0 7 4 7 14 -1 10 -9 17 -7 27 6 9 11 10 14 2 9
-7 -4 -13 -3 -13 2 0 17 13 21 32 11 18 -9 18 -8 8 10 -6 12 -13 21 -16 21 -3
0 -2 -4 1 -10 3 -5 0 -7 -9 -4 -9 3 -17 -2 -21 -15 -3 -12 -10 -19 -15 -16
-10 6 -36 -34 -32 -48 1 -5 -2 -5 -8 -2 -6 4 -9 10 -6 13 3 3 0 12 -7 21 -11
14 -10 15 7 1 18 -14 19 -13 13 3 -4 12 -3 16 4 11 7 -4 9 1 5 17 -3 13 -3 18
0 12 3 -7 12 -13 20 -13 9 0 13 4 10 9 -7 11 43 33 56 25 7 -5 9 1 5 17 -3 13
-2 31 3 39 8 12 9 9 8 -10 -2 -16 2 -24 10 -23 6 2 12 -2 12 -7 0 -6 5 -10 12
-10 9 0 9 3 0 12 -9 9 -6 17 15 35 21 17 23 21 8 16 -16 -5 -18 -4 -9 8 13 16
15 51 2 43 -4 -3 -8 0 -8 7 0 7 -3 9 -6 6 -4 -4 -1 -13 5 -21 14 -16 6 -40
-10 -31 -5 4 -9 2 -9 -4 0 -5 5 -11 11 -13 6 -2 0 -12 -13 -23 -17 -15 -19
-16 -9 -2 11 14 11 20 1 32 -12 15 -4 21 23 16 5 -1 7 4 4 11 -2 7 -11 12 -21
10 -9 -2 -16 2 -16 8 0 5 -7 10 -15 10 -8 0 -15 4 -15 10 0 14 22 8 38 -10 12
-13 13 -13 8 2 -3 9 -2 19 2 21 4 2 2 2 -5 1 -18 -4 -35 20 -22 33 8 8 7 13
-3 18 -7 5 -10 5 -6 0 4 -4 3 -14 -3 -22 -6 -7 -8 -13 -3 -13 11 0 -18 -20
-28 -20 -5 0 -8 5 -8 11 0 5 5 7 11 3 8 -5 9 -2 1 11 -5 10 -17 20 -26 21 -9
1 -14 -1 -11 -6 3 -4 -2 -13 -10 -20 -12 -10 -13 -8 -10 12 3 12 9 24 15 26 5
2 10 9 10 15 0 6 -11 0 -25 -13 -14 -13 -28 -20 -32 -15 -5 4 -2 10 5 12 7 3
17 14 23 26 9 20 9 20 -4 5 -8 -10 -17 -15 -20 -11 -4 3 -7 1 -7 -5 0 -7 -9
-12 -20 -12 -11 0 -20 4 -20 10 0 5 8 7 18 3 9 -3 14 -3 10 1 -3 4 -13 9 -22
10 -9 1 -22 10 -29 20 -12 16 -13 16 -13 -3 0 -11 5 -17 10 -14 5 4 6 1 1 -7
-4 -7 -2 -16 6 -21 10 -6 10 -9 2 -9 -15 0 -35 35 -26 44 3 3 1 6 -6 6 -9 0
-9 6 -1 23 11 21 10 21 -4 3 -9 -10 -13 -23 -9 -29 4 -6 1 -7 -6 -2 -7 4 -11
16 -8 26 3 11 1 16 -5 13 -5 -3 -7 -16 -4 -28 4 -15 1 -23 -8 -23 -9 0 -12 10
-10 30 3 23 1 28 -12 23 -13 -5 -15 -2 -11 14 3 11 1 18 -4 14 -5 -3 -9 -12
-9 -20 0 -8 -6 -14 -14 -14 -7 0 -19 -7 -26 -15 -7 -9 -15 -14 -17 -11 -8 8
30 45 40 39 6 -3 7 -1 3 6 -4 6 -11 9 -16 6 -4 -3 -10 0 -12 7 -3 7 -7 5 -11
-6 -5 -11 -3 -15 5 -10 7 4 8 3 4 -4 -4 -6 -14 -8 -23 -5 -9 4 -14 2 -10 -3 3
-5 -3 -10 -13 -10 -10 0 -16 4 -14 8 3 4 0 8 -5 8 -6 0 -11 5 -11 11 0 8 5 7
16 -1 12 -11 18 -10 32 3 10 11 12 17 4 17 -7 0 -12 -4 -12 -10 0 -5 -5 -10
-11 -10 -5 0 -8 4 -4 9 3 5 1 12 -5 16 -6 4 -7 12 -4 18 4 7 4 9 -1 5 -4 -4
-15 -2 -24 5 -14 10 -14 10 -4 -4 7 -9 10 -18 7 -22 -8 -8 -35 3 -30 12 3 4
-4 7 -14 8 -11 1 -22 -2 -25 -8 -3 -5 0 -6 8 -3 8 3 18 1 21 -4 12 -19 -23
-20 -40 -1 -9 10 -13 19 -7 19 5 0 10 7 10 15 0 20 -2 19 -22 -11 -9 -15 -12
-23 -6 -20 6 4 11 3 11 -2 0 -11 -30 -25 -38 -17 -3 3 0 5 7 5 7 0 9 5 6 10
-4 6 -2 16 3 23 8 9 3 13 -19 13 -16 1 -26 -2 -23 -7 3 -5 0 -9 -6 -9 -6 0 -8
-4 -5 -10 3 -5 1 -10 -5 -10 -7 0 -9 8 -5 21 7 20 6 20 -19 4 -31 -20 -34 -13
-7 12 19 18 18 18 -29 19 -36 0 -47 -3 -43 -13 3 -7 0 -13 -7 -13 -7 0 -11 9
-8 23 3 18 -1 22 -20 24 -17 1 -21 -2 -12 -7 18 -11 21 -37 4 -37 -17 0 -19
17 -1 18 6 0 3 4 -8 8 -30 12 -47 3 -34 -20 15 -28 4 -23 -16 7 -9 15 -12 24
-7 20 6 -3 14 -1 18 6 4 7 4 10 -1 6 -4 -4 -14 -3 -21 3 -10 8 -12 6 -9 -10 2
-11 -1 -24 -7 -27 -6 -4 -8 -3 -5 3 4 6 -8 10 -27 10 -19 0 -33 -5 -32 -11 2
-6 1 -8 -1 -3 -3 4 -9 5 -14 1 -5 -3 -9 -1 -9 4 0 6 7 12 15 16 8 3 15 11 15
18 0 8 -3 9 -8 3 -10 -14 -46 -19 -37 -5 5 8 0 7 -13 -1 -11 -7 -19 -17 -18
-23 2 -6 1 -8 -1 -3 -7 12 -43 8 -43 -5 0 -6 -3 -8 -6 -5 -9 9 16 38 26 32 4
-3 18 3 31 13 17 15 19 21 9 27 -8 5 -11 4 -6 -3 10 -17 -29 -35 -43 -18 -6 7
-7 17 -3 21 4 5 1 5 -6 1 -10 -6 -10 -11 -1 -22 14 -17 -2 -19 -21 -1 -12 10
-12 9 -1 -5 10 -13 10 -18 2 -18 -7 0 -9 -5 -5 -12 5 -7 3 -8 -6 -3 -7 4 -15
2 -20 -5 -5 -8 -9 -7 -13 5 -4 9 -3 14 1 11 4 -2 14 -1 21 3 9 6 10 11 2 15
-6 4 -11 3 -11 -1 0 -5 -9 -9 -20 -10 -11 -1 -18 2 -15 6 2 5 -3 8 -12 7 -10
0 -18 4 -18 11 0 6 -4 15 -8 20 -5 4 -8 4 -7 -2z m-116 -67 c-3 -4 0 -8 5 -8
6 0 11 6 11 13 0 8 4 7 10 -3 8 -12 10 -12 10 -1 0 8 3 12 6 8 3 -3 1 -14 -5
-24 -6 -11 -11 -13 -11 -5 0 7 -4 11 -9 8 -11 -7 -41 3 -41 13 0 4 7 8 15 8 8
0 12 -4 9 -9z m-79 -8 c5 8 11 8 21 -1 11 -9 14 -9 14 1 0 8 3 11 6 7 3 -3 1
-14 -5 -24 -6 -10 -11 -13 -11 -7 0 11 -30 16 -30 4 0 -3 6 -12 13 -20 10 -12
9 -12 -5 -1 -15 11 -18 11 -19 0 0 -10 -2 -11 -6 -1 -2 6 -10 9 -16 5 -7 -4
-6 0 1 10 8 9 10 22 6 29 -6 11 -5 11 8 0 12 -9 18 -10 23 -2z m688 1 c-4 -3
-10 -10 -14 -14 -3 -4 -11 -2 -18 6 -9 12 -7 15 14 15 14 0 22 -3 18 -7z
m-523 -5 c0 -2 -7 -6 -15 -10 -8 -3 -15 -1 -15 4 0 6 7 10 15 10 8 0 15 -2 15
-4z m320 0 c0 -2 -7 -6 -15 -10 -8 -3 -15 -1 -15 4 0 6 7 10 15 10 8 0 15 -2
15 -4z m-546 -35 c-4 -3 -9 0 -12 8 -3 10 -8 7 -18 -10 -7 -13 -13 -18 -14
-10 0 8 -8 4 -21 -10 -11 -13 -18 -18 -14 -11 5 9 -2 11 -27 7 l-33 -5 25 19
c22 18 25 18 38 3 12 -16 13 -15 7 3 -3 11 -3 16 1 13 4 -4 16 -1 27 7 15 11
24 12 34 3 7 -6 11 -14 7 -17z m840 14 c-7 -16 -24 -21 -24 -6 0 8 7 13 27 20
1 1 0 -6 -3 -14z m-118 -7 c4 -7 2 -8 -5 -4 -6 4 -18 3 -25 -3 -9 -8 -13 -7
-13 2 0 16 34 20 43 5z m270 -20 c4 -6 3 -8 -4 -4 -6 3 -15 -2 -21 -11 -6 -11
-11 -13 -11 -5 0 7 -5 10 -12 6 -7 -4 -8 -3 -4 5 4 6 11 9 16 6 5 -3 11 -1 15
5 8 13 12 13 21 -2z m-92 -16 c3 -5 -1 -9 -9 -9 -8 0 -15 4 -15 9 0 4 4 8 9 8
6 0 12 -4 15 -8z m50 -28 c3 -8 2 -12 -4 -9 -6 3 -10 10 -10 16 0 14 7 11 14
-7z m168 -18 c-5 -18 -7 -18 -10 -4 -3 15 -7 16 -25 7 -20 -9 -20 -9 -5 4 26
21 46 17 40 -7z m-1232 10 c0 -2 -7 -7 -16 -10 -8 -3 -12 -2 -9 4 6 10 25 14
25 6z m1294 -44 c3 -5 -1 -9 -9 -9 -8 0 -12 4 -9 9 3 4 7 8 9 8 2 0 6 -4 9 -8z
m96 -48 c0 -2 -9 0 -20 6 -11 6 -20 13 -20 16 0 2 9 0 20 -6 11 -6 20 -13 20
-16z m71 -11 c-12 -20 -14 -14 -5 12 4 9 9 14 11 11 3 -2 0 -13 -6 -23z
m-1636 -2 c3 -5 2 -12 -3 -15 -5 -3 -9 1 -9 9 0 17 3 19 12 6z m-59 -16 c-3
-23 -12 -26 -13 -5 -1 11 2 20 7 20 4 0 7 -7 6 -15z m-38 -30 c-3 -3 -9 2 -12
12 -6 14 -5 15 5 6 7 -7 10 -15 7 -18z m-148 -101 c0 -2 -9 0 -20 6 -11 6 -20
13 -20 16 0 2 9 0 20 -6 11 -6 20 -13 20 -16z m1910 12 c0 -3 -4 -8 -10 -11
-5 -3 -10 -1 -10 4 0 6 5 11 10 11 6 0 10 -2 10 -4z m-2007 -91 c-3 -9 -8 -14
-10 -11 -3 3 -2 9 2 15 9 16 15 13 8 -4z m-179 -163 c3 -5 -1 -9 -9 -9 -8 0
-12 4 -9 9 3 4 7 8 9 8 2 0 6 -4 9 -8z m10 -31 c-8 -8 -34 -10 -38 -2 -3 4 6
7 19 7 14 0 22 -2 19 -5z m2005 -4 c6 -8 8 -17 4 -20 -3 -4 0 -13 6 -21 9 -11
9 -16 0 -22 -7 -4 -15 -2 -17 4 -2 7 -8 9 -14 6 -5 -4 -2 5 7 20 16 24 14 31
-7 27 -5 0 -8 4 -8 9 0 14 16 12 29 -3z m-28 -94 c13 -16 12 -17 -3 -4 -17 13
-22 21 -14 21 2 0 10 -8 17 -17z m-2081 -47 c0 -2 -8 -10 -17 -17 -16 -13 -17
-12 -4 4 13 16 21 21 21 13z m-49 -35 c-10 -6 -9 -12 6 -26 17 -17 17 -18 1
-12 -21 7 -23 -3 -5 -22 8 -10 8 -12 0 -7 -6 3 -14 2 -18 -4 -4 -6 -11 -8 -16
-4 -6 3 -5 12 3 22 11 12 11 16 0 20 -10 3 -7 11 9 28 12 13 25 21 28 18 3 -3
0 -9 -8 -13z m1117 -25 c-7 -8 -15 -12 -17 -11 -5 6 10 25 20 25 5 0 4 -6 -3
-14z m192 4 c0 -5 -5 -10 -11 -10 -5 0 -7 5 -4 10 3 6 8 10 11 10 2 0 4 -4 4
-10z m84 2 c3 -5 -1 -9 -9 -9 -8 0 -12 4 -9 9 3 4 7 8 9 8 2 0 6 -4 9 -8z
m-340 -36 c-3 -9 -10 -16 -15 -16 -5 0 -4 9 3 20 14 22 21 20 12 -4z m38 14
c3 -25 2 -30 -7 -30 -5 0 -11 9 -11 20 -1 20 15 29 18 10z m393 1 c3 -5 2 -12
-3 -15 -5 -3 -9 1 -9 9 0 17 3 19 12 6z m-504 -38 c12 -16 12 -17 -2 -6 -9 7
-20 9 -24 5 -5 -4 -5 -1 -1 6 9 16 11 15 27 -5z m545 -40 c-10 -10 -35 18 -29
33 4 12 8 11 20 -6 8 -12 12 -24 9 -27z m-1526 17 c0 -5 -2 -10 -4 -10 -3 0
-8 5 -11 10 -3 6 -1 10 4 10 6 0 11 -4 11 -10z m1577 -12 c-3 -8 -6 -5 -6 6
-1 11 2 17 5 13 3 -3 4 -12 1 -19z m-722 -7 c-9 -8 -36 -10 -30 -2 2 4 11 8
20 8 8 0 13 -3 10 -6z m-38 -37 c-3 -3 -12 -4 -19 -1 -8 3 -5 6 6 6 11 1 17
-2 13 -5z m873 -18 c0 -3 -4 -8 -10 -11 -5 -3 -10 -1 -10 4 0 6 5 11 10 11 6
0 10 -2 10 -4z m-1726 -161 c-4 -8 -11 -15 -16 -15 -6 0 -5 6 2 15 7 8 14 15
16 15 2 0 1 -7 -2 -15z m1796 1 c0 -3 -4 -8 -10 -11 -5 -3 -10 -1 -10 4 0 6 5
11 10 11 6 0 10 -2 10 -4z m50 -29 c0 -2 -10 -12 -22 -23 l-23 -19 19 23 c18
21 26 27 26 19z m415 -25 c-3 -3 -11 0 -18 7 -9 10 -8 11 6 5 10 -3 15 -9 12
-12z m-2245 -26 c0 -3 -4 -8 -10 -11 -5 -3 -10 -1 -10 4 0 6 5 11 10 11 6 0
10 -2 10 -4z m513 -42 c-3 -8 -10 -14 -15 -14 -6 0 -6 6 1 14 8 10 9 16 1 21
-5 3 -10 12 -10 18 0 7 7 4 15 -6 7 -11 11 -25 8 -33z m-423 -24 c0 -5 -2 -10
-4 -10 -3 0 -8 5 -11 10 -3 6 -1 10 4 10 6 0 11 -4 11 -10z m258 -42 c-2 -7 3
-12 10 -10 9 1 10 -2 1 -16 -13 -21 -36 -25 -36 -6 0 7 7 10 16 6 13 -5 14 -3
4 10 -7 8 -10 18 -6 21 10 10 13 8 11 -5z m-65 -20 c-2 -5 -13 -8 -23 -8 -10
0 -21 3 -23 8 -3 4 8 7 23 7 15 0 26 -3 23 -7z m1504 -38 c-26 -22 -32 -19
-18 9 7 12 17 18 26 15 12 -5 10 -10 -8 -24z m378 -39 c-3 -6 -11 -11 -16 -11
-5 0 -4 6 3 14 14 16 24 13 13 -3z m-355 -61 c0 -5 -5 -10 -11 -10 -5 0 -7 5
-4 10 3 6 8 10 11 10 2 0 4 -4 4 -10z m324 -15 c-4 -8 -8 -15 -10 -15 -2 0 -4
7 -4 15 0 8 4 15 10 15 5 0 7 -7 4 -15z m-65 -37 c8 3 11 0 7 -7 -10 -15 -19
-14 -42 5 -19 15 -19 15 1 6 11 -5 26 -7 34 -4z m-65 -13 c-4 -8 -8 -15 -10
-15 -2 0 -4 7 -4 15 0 8 4 15 10 15 5 0 7 -7 4 -15z m-217 -22 c-4 -26 -17
-44 -27 -38 -9 6 -8 24 3 43 12 18 27 15 24 -5z"/>
<path d="M2789 2778 c-5 -18 -6 -38 -1 -34 7 8 12 36 6 36 -2 0 -4 -1 -5 -2z"/>
<path d="M2546 4418 c3 -5 10 -6 15 -3 13 9 11 12 -6 12 -8 0 -12 -4 -9 -9z"/>
<path d="M2116 4398 c3 -4 9 -8 15 -8 5 0 9 4 9 8 0 5 -7 9 -15 9 -8 0 -12 -4
-9 -9z"/>
<path d="M2520 4400 c10 -6 11 -10 3 -10 -7 0 -13 -4 -13 -9 0 -8 8 -8 39 -2
8 2 -22 31 -33 31 -6 0 -4 -5 4 -10z"/>
<path d="M1733 4256 c-3 -5 -2 -6 3 -3 6 3 16 2 24 -4 11 -6 11 -9 3 -10 -7
-1 -19 -2 -25 -3 -7 -1 -16 3 -20 9 -5 6 -8 6 -8 -2 0 -13 17 -26 38 -29 6 -1
10 1 7 6 -3 5 0 10 7 12 6 2 12 11 13 19 3 16 -33 21 -42 5z"/>
<path d="M3435 4189 c-4 -6 -5 -12 -2 -15 2 -3 7 2 10 11 7 17 1 20 -8 4z"/>
<path d="M1593 4158 c-2 -16 1 -18 10 -9 7 7 8 14 1 21 -6 6 -10 2 -11 -12z"/>
<path d="M1399 4058 c-5 -18 -6 -38 -1 -34 7 8 12 36 6 36 -2 0 -4 -1 -5 -2z"/>
<path d="M3836 4035 c-23 -21 -32 -19 -27 8 1 5 -3 6 -8 2 -7 -4 -6 -15 1 -31
9 -20 9 -27 -2 -34 -14 -9 -50 8 -50 24 0 6 -7 1 -16 -10 -14 -18 -15 -18 -9
6 5 22 5 23 -6 6 -9 -14 -8 -21 6 -35 10 -9 15 -11 11 -4 -4 7 1 10 11 9 10
-2 18 -12 19 -24 1 -12 -2 -19 -7 -16 -4 2 -5 12 -2 22 5 13 3 14 -7 5 -7 -6
-19 -9 -28 -6 -11 5 -13 3 -7 -7 5 -9 4 -11 -3 -6 -16 10 -15 -7 1 -23 9 -11
9 -12 0 -7 -15 8 -38 48 -26 44 9 -3 13 5 13 25 0 7 -5 5 -11 -5 -6 -11 -16
-15 -27 -11 -13 4 -13 2 3 -10 11 -9 16 -17 11 -17 -5 0 -2 -8 5 -17 8 -10 9
-14 2 -10 -6 4 -14 3 -18 -3 -4 -6 -11 -8 -16 -5 -5 4 -12 -1 -15 -9 -6 -16
-24 -12 -24 5 0 6 4 8 9 5 5 -4 6 4 3 16 -5 19 -7 20 -10 6 -4 -18 -17 -24
-25 -10 -2 4 -2 1 -1 -5 2 -7 -1 -13 -6 -13 -6 0 -10 -5 -10 -11 0 -8 4 -8 14
0 11 9 15 8 20 -5 4 -10 -3 -23 -21 -38 -15 -11 -31 -21 -34 -21 -4 0 -11 -3
-15 -7 -4 -5 -2 -8 4 -8 7 0 12 -5 12 -10 0 -6 -3 -9 -7 -9 -22 4 -32 -3 -39
-23 -5 -13 -7 -26 -6 -31 1 -4 -1 -6 -5 -5 -5 2 -8 -1 -8 -5 0 -5 -8 -13 -17
-18 -9 -5 -15 -16 -12 -23 3 -7 -2 -16 -12 -20 -13 -5 -14 -9 -4 -21 9 -10 9
-15 1 -15 -10 0 -15 14 -12 33 1 5 -3 6 -9 2 -5 -3 -10 -2 -10 4 0 5 5 13 10
16 6 3 10 1 10 -5 0 -6 5 -8 11 -4 8 4 7 9 -2 15 -7 4 -18 4 -25 -1 -6 -6 -14
-7 -18 -3 -4 4 -4 -1 0 -11 6 -15 4 -17 -7 -11 -8 4 -1 -6 15 -23 16 -17 34
-28 40 -25 6 3 7 2 3 -2 -10 -11 -39 -16 -32 -5 3 4 -2 10 -10 14 -8 3 -17 0
-21 -6 -4 -7 -3 -8 4 -4 7 4 12 1 12 -8 0 -8 -4 -18 -10 -21 -5 -3 -10 -1 -10
6 0 7 -3 9 -6 6 -4 -4 -2 -12 4 -19 6 -7 10 -17 10 -21 0 -5 3 -11 6 -14 3 -3
3 4 1 16 -2 12 0 19 6 16 5 -4 7 -10 4 -15 -3 -4 1 -11 7 -13 10 -4 10 -6 0
-6 -7 -1 -10 -6 -6 -13 4 -7 3 -8 -4 -4 -7 4 -12 3 -12 -3 0 -5 6 -12 13 -14
10 -4 10 -6 0 -6 -7 -1 -13 -6 -13 -12 0 -5 4 -8 8 -5 5 3 9 -1 9 -9 0 -8 -4
-12 -8 -10 -10 7 -30 -20 -21 -30 4 -4 -4 -4 -18 0 -14 4 -23 6 -20 4 3 -2 16
-13 29 -24 14 -11 21 -14 17 -8 -9 17 8 50 18 34 4 -6 2 -11 -4 -11 -6 0 -10
-6 -9 -12 1 -7 1 -22 0 -33 -1 -18 -2 -19 -12 -2 -5 9 -15 17 -20 17 -6 0 -4
-7 5 -15 8 -8 17 -24 21 -34 3 -10 15 -21 25 -24 13 -3 18 -11 14 -21 -3 -9
-10 -14 -14 -11 -5 3 -12 0 -16 -6 -4 -8 -3 -9 4 -5 16 10 15 -7 0 -23 -11
-11 -9 -11 9 0 12 7 20 16 17 20 -2 4 1 11 7 15 8 5 9 3 4 -6 -6 -10 -4 -12 8
-7 9 3 19 1 23 -6 4 -7 4 -9 -1 -5 -4 4 -14 0 -22 -10 -9 -10 -11 -11 -7 -2 7
13 5 13 -9 1 -9 -7 -16 -21 -16 -30 1 -13 2 -13 6 2 2 9 8 15 13 12 5 -3 7
-12 3 -20 -3 -8 0 -15 7 -15 6 0 9 4 6 8 -7 12 12 38 21 29 4 -5 3 -11 -2 -15
-20 -14 -23 -75 -5 -98 8 -8 8 -14 0 -19 -5 -3 -10 -12 -10 -18 0 -7 4 -6 10
3 6 10 10 11 10 3 0 -7 4 -13 8 -13 5 0 9 7 9 15 0 8 -5 11 -11 8 -6 -4 -4 2
4 12 8 10 10 16 4 12 -17 -10 -27 23 -13 39 8 10 8 14 1 14 -6 0 -9 7 -5 15 7
20 11 16 17 -18 3 -16 1 -25 -5 -22 -5 4 -9 1 -9 -4 0 -6 7 -11 15 -11 9 0 13
-9 12 -27 -1 -20 3 -28 14 -27 9 1 16 -4 16 -11 0 -7 -6 -11 -14 -8 -9 4 -11
0 -7 -11 3 -9 11 -13 18 -9 6 4 5 -1 -3 -10 -12 -15 -9 -21 12 -18 4 0 7 -4 7
-9 0 -6 -4 -10 -9 -10 -8 0 -8 -28 -1 -37 2 -2 3 -6 5 -10 6 -23 20 -49 29
-56 7 -6 5 -7 -6 -4 -9 3 -19 -1 -22 -9 -3 -7 -2 -13 2 -11 4 1 8 -2 9 -6 1
-4 9 -15 18 -23 14 -14 14 -18 -2 -44 -9 -16 -19 -27 -23 -25 -3 2 -7 -5 -7
-16 -2 -16 2 -19 20 -13 12 4 25 11 28 17 4 5 6 -4 6 -21 -1 -17 -5 -28 -10
-25 -4 2 -5 9 -2 14 8 12 -17 11 -35 -2 -13 -9 -12 -10 3 -5 17 5 22 -4 17
-33 -1 -13 1 -13 14 -2 9 8 16 9 16 5 0 -5 -9 -15 -20 -22 -11 -7 -20 -9 -19
-5 4 22 -3 24 -21 8 -11 -10 -20 -23 -20 -29 0 -6 7 -3 14 7 8 11 17 14 20 8
4 -5 2 -12 -4 -16 -6 -4 -8 -11 -5 -16 4 -5 1 -9 -5 -9 -6 0 -8 -4 -5 -10 3
-5 1 -10 -5 -10 -7 0 -10 -6 -7 -12 2 -7 0 -24 -5 -38 -7 -20 -11 -22 -19 -10
-9 13 -10 12 -6 -2 3 -9 -3 -24 -14 -34 -10 -9 -19 -23 -19 -31 0 -7 -3 -12
-7 -12 -22 4 -24 -3 -7 -23 15 -19 16 -20 2 -9 -11 8 -18 9 -18 3 0 -6 7 -15
16 -20 10 -5 -6 -8 -45 -7 -33 1 -57 -3 -54 -7 3 -5 11 -7 19 -4 8 3 14 1 14
-4 0 -13 -37 -13 -45 0 -4 6 -11 8 -16 4 -5 -3 -7 -9 -4 -14 3 -5 1 -11 -5
-15 -5 -3 -10 0 -10 7 0 10 -3 9 -9 -2 -6 -8 -7 -18 -5 -22 3 -4 -5 -8 -17 -8
-21 0 -21 1 -5 19 14 15 15 21 4 27 -7 4 -10 4 -6 -1 11 -11 -12 -36 -25 -28
-6 4 -7 1 -3 -6 10 -15 -25 -11 -36 4 -4 5 -6 0 -6 -11 1 -11 8 -21 15 -21 6
0 10 3 8 7 -2 3 5 6 15 6 11 0 17 -2 15 -5 -3 -2 0 -10 7 -18 9 -11 8 -13 -3
-11 -8 2 -13 -3 -11 -10 1 -8 -2 -11 -8 -7 -8 5 -7 11 1 21 10 12 8 14 -12 10
-13 -2 -23 -9 -21 -16 2 -9 -6 -7 -23 4 -27 18 -27 17 -21 -6 l7 -23 -14 23
c-7 12 -16 19 -20 15 -11 -10 -57 -12 -51 -1 3 4 9 6 14 3 5 -3 11 -1 14 4 4
5 14 8 24 7 17 -3 32 10 32 29 0 6 -4 4 -9 -3 -4 -7 -22 -15 -40 -17 -17 -2
-30 -1 -27 3 3 5 1 14 -5 22 -6 11 -9 12 -9 2 0 -7 -4 -11 -9 -8 -5 3 -15 -2
-22 -11 -12 -14 -12 -16 0 -8 10 5 12 4 7 -4 -5 -8 -13 -7 -28 3 -11 8 -26 12
-33 10 -7 -3 -16 0 -20 6 -5 8 -11 8 -21 -1 -7 -6 -11 -16 -7 -22 3 -6 1 -7
-6 -3 -9 6 -9 11 1 24 11 13 11 15 -4 9 -9 -3 -22 1 -29 9 -9 11 -15 12 -25 3
-10 -8 -14 -8 -15 0 -3 26 -4 30 -11 37 -5 4 -8 -1 -8 -11 0 -18 -1 -18 -13
-1 -7 9 -26 19 -42 21 -16 1 -31 7 -33 13 -2 6 -9 9 -17 6 -7 -3 -16 -1 -19 4
-3 5 5 8 19 7 13 -2 26 3 29 11 4 11 2 12 -14 4 -29 -15 -37 -12 -12 6 23 16
29 34 12 34 -6 0 -9 -6 -8 -12 2 -7 -3 -12 -9 -10 -7 1 -13 -3 -13 -9 0 -6 -7
-9 -15 -6 -8 4 -17 1 -21 -5 -4 -6 -3 -8 3 -5 6 4 14 0 17 -9 9 -24 8 -26 -13
-14 -30 15 -40 11 -11 -5 14 -8 33 -12 43 -9 9 3 17 0 17 -6 0 -6 -4 -8 -10
-5 -5 3 -10 2 -10 -3 0 -5 -7 -9 -15 -9 -8 0 -12 4 -9 9 3 4 1 8 -5 8 -10 0
-11 -4 -13 -72 -1 -20 -4 -35 -8 -33 -4 2 -7 -2 -7 -10 0 -10 4 -12 12 -5 7 5
14 8 16 5 3 -2 5 4 5 15 0 10 -4 16 -8 14 -4 -3 -8 0 -8 5 0 13 10 14 30 1 8
-5 10 -10 4 -10 -6 0 -11 -16 -11 -35 0 -21 4 -32 11 -28 6 3 5 0 -1 -8 -19
-20 -16 -33 5 -18 15 12 16 12 5 -2 -8 -10 -9 -19 -3 -25 6 -6 3 -10 -9 -10
-11 0 -18 4 -15 7 2 4 0 10 -6 14 -6 4 -7 12 -3 18 10 17 11 47 1 47 -5 0 -8
-8 -6 -17 1 -10 -1 -23 -5 -30 -4 -6 -3 -14 2 -18 6 -3 7 -13 4 -22 -5 -13 -2
-15 11 -10 11 4 19 1 23 -9 5 -13 8 -13 15 -2 8 10 9 10 5 -2 -2 -8 -9 -16
-15 -16 -26 -3 -26 -5 3 -19 22 -11 24 -13 6 -9 -17 5 -21 3 -16 -7 6 -9 3
-11 -11 -6 -18 7 -18 7 0 -8 11 -8 25 -15 30 -15 6 0 4 5 -4 11 -13 9 -13 10
0 6 8 -2 14 -10 12 -16 -1 -6 2 -11 6 -11 5 0 9 -15 9 -32 0 -18 3 -42 7 -53
7 -19 7 -19 -8 -1 -14 18 -15 18 -13 -2 0 -11 4 -19 8 -16 4 2 10 0 14 -6 3
-5 1 -10 -4 -10 -6 0 -11 -5 -11 -11 0 -8 4 -8 13 -2 6 6 19 13 28 16 13 4 16
1 12 -14 -3 -11 0 -19 6 -19 7 0 9 4 6 10 -4 6 1 7 11 3 11 -4 13 -8 6 -11 -7
-2 -10 -8 -7 -12 3 -5 -6 -7 -19 -4 -17 3 -24 0 -22 -11 1 -8 6 -18 11 -22 4
-5 5 -2 0 6 -6 11 -4 13 8 8 9 -3 23 1 32 9 20 20 19 5 -1 -17 -15 -16 -14
-17 5 -12 12 3 21 9 21 14 0 5 4 9 9 9 5 0 8 -8 7 -17 -2 -10 -11 -18 -21 -18
-10 0 -19 -6 -21 -13 -1 -7 0 -8 3 -2 2 5 9 10 14 10 6 0 7 -5 3 -11 -4 -8 1
-7 17 1 21 9 20 8 -5 -13 -21 -19 -25 -26 -15 -32 8 -5 11 -5 7 0 -9 9 30 40
39 31 3 -3 14 -1 24 5 11 5 19 6 18 2 -3 -20 2 -34 11 -28 6 4 10 3 9 -2 -3
-20 2 -27 11 -13 7 11 9 9 8 -10 -1 -14 -6 -31 -12 -39 -9 -12 -8 -12 11 -1
11 8 19 19 16 26 -6 16 14 27 23 13 5 -8 3 -9 -6 -4 -10 6 -12 4 -7 -8 3 -9
-1 -24 -11 -34 -16 -16 -16 -16 2 -10 24 10 61 -20 46 -38 -7 -8 -5 -12 4 -12
15 0 16 14 3 35 -5 6 -5 12 0 12 14 0 35 -17 31 -25 -3 -8 7 -12 47 -17 11 -2
23 -10 27 -18 5 -12 7 -12 7 3 1 9 5 17 10 17 5 0 7 -8 4 -19 -3 -10 0 -22 5
-25 6 -4 8 2 5 14 -3 12 0 20 6 20 7 0 9 -5 5 -11 -3 -6 5 -4 18 5 21 13 27
14 43 2 14 -10 15 -15 5 -21 -9 -6 -11 -4 -5 5 5 8 4 11 -3 6 -5 -3 -12 -1
-14 5 -2 6 -11 2 -21 -9 -14 -15 -14 -19 -2 -19 8 0 11 5 8 10 -3 5 0 7 8 5 8
-3 13 -12 11 -21 -1 -8 2 -18 8 -22 5 -3 7 0 4 9 -3 8 3 19 15 25 28 15 31 14
28 -11 -1 -14 3 -22 11 -20 6 1 12 -2 12 -8 0 -5 5 -10 11 -10 8 0 8 5 -1 15
-7 8 -11 15 -9 16 31 6 39 6 39 -2 0 -5 -5 -9 -11 -9 -5 0 -7 -5 -4 -10 5 -8
12 -7 23 2 12 10 14 10 8 1 -4 -7 -2 -13 3 -13 6 0 11 -5 11 -11 0 -8 -5 -8
-15 1 -10 9 -15 9 -15 1 0 -6 5 -11 11 -11 5 0 7 -6 4 -12 -4 -7 2 -3 12 8 18
20 20 20 30 5 12 -19 6 -44 -9 -35 -7 4 -6 9 2 14 7 4 8 10 3 13 -6 4 -15 -4
-21 -17 -9 -20 -7 -22 12 -21 32 3 39 -5 19 -21 -13 -11 -14 -14 -3 -12 8 2
18 7 21 12 4 5 10 -1 14 -12 6 -22 43 -27 56 -9 3 5 9 2 12 -6 4 -11 0 -15
-13 -12 -11 2 -23 -1 -26 -7 -5 -7 -2 -8 6 -3 10 6 12 4 7 -9 -4 -9 -3 -14 2
-11 5 3 12 1 16 -5 3 -5 0 -10 -7 -10 -7 0 -2 -7 10 -16 13 -9 29 -13 36 -11
9 4 12 0 9 -12 -3 -12 -13 -17 -29 -15 -13 1 -22 -2 -19 -6 3 -5 13 -6 22 -3
12 5 14 3 8 -8 -6 -11 -5 -12 6 -1 18 17 34 15 19 -3 -15 -18 1 -20 18 -3 9 9
9 5 0 -14 -12 -25 -14 -26 -33 -10 -12 10 -10 6 5 -11 21 -24 22 -30 10 -38
-12 -9 -12 -10 3 -5 9 3 17 1 17 -4 0 -5 8 -7 18 -4 13 4 14 3 4 -4 -8 -5 -14
-13 -14 -17 0 -4 6 -12 14 -17 9 -7 6 -8 -10 -5 -15 4 -22 1 -19 -6 2 -7 15
-12 29 -12 13 1 25 -4 25 -11 0 -7 -6 -10 -14 -7 -9 4 -11 0 -7 -11 3 -9 10
-13 15 -10 5 3 8 0 7 -8 -2 -7 2 -12 9 -11 7 2 10 -6 7 -21 -3 -20 0 -23 21
-23 14 0 25 4 25 9 0 5 4 7 9 3 5 -3 16 1 24 9 8 8 18 12 22 8 4 -4 5 0 3 8
-2 8 3 15 10 16 6 1 16 2 21 3 6 0 9 10 8 20 0 11 -5 17 -9 15 -5 -3 -5 -11
-2 -17 5 -9 3 -8 -6 0 -11 10 -9 16 13 33 15 12 26 26 24 33 -2 10 2 12 34 16
6 0 8 8 5 18 -4 10 -4 14 0 11 9 -9 33 15 26 26 -3 5 1 5 9 0 23 -14 41 -14
55 1 16 16 19 29 4 20 -14 -9 -12 8 3 24 10 11 8 12 -10 6 -15 -4 -23 -2 -23
6 0 7 3 9 6 6 4 -3 15 -2 26 4 16 9 17 13 6 27 -11 15 -11 16 4 4 11 -9 18
-10 23 -2 8 13 35 13 35 -1 0 -5 -4 -8 -9 -5 -4 3 -19 -3 -31 -14 -15 -13 -18
-20 -9 -20 10 0 11 -2 2 -8 -8 -5 -9 -13 -3 -22 8 -13 10 -12 10 3 0 15 11 22
33 18 5 -1 6 3 2 8 -3 6 -13 7 -23 4 -15 -6 -15 -5 -4 10 8 9 17 16 20 15 25
-3 34 3 23 15 -6 8 -8 17 -4 21 4 4 0 4 -9 1 -9 -4 -19 -1 -24 6 -5 8 -3 10 5
5 7 -5 19 0 27 10 9 11 12 13 9 6 -6 -10 0 -10 23 2 16 8 33 12 37 8 5 -4 5
-1 1 6 -5 9 -12 9 -27 2 -13 -7 -19 -7 -19 0 0 12 -22 9 -33 -5 -5 -6 -7 -4
-4 5 2 8 15 15 29 15 15 0 30 4 35 9 4 5 3 6 -3 3 -7 -4 -15 0 -18 9 -3 8 -11
12 -17 8 -8 -4 -9 -3 -5 5 6 9 11 9 22 0 8 -6 21 -8 31 -4 10 5 25 8 33 7 10
-1 11 0 3 4 -18 8 -16 24 3 24 11 0 14 6 9 21 -5 15 -4 19 4 15 6 -4 10 -2 9
5 -2 6 3 14 11 17 8 2 11 0 8 -5 -3 -5 0 -10 8 -10 13 0 13 3 0 17 -8 9 -12
20 -8 25 5 4 1 5 -7 0 -8 -5 -12 -5 -8 0 4 4 0 14 -10 22 -16 12 -16 13 1 7
14 -5 16 -2 10 12 -6 16 -5 17 9 4 9 -8 12 -17 8 -20 -4 -3 2 -14 13 -25 20
-20 20 -20 8 3 -12 23 -3 30 15 12 7 -7 11 -6 11 5 0 8 -2 13 -5 10 -3 -2 -13
0 -24 6 -11 6 -17 13 -14 16 3 4 0 13 -6 21 -10 11 -9 16 5 24 10 5 15 13 12
19 -4 5 1 12 9 15 9 3 13 11 9 18 -4 6 1 4 12 -4 16 -14 17 -13 11 8 -5 14 -3
22 4 22 6 0 9 4 6 8 -3 5 1 9 9 9 8 0 15 -4 15 -9 0 -4 -5 -8 -11 -8 -5 0 -7
-5 -3 -12 5 -7 3 -8 -5 -3 -10 6 -11 3 -1 -16 16 -31 25 -39 17 -16 -8 21 19
80 33 72 10 -6 8 14 -3 32 -4 6 -3 14 2 17 5 4 11 3 14 -1 2 -5 2 -3 1 4 -2 6
2 14 9 17 9 3 8 5 -1 5 -7 1 -10 6 -6 13 4 7 3 8 -4 4 -19 -11 -14 5 6 21 15
13 15 13 -8 8 -19 -5 -21 -4 -10 4 13 9 13 14 2 33 -12 19 -9 18 12 -4 31 -32
32 -33 34 -15 7 55 9 62 22 59 11 -3 11 0 1 12 -7 8 -10 20 -6 26 4 6 2 17 -4
24 -9 11 -8 14 6 12 10 0 21 -5 25 -11 4 -5 10 -6 15 -2 9 9 -17 28 -29 21 -4
-3 -8 0 -8 6 0 6 -4 9 -8 6 -4 -2 -8 4 -8 15 0 19 1 19 13 3 7 -10 13 -12 13
-6 0 18 34 49 51 45 8 -3 6 1 -4 7 -9 6 -15 16 -11 21 4 7 10 6 18 0 9 -8 13
-7 13 4 0 8 -4 12 -8 9 -4 -2 -10 0 -14 5 -3 6 -12 8 -19 5 -8 -3 -17 -1 -21
5 -4 7 1 8 12 4 16 -6 17 -5 3 12 -15 18 -14 18 13 0 15 -10 30 -15 34 -11 3
3 2 6 -3 6 -6 0 -10 11 -10 24 0 15 5 22 13 19 7 -3 13 0 13 7 0 6 -5 8 -10 5
-6 -3 -13 1 -16 9 -3 9 -11 13 -18 9 -6 -3 -2 4 9 17 17 20 17 22 3 17 -10 -3
-20 -3 -22 2 -3 4 1 8 9 9 8 1 22 3 30 4 13 1 12 4 -2 21 -10 11 -12 17 -5 13
10 -6 13 -3 10 10 -2 11 -10 18 -17 16 -7 -1 -10 2 -6 8 5 8 12 7 23 -2 10 -7
19 -14 21 -15 2 -1 -2 -11 -10 -20 -12 -16 -12 -17 2 -6 9 7 19 9 24 5 4 -4 2
3 -4 16 -10 20 -9 23 11 32 18 7 19 9 5 9 -10 1 -15 6 -12 11 4 6 10 8 14 6 4
-3 8 1 8 8 0 15 -26 10 -28 -5 -1 -5 -2 -13 -3 -19 0 -5 -4 -10 -8 -10 -5 0
-11 0 -15 0 -4 0 -1 6 5 12 10 10 8 16 -10 31 -22 18 -22 18 -1 8 30 -15 38
-14 24 3 -9 10 -9 16 -1 21 6 4 9 13 6 20 -2 7 0 17 5 22 16 16 19 53 5 47 -7
-3 -13 1 -13 9 0 9 7 12 19 9 20 -5 35 -22 20 -22 -5 0 -9 -6 -9 -14 0 -8 5
-12 12 -10 14 6 17 44 2 44 -6 0 -2 7 9 15 12 9 13 13 4 10 -11 -4 -16 1 -17
16 -2 18 0 19 15 8 14 -11 15 -11 5 1 -15 17 -17 34 -3 25 6 -4 7 1 3 12 -6
15 -4 16 9 5 11 -9 18 -10 23 -2 4 6 1 9 -7 8 -8 -2 -12 5 -11 17 1 10 -8 27
-19 36 -16 14 -17 22 -9 38 6 11 21 23 32 26 17 6 19 9 8 16 -8 5 -18 9 -24 9
-5 0 -3 -5 5 -10 8 -5 11 -10 5 -10 -5 0 -17 5 -25 10 -13 9 -13 10 0 10 13 0
13 1 0 10 -8 5 -10 10 -5 10 6 0 11 9 12 20 1 11 -2 18 -7 15 -4 -3 -7 3 -5
12 2 10 4 21 4 26 1 11 31 8 31 -4 0 -5 -4 -8 -9 -4 -5 3 -13 0 -17 -6 -4 -7
-3 -9 3 -6 7 4 10 -6 8 -28 -1 -19 2 -35 7 -35 4 0 9 6 9 13 1 14 5 30 8 37
10 22 6 40 -10 45 -10 4 -19 11 -19 16 0 6 4 8 8 5 4 -2 14 0 22 6 12 8 12 9
-3 4 -13 -4 -17 -1 -15 12 2 11 -3 16 -14 14 -10 -2 -18 1 -18 6 0 13 23 39
40 45 8 3 3 6 -12 6 -16 1 -28 5 -28 9 0 5 -10 14 -22 21 -18 9 -18 10 -3 5
11 -3 25 -7 32 -7 7 0 10 -4 8 -8 -3 -4 4 -5 15 -2 11 3 23 10 27 16 4 6 1 7
-6 3 -15 -10 -68 11 -75 30 -4 11 -1 11 18 -1 21 -14 24 -14 29 -1 4 10 1 13
-7 10 -22 -9 -47 48 -27 61 5 3 8 -6 7 -20 -2 -14 1 -22 7 -18 6 3 7 1 3 -5
-4 -7 -5 -12 -2 -12 3 0 10 9 16 20 8 15 8 20 -2 18 -6 -2 -13 4 -13 12 0 8
-6 14 -13 13 -7 -2 -12 4 -12 13 0 8 5 12 10 9 6 -3 10 -1 10 4 0 6 -9 11 -21
11 -11 0 -17 5 -14 10 4 6 11 8 16 5 5 -3 6 2 2 11 -6 15 -8 15 -25 -6 -10
-12 -18 -19 -18 -15 0 10 41 60 47 57 2 -2 8 -1 11 3 4 4 0 5 -8 3 -10 -2 -14
3 -12 15 2 9 -2 17 -7 17 -15 0 -23 -18 -11 -25 16 -10 1 -25 -17 -18 -12 5
-14 3 -8 -7 6 -9 4 -11 -5 -5 -10 6 -10 10 2 19 14 10 14 15 3 36 -15 28 -11
42 9 34 8 -3 17 0 21 5 3 6 11 8 17 5 7 -5 8 -2 4 5 -5 7 -11 10 -14 7 -10
-10 -41 25 -35 40 3 8 0 15 -6 15 -21 3 -26 4 -40 13 -11 7 -13 5 -8 -8 4 -9
3 -15 -2 -12 -5 3 -11 14 -13 24 -4 12 1 18 13 18 10 0 15 -5 12 -10 -4 -5 -1
-6 7 -1 9 6 11 4 5 -5 -5 -9 -4 -11 4 -6 6 4 8 13 4 19 -4 7 -8 18 -9 25 -2 8
-9 21 -17 30 -8 10 -12 23 -10 30 6 15 -13 16 -23 0 -4 -6 -3 -8 3 -5 5 3 10
0 10 -8 0 -8 -5 -11 -10 -8 -6 3 -7 1 -3 -6 4 -6 12 -9 17 -6 5 4 9 1 9 -4 0
-14 -30 -14 -31 -1 -1 6 -2 16 -3 23 -1 6 -7 11 -13 10 -6 -1 -10 6 -10 15 0
48 -3 57 -13 42 -6 -9 -10 -10 -10 -3 0 19 17 24 30 8 7 -8 9 -15 5 -15 -4 0
-2 -6 4 -13 6 -8 8 -18 4 -23 -4 -5 -1 -3 7 4 12 10 12 14 2 21 -8 5 -13 12
-11 16 1 4 -7 19 -17 33 -10 14 -19 30 -19 36 -1 18 -19 12 -22 -7 -2 -10 1
-16 6 -12 17 10 20 -10 4 -30 -12 -16 -14 -16 -10 -3 3 10 2 20 -4 24 -6 3 -8
12 -5 19 2 7 -1 18 -7 25 -9 10 -9 11 1 6 6 -4 12 -2 12 4 0 12 -37 9 -59 -4
-11 -7 -10 -3 2 15 21 29 21 39 1 39 -9 0 -25 10 -36 23 -16 17 -18 18 -14 4
4 -11 2 -16 -5 -12 -6 4 -8 13 -5 20 2 7 -1 18 -7 24 -8 8 -8 14 2 24 10 10
11 8 6 -8 -6 -16 -5 -17 4 -5 7 10 11 11 11 3 0 -24 2 -28 17 -45 9 -10 19
-15 24 -13 4 3 10 1 14 -5 8 -13 25 -13 25 0 0 6 -5 9 -12 8 -7 -2 -12 2 -13
9 0 6 -4 15 -9 20 -5 4 -6 3 -2 -4 3 -6 2 -14 -2 -17 -5 -3 -17 12 -27 34 -20
45 -19 44 -45 30 -15 -8 -24 -4 -46 19 -15 17 -31 28 -35 25 -5 -2 -13 6 -19
18 -10 21 -10 21 3 5 13 -16 15 -16 21 -2 3 9 2 14 -2 12 -10 -7 -32 19 -24
29 4 4 1 4 -6 0 -7 -4 -10 -12 -7 -17 4 -5 1 -9 -5 -9 -6 0 -8 -5 -4 -12 4 -7
3 -8 -4 -4 -6 4 -9 12 -6 20 3 7 -2 13 -10 13 -8 0 -12 -6 -9 -14 3 -7 0 -13
-6 -13 -6 0 -10 3 -10 8 3 19 -2 23 -16 12 -13 -11 -14 -10 -9 4 5 12 0 16
-17 16 -19 0 -21 -2 -9 -10 12 -8 11 -9 -5 -7 -11 2 -28 8 -39 12 -11 5 -27 3
-39 -4 -17 -11 -19 -11 -13 4 3 9 6 19 6 21 0 3 4 3 8 0 4 -2 13 4 20 15 16
25 10 24 -22 -6z m-21 -75 c-3 -5 -12 -10 -18 -10 -7 0 -6 4 3 10 19 12 23 12
15 0z m306 -87 c13 -17 13 -17 -6 -3 -11 8 -22 16 -24 17 -2 2 0 3 6 3 6 0 17
-8 24 -17z m-511 -49 c0 -8 -19 -13 -24 -6 -3 5 1 9 9 9 8 0 15 -2 15 -3z
m-180 -244 c0 -5 -2 -10 -4 -10 -3 0 -8 5 -11 10 -3 6 -1 10 4 10 6 0 11 -4
11 -10z m955 -20 c3 -5 -1 -10 -10 -10 -9 0 -13 5 -10 10 3 6 8 10 10 10 2 0
7 -4 10 -10z m30 -80 c-3 -5 5 -18 17 -29 12 -12 18 -21 12 -21 -12 1 -50 30
-38 30 5 0 3 4 -5 9 -7 5 -10 14 -7 20 4 6 12 9 17 5 5 -3 7 -9 4 -14z m-992
-90 c3 -11 1 -18 -4 -14 -5 3 -9 12 -9 20 0 20 7 17 13 -6z m991 -8 c3 -5 -1
-9 -9 -9 -8 0 -12 4 -9 9 3 4 7 8 9 8 2 0 6 -4 9 -8z m-997 -27 c8 -8 19 -12
25 -9 7 4 8 2 4 -4 -8 -13 -56 4 -56 20 0 12 10 10 27 -7z m1034 -132 c13 -16
12 -17 -3 -4 -10 7 -18 15 -18 17 0 8 8 3 21 -13z m64 -183 c-3 -5 -12 -10
-18 -10 -7 0 -6 4 3 10 19 12 23 12 15 0z m-18 -26 c-3 -3 -12 -4 -19 -1 -8 3
-5 6 6 6 11 1 17 -2 13 -5z m-932 -24 c-3 -5 -12 -10 -18 -10 -7 0 -6 4 3 10
19 12 23 12 15 0z m22 -55 c0 -8 -4 -12 -9 -9 -5 3 -6 10 -3 15 9 13 12 11 12
-6z m906 -82 c-3 -7 -6 -13 -8 -13 -2 0 -5 6 -8 13 -3 8 1 14 8 14 7 0 11 -6
8 -14z m-893 -47 c0 -3 -4 -8 -10 -11 -5 -3 -10 -1 -10 4 0 6 5 11 10 11 6 0
10 -2 10 -4z m905 -56 c-9 -17 -21 -30 -28 -29 -9 0 -9 2 1 6 6 2 10 9 6 14
-3 5 0 9 5 9 6 0 11 5 11 11 0 5 -4 8 -9 4 -5 -3 -12 -1 -16 5 -4 6 -11 7 -17
4 -7 -4 -8 -2 -4 5 6 9 11 9 24 -1 13 -11 15 -10 9 5 -6 15 -4 16 13 7 19 -10
19 -13 5 -40z m-935 31 c0 -5 -7 -12 -16 -15 -14 -5 -15 -4 -4 9 14 17 20 19
20 6z m902 -80 c-11 -6 -10 -11 3 -25 9 -9 12 -16 6 -16 -13 0 -32 35 -24 44
3 3 11 6 17 6 6 0 5 -4 -2 -9z m-907 -69 c-12 -8 -17 -27 -17 -62 -1 -14 -3
-19 -5 -12 -3 6 -8 10 -12 8 -11 -7 -6 35 5 42 5 4 9 14 9 22 -2 24 6 33 19
20 7 -7 7 -13 1 -18z m887 -19 c-6 -2 -9 -10 -6 -15 4 -7 2 -8 -5 -4 -13 9 -5
26 12 25 9 0 8 -2 -1 -6z m-862 -7 c0 -2 -7 -7 -16 -10 -8 -3 -12 -2 -9 4 6
10 25 14 25 6z m-50 -67 c11 -8 9 -9 -10 -3 -23 6 -24 6 -10 -11 9 -11 10 -16
3 -11 -8 4 -17 -2 -25 -19 -8 -18 -14 -22 -20 -13 -5 9 -8 7 -9 -7 -1 -11 -1
-24 1 -30 1 -5 -4 -5 -10 1 -14 14 -1 44 33 82 23 25 26 26 47 11z m-15 -48
c3 -5 2 -12 -3 -15 -5 -3 -9 1 -9 9 0 17 3 19 12 6z m-775 -91 c0 -5 -5 -10
-11 -10 -5 0 -7 5 -4 10 3 6 8 10 11 10 2 0 4 -4 4 -10z m40 4 c0 -8 -19 -13
-24 -6 -3 5 1 9 9 9 8 0 15 -2 15 -3z m615 -3 c3 -6 -5 -15 -17 -21 -21 -10
-21 -10 -6 3 10 8 15 17 11 20 -3 4 -4 7 0 7 3 0 8 -4 12 -9z m-45 -36 c0 -2
-8 -2 -17 -1 -10 0 -17 -5 -15 -12 1 -8 -2 -11 -7 -8 -5 4 -11 2 -13 -4 -2 -6
-9 0 -17 12 -7 13 -10 20 -6 16 11 -10 36 12 29 24 -4 6 5 2 20 -7 14 -10 26
-19 26 -20z m-659 18 c-11 -4 -11 -7 0 -14 7 -4 10 -12 5 -16 -5 -4 -11 -2
-13 5 -3 6 -10 9 -16 5 -7 -4 -6 1 2 10 7 9 19 17 25 16 6 0 5 -3 -3 -6z m356
-50 c-5 -12 -15 -23 -20 -23 -5 0 -4 7 3 15 6 8 9 18 6 23 -3 5 1 9 8 9 11 0
12 -5 3 -24z m-67 3 c0 -2 -8 -10 -17 -17 -16 -13 -17 -12 -4 4 13 16 21 21
21 13z m1405 -16 c-3 -5 -2 -10 3 -10 5 0 9 -7 9 -16 0 -14 -2 -14 -14 2 -16
22 -17 34 -2 34 5 0 7 -4 4 -10z m-1665 -14 c0 -3 -4 -8 -10 -11 -5 -3 -10 -1
-10 4 0 6 5 11 10 11 6 0 10 -2 10 -4z m1665 -66 c-3 -5 -12 -10 -18 -10 -7 0
-6 4 3 10 19 12 23 12 15 0z m-12 -37 c-3 -7 -6 -13 -8 -13 -2 0 -5 6 -8 13
-3 8 1 14 8 14 7 0 11 -6 8 -14z m-28 -3 c3 -5 1 -10 -4 -10 -6 0 -11 5 -11
10 0 6 2 10 4 10 3 0 8 -4 11 -10z m-1601 -38 c3 -5 -1 -9 -9 -9 -8 0 -12 4
-9 9 3 4 7 8 9 8 2 0 6 -4 9 -8z m1576 -62 c0 -5 -4 -10 -10 -10 -5 0 -10 5
-10 10 0 6 5 10 10 10 6 0 10 -4 10 -10z m0 -45 c-6 -7 -10 -17 -9 -21 1 -5 1
-16 0 -24 -1 -13 -3 -13 -10 -1 -6 9 -6 22 0 33 5 10 7 18 4 18 -4 0 -3 5 0
10 4 6 11 8 16 4 6 -4 6 -10 -1 -19z m-1540 -16 c0 -4 -9 -7 -19 -6 -11 0 -18
4 -16 7 6 9 35 8 35 -1z m0 -39 c0 -4 -6 -10 -13 -13 -7 -3 -13 3 -13 13 0 10
6 16 13 13 7 -3 13 -9 13 -13z m1492 -71 c5 -3 2 -12 -7 -19 -11 -9 -12 -16
-5 -25 7 -9 6 -16 -5 -25 -11 -9 -15 -9 -15 -1 0 7 -5 9 -12 5 -7 -4 -8 -3 -4
5 4 6 12 8 18 5 6 -4 9 -1 6 7 -3 8 -10 14 -15 14 -6 0 -14 3 -18 6 -3 4 5 6
17 5 24 -1 27 10 13 49 l-7 20 13 -20 c7 -11 16 -23 21 -26z m-1379 -54 c-7
-21 -12 -19 -10 4 0 11 5 18 9 15 4 -3 5 -11 1 -19z m129 -97 c-17 -17 -15
-33 3 -18 12 10 15 10 15 -1 0 -11 3 -11 11 1 8 12 10 12 7 1 -5 -19 -48 -22
-55 -3 -3 8 0 18 8 23 20 12 25 11 11 -3z m79 -22 c-10 -11 -7 -17 10 -30 27
-19 41 -12 14 7 -15 12 -16 14 -1 14 9 0 16 -4 16 -9 0 -5 5 -6 11 -2 8 5 8 1
0 -14 -8 -15 -18 -19 -38 -16 -16 3 -33 5 -39 6 -17 2 -11 26 12 43 24 18 30
19 15 1z m77 -38 c-2 -7 3 -12 10 -10 8 1 11 -2 7 -7 -6 -11 -35 -4 -35 8 0 8
11 21 17 21 2 0 2 -6 1 -12z m113 -75 c-12 -20 -14 -14 -5 12 4 9 9 14 11 11
3 -2 0 -13 -6 -23z m800 0 c-12 -20 -14 -14 -5 12 4 9 9 14 11 11 3 -2 0 -13
-6 -23z m23 -25 c-9 -9 -13 -22 -9 -30 6 -10 5 -10 -4 -2 -12 11 -5 44 10 44
4 0 6 8 3 18 -5 14 -4 14 5 2 7 -11 6 -19 -5 -32z m-696 -23 c-3 -3 -9 2 -12
12 -6 14 -5 15 5 6 7 -7 10 -15 7 -18z m665 -32 c-3 -7 -9 -13 -14 -13 -5 0
-12 0 -16 0 -11 -1 -12 29 -2 36 5 3 8 2 7 -3 -2 -4 2 -9 7 -10 6 -1 9 6 7 15
-2 14 -1 14 7 3 5 -8 7 -20 4 -28z m-639 -5 c-3 -4 1 -8 8 -8 9 0 9 -3 -2 -10
-10 -6 -11 -10 -2 -10 6 0 12 -8 12 -17 0 -14 -6 -11 -24 12 -26 32 -26 42 -2
42 8 0 13 -4 10 -9z m70 -100 c-5 -8 11 -12 31 -8 16 3 -8 -18 -25 -22 -8 -2
-14 2 -15 7 0 6 -3 15 -7 21 -4 6 -1 11 7 11 8 0 12 -4 9 -9z m61 -68 c3 -6
-1 -7 -9 -4 -18 7 -21 14 -7 14 6 0 13 -4 16 -10z m340 -61 c-3 -4 -13 -5 -22
-2 -11 4 -13 8 -5 11 7 2 9 9 5 15 -4 7 1 6 10 -2 9 -7 14 -17 12 -22z m-311
-11 c-3 -4 -12 -5 -22 -2 -14 5 -14 3 2 -10 16 -13 17 -16 4 -16 -16 0 -31 24
-21 33 8 8 42 4 37 -5z m13 -70 c2 -17 0 -19 -7 -8 -5 8 -6 18 -4 22 8 12 10
10 11 -14z m153 -12 c0 -2 -7 -7 -16 -10 -8 -3 -12 -2 -9 4 6 10 25 14 25 6z
m-25 -43 c10 -16 14 -25 10 -20 -5 4 -21 -5 -37 -20 -15 -15 -28 -23 -28 -19
0 4 -6 4 -12 -1 -22 -13 -37 -12 -31 3 3 8 11 14 18 14 6 0 26 7 43 16 27 13
30 18 22 35 -16 29 -5 23 15 -8z m-71 -5 c-5 -8 -2 -9 10 -5 9 4 15 3 11 -2
-3 -6 -14 -9 -25 -8 -14 1 -16 4 -8 14 13 16 22 17 12 1z"/>
<path d="M3490 2515 c-7 -9 -11 -17 -9 -20 3 -2 10 5 17 15 14 24 10 26 -8 5z"/>
<path d="M3309 2363 c-13 -16 -12 -17 4 -4 16 13 21 21 13 21 -2 0 -10 -8 -17
-17z"/>
<path d="M3080 1736 c0 -3 9 -10 20 -16 11 -6 20 -8 20 -6 0 3 -9 10 -20 16
-11 6 -20 8 -20 6z"/>
<path d="M3935 4049 c-4 -6 -13 -8 -21 -5 -9 3 -11 0 -7 -12 6 -15 4 -15 -9
-4 -14 11 -16 11 -14 -3 3 -20 7 -21 26 -9 17 10 45 44 37 44 -3 0 -9 -5 -12
-11z"/>
<path d="M3483 4038 c-11 -19 -13 -39 -2 -32 5 3 7 9 4 14 -3 5 3 13 12 19 10
6 13 11 6 11 -6 0 -15 -6 -20 -12z"/>
<path d="M3970 4040 c0 -5 5 -10 11 -10 5 0 7 5 4 10 -3 6 -8 10 -11 10 -2 0
-4 -4 -4 -10z"/>
<path d="M3756 4027 c3 -10 9 -15 12 -12 3 3 0 11 -7 18 -10 9 -11 8 -5 -6z"/>
<path d="M3954 4016 c13 -11 24 -12 36 -6 10 5 21 6 25 2 5 -4 5 -1 1 6 -5 8
-13 9 -24 3 -10 -6 -24 -6 -37 0 -19 10 -19 10 -1 -5z"/>
<path d="M3780 3999 c0 -11 4 -18 10 -14 5 3 7 12 3 20 -7 21 -13 19 -13 -6z"/>
<path d="M1366 4002 c-4 -7 -4 -12 1 -13 4 0 16 -2 25 -4 11 -2 15 2 11 12 -4
11 -8 12 -13 3 -6 -9 -9 -9 -12 1 -3 10 -6 10 -12 1z"/>
<path d="M3407 3976 c-4 -10 -1 -13 8 -9 8 3 12 9 9 14 -7 12 -11 11 -17 -5z"/>
<path d="M4095 3930 c19 -20 32 -27 39 -20 14 14 16 40 4 40 -6 0 -8 -7 -5
-15 8 -20 -5 -26 -20 -10 -7 8 -9 15 -5 18 4 2 1 2 -5 1 -7 -2 -13 1 -13 6 0
6 -5 10 -12 10 -6 0 1 -14 17 -30z"/>
<path d="M1275 3941 c-3 -5 -2 -12 3 -15 5 -3 9 1 9 9 0 17 -3 19 -12 6z"/>
<path d="M3639 3948 c-7 -25 -5 -36 10 -34 9 2 15 6 14 9 -2 4 -3 12 -3 17 0
8 -18 15 -21 8z"/>
<path d="M1260 3915 c1 -5 7 -19 15 -29 8 -11 15 -14 15 -8 0 7 0 14 0 17 0 3
-3 5 -6 4 -4 0 -11 5 -15 13 -5 7 -9 9 -9 3z"/>
<path d="M4195 3880 c3 -5 8 -10 11 -10 2 0 4 5 4 10 0 6 -5 10 -11 10 -5 0
-7 -4 -4 -10z"/>
<path d="M3551 3872 c-1 -8 -6 -10 -13 -6 -8 5 -8 1 2 -12 8 -10 15 -20 15
-21 1 -2 12 9 26 23 23 25 23 26 2 15 -16 -8 -23 -8 -26 2 -4 9 -6 9 -6 -1z"/>
<path d="M3496 3858 c3 -5 10 -6 15 -3 13 9 11 12 -6 12 -8 0 -12 -4 -9 -9z"/>
<path d="M1167 3839 c7 -7 15 -10 18 -7 3 3 -2 9 -12 12 -14 6 -15 5 -6 -5z"/>
<path d="M3515 3840 c-3 -5 -4 -10 0 -10 3 0 1 -9 -5 -20 -9 -16 -8 -18 5 -14
9 4 13 9 11 12 -3 3 -1 11 5 18 6 8 6 14 0 18 -5 4 -12 2 -16 -4z"/>
<path d="M3280 3820 c-9 -6 -10 -10 -3 -10 6 0 15 5 18 10 8 12 4 12 -15 0z"/>
<path d="M1155 3800 c-3 -5 -1 -10 4 -10 6 0 11 5 11 10 0 6 -2 10 -4 10 -3 0
-8 -4 -11 -10z"/>
<path d="M3460 3788 c-10 -21 -10 -21 3 -6 8 10 18 14 22 10 5 -4 5 -1 1 6
-10 17 -14 15 -26 -10z"/>
<path d="M4270 3790 c6 -11 15 -20 20 -20 6 0 2 9 -7 20 -10 11 -19 20 -21 20
-1 0 2 -9 8 -20z"/>
<path d="M4237 3793 c-4 -3 -7 -11 -7 -17 0 -6 5 -5 12 2 6 6 9 14 7 17 -3 3
-9 2 -12 -2z"/>
<path d="M3477 3769 c-9 -6 -14 -15 -11 -21 5 -7 1 -9 -9 -5 -9 3 -19 1 -23
-5 -4 -7 -3 -8 4 -4 7 4 12 1 12 -9 0 -10 -5 -13 -12 -9 -7 5 -8 3 -3 -6 8
-13 30 8 56 53 11 20 10 20 -14 6z"/>
<path d="M3230 3740 c-11 -7 -11 -10 -2 -10 8 0 10 -5 6 -12 -4 -7 -3 -9 1 -5
7 6 17 37 12 37 -1 0 -9 -5 -17 -10z"/>
<path d="M4313 3735 c0 -8 4 -12 9 -9 5 3 6 10 3 15 -9 13 -12 11 -12 -6z"/>
<path d="M4335 3700 c3 -5 8 -10 11 -10 2 0 4 5 4 10 0 6 -5 10 -11 10 -5 0
-7 -4 -4 -10z"/>
<path d="M1026 3642 c-3 -5 1 -9 9 -9 8 0 15 4 15 9 0 4 -4 8 -9 8 -6 0 -12
-4 -15 -8z"/>
<path d="M3230 3620 c-9 -6 -10 -10 -3 -10 6 0 15 5 18 10 8 12 4 12 -15 0z"/>
<path d="M4386 3598 c3 -5 10 -6 15 -3 13 9 11 12 -6 12 -8 0 -12 -4 -9 -9z"/>
<path d="M989 3563 c-13 -16 -12 -17 4 -4 9 7 17 15 17 17 0 8 -8 3 -21 -13z"/>
<path d="M3225 3572 c-13 -9 -17 -32 -6 -32 5 0 11 9 14 20 6 22 6 22 -8 12z"/>
<path d="M3335 3561 c-3 -5 -2 -12 3 -15 5 -3 9 1 9 9 0 17 -3 19 -12 6z"/>
<path d="M4415 3540 c3 -5 8 -10 11 -10 2 0 4 5 4 10 0 6 -5 10 -11 10 -5 0
-7 -4 -4 -10z"/>
<path d="M3370 3524 c0 -14 -2 -15 -17 -3 -16 13 -17 12 -4 -3 11 -15 11 -18
0 -18 -9 -1 -8 -4 4 -11 15 -9 16 -13 5 -26 -12 -15 -11 -15 10 -2 21 13 21
15 5 27 -15 10 -12 16 7 14 3 0 6 8 6 19 0 10 -4 19 -8 19 -4 0 -8 -7 -8 -16z"/>
<path d="M975 3489 c-4 -6 -5 -12 -2 -15 2 -3 7 2 10 11 7 17 1 20 -8 4z"/>
<path d="M2263 3478 c0 -13 1 -17 4 -10 3 6 9 10 14 7 5 -4 6 1 3 9 -9 23 -20
19 -21 -6z"/>
<path d="M2296 3486 c7 -19 20 -21 30 -3 4 6 4 9 -1 5 -4 -4 -14 -3 -22 4 -11
8 -12 7 -7 -6z"/>
<path d="M2336 3475 c-3 -8 -1 -15 4 -15 6 0 10 7 10 15 0 8 -2 15 -4 15 -2 0
-6 -7 -10 -15z"/>
<path d="M2363 3469 c-2 -23 3 -25 10 -4 4 8 3 16 -1 19 -4 3 -9 -4 -9 -15z"/>
<path d="M2220 3470 c8 -5 20 -10 25 -10 6 0 3 5 -5 10 -8 5 -19 10 -25 10 -5
0 -3 -5 5 -10z"/>
<path d="M3295 3459 c-3 -4 2 -6 10 -5 21 3 28 13 10 13 -9 0 -18 -4 -20 -8z"/>
<path d="M980 3451 c13 -10 13 -11 0 -12 -8 -1 -18 -1 -21 -1 -3 1 -6 -6 -6
-13 0 -11 4 -12 13 -4 7 6 17 8 23 5 5 -3 8 2 7 11 -2 9 -9 19 -17 21 -11 3
-11 1 1 -7z"/>
<path d="M2290 3457 c0 -2 6 -10 14 -16 11 -9 16 -9 22 1 4 7 4 10 -1 6 -4 -4
-14 -3 -22 3 -7 6 -13 9 -13 6z"/>
<path d="M2150 3439 c0 -5 5 -7 10 -4 6 3 10 8 10 11 0 2 -4 4 -10 4 -5 0 -10
-5 -10 -11z"/>
<path d="M1983 3426 c0 -6 10 -11 23 -11 25 0 23 10 -4 17 -10 3 -19 0 -19 -6z"/>
<path d="M3286 3418 c3 -5 10 -6 15 -3 13 9 11 12 -6 12 -8 0 -12 -4 -9 -9z"/>
<path d="M4425 3408 c8 -21 14 -22 35 -7 13 9 13 10 -1 6 -9 -3 -22 0 -28 6
-9 9 -11 8 -6 -5z"/>
<path d="M1893 3388 c-12 -20 -12 -38 -1 -38 6 0 7 7 4 16 -4 11 -2 15 8 11
10 -4 13 -1 9 9 -6 17 -10 18 -20 2z"/>
<path d="M2590 3391 c0 -7 -5 -9 -12 -5 -7 5 -8 3 -3 -5 5 -9 10 -10 18 -2 6
6 8 14 4 18 -4 3 -7 1 -7 -6z"/>
<path d="M935 3329 c-4 -6 -5 -12 -2 -15 2 -3 7 2 10 11 7 17 1 20 -8 4z"/>
<path d="M3360 3315 c-7 -9 -11 -17 -9 -20 3 -2 10 5 17 15 14 24 10 26 -8 5z"/>
<path d="M4495 3300 c3 -5 8 -10 11 -10 2 0 4 5 4 10 0 6 -5 10 -11 10 -5 0
-7 -4 -4 -10z"/>
<path d="M956 3281 c-4 -6 -1 -11 6 -12 7 0 4 -4 -7 -9 -17 -7 -17 -9 -2 -9 9
-1 17 -6 17 -12 0 -5 -4 -7 -10 -4 -6 3 -7 -1 -4 -10 6 -14 8 -14 19 2 8 11
10 19 4 22 -6 1 -3 12 7 22 10 11 12 19 6 19 -7 0 -12 -6 -12 -12 0 -10 -3 -9
-9 1 -6 9 -11 10 -15 2z"/>
<path d="M1776 3262 c-3 -4 4 -9 15 -9 23 -2 25 3 4 10 -8 4 -16 3 -19 -1z"/>
<path d="M4500 3266 c0 -2 8 -10 18 -17 15 -13 16 -12 3 4 -13 16 -21 21 -21
13z"/>
<path d="M1640 3205 c-7 -8 -9 -15 -5 -15 4 0 2 -7 -5 -15 -7 -9 -10 -18 -7
-21 8 -8 28 6 22 15 -2 5 2 17 10 27 13 17 14 17 15 2 0 -9 4 -20 10 -23 6 -4
7 1 3 11 -5 13 -3 15 8 10 8 -4 5 0 -5 8 -24 20 -30 20 -46 1z"/>
<path d="M1729 3203 c-13 -16 -12 -17 4 -4 16 13 21 21 13 21 -2 0 -10 -8 -17
-17z"/>
<path d="M3404 3199 c-4 -7 -3 -9 4 -5 5 3 13 0 15 -6 4 -9 6 -10 6 -1 1 17
-16 25 -25 12z"/>
<path d="M3322 3164 c10 -10 20 -16 22 -13 3 3 -5 11 -17 18 -21 13 -21 12 -5
-5z"/>
<path d="M4526 3163 c-6 -14 -5 -15 5 -6 7 7 10 15 7 18 -3 3 -9 -2 -12 -12z"/>
<path d="M2240 3155 c-7 -8 -17 -12 -23 -8 -6 3 -7 1 -3 -5 10 -16 -7 -15 -23
1 -11 10 -12 9 -6 -2 6 -11 4 -13 -8 -8 -9 3 -19 2 -21 -2 -3 -5 17 -8 44 -7
27 1 47 0 44 -3 -3 -3 -22 -6 -42 -6 -21 -1 -43 -5 -51 -9 -9 -6 -12 -5 -7 2
3 6 2 13 -3 16 -5 3 -11 -1 -15 -9 -6 -17 -36 -9 -36 10 0 9 -10 13 -27 11
-16 -2 -32 2 -36 8 -4 6 -5 -1 -1 -16 4 -18 2 -28 -6 -28 -6 0 -9 4 -6 9 8 13
-4 42 -14 36 -5 -3 -11 -1 -15 5 -3 5 -11 10 -18 10 -6 0 -3 -6 7 -13 17 -13
17 -14 0 -28 -16 -12 -17 -12 -11 4 3 9 3 17 -1 17 -4 0 -13 -14 -19 -31 -10
-27 -15 -30 -27 -20 -8 7 -20 10 -25 7 -5 -4 -12 -2 -16 4 -3 5 -2 10 3 10 5
0 9 7 9 16 0 11 -6 9 -21 -8 -12 -13 -32 -29 -45 -36 -22 -13 -23 -12 -17 5 6
17 5 17 -7 1 -8 -10 -18 -14 -22 -10 -5 4 -5 1 -1 -5 7 -13 -4 -17 -31 -14 -7
1 -13 -3 -13 -9 0 -6 -5 -8 -10 -5 -6 4 -9 1 -8 -6 2 -6 -3 -14 -11 -17 -9 -3
-11 0 -6 9 5 8 -1 6 -13 -4 -12 -11 -26 -16 -33 -11 -8 5 -10 3 -5 -5 5 -7 15
-10 24 -6 9 3 13 3 9 -1 -4 -4 -2 -13 4 -21 9 -10 5 -10 -16 1 -26 13 -31 13
-53 -4 -19 -16 -28 -17 -46 -9 -16 9 -18 9 -10 0 16 -17 47 -21 57 -7 5 6 6 2
2 -9 -4 -11 -8 -25 -8 -32 0 -7 -4 -10 -8 -7 -5 2 -5 12 -2 22 6 15 5 15 -10
3 -9 -7 -14 -17 -11 -22 3 -5 -3 -6 -12 -2 -11 4 -15 2 -11 -4 4 -6 0 -10 -9
-9 -9 0 -18 -7 -20 -17 -1 -11 -6 -22 -9 -25 -4 -4 -5 2 -3 12 1 10 -3 21 -11
24 -9 3 -11 0 -7 -9 4 -8 -2 -3 -14 11 -13 15 -21 19 -20 10 4 -27 0 -37 -15
-37 -8 0 -15 4 -15 9 0 4 -5 8 -11 8 -8 0 -8 -5 1 -15 16 -19 6 -45 -17 -44
-16 0 -16 1 1 8 19 7 19 8 -2 13 -14 4 -20 2 -15 -5 4 -7 0 -8 -11 -4 -9 4
-15 3 -12 -2 8 -12 -21 -34 -33 -27 -5 4 -13 1 -17 -5 -4 -8 -3 -9 4 -5 7 4
12 4 13 -1 0 -4 2 -21 4 -38 3 -24 2 -26 -6 -13 -8 15 -13 16 -29 6 -10 -7
-16 -16 -14 -20 3 -5 2 -8 -3 -7 -20 3 -32 -2 -35 -16 -2 -13 -5 -12 -15 4
-11 18 -10 20 5 15 13 -5 14 -4 4 4 -8 5 -13 13 -12 18 1 5 -4 10 -12 12 -9 2
-8 0 2 -7 9 -7 10 -11 3 -11 -6 0 -11 -9 -10 -20 1 -11 5 -20 9 -20 4 0 8 -4
8 -8 0 -5 -7 -9 -15 -9 -8 0 -12 4 -9 9 3 4 1 8 -5 8 -6 0 -8 6 -5 14 3 8 1
17 -5 21 -7 4 -8 0 -4 -11 4 -12 3 -15 -6 -10 -8 6 -7 -3 4 -25 9 -19 10 -27
3 -19 -14 16 -53 15 -43 -1 4 -5 1 -9 -5 -9 -6 0 -8 11 -6 25 3 18 1 23 -7 18
-28 -18 -47 -10 -30 13 5 5 0 1 -9 -9 -9 -10 -20 -17 -23 -17 -4 1 -9 0 -11
-2 -2 -3 10 -4 28 -4 22 1 32 -4 34 -16 1 -11 -3 -15 -12 -11 -8 3 -14 9 -14
13 0 10 -26 7 -36 -3 -4 -4 -2 -7 4 -7 7 0 12 -5 12 -11 0 -8 -5 -8 -15 1 -8
7 -12 16 -9 21 3 5 -1 9 -8 9 -7 1 -3 9 11 20 13 11 18 20 13 20 -6 0 -14 -5
-17 -10 -4 -6 -10 -8 -15 -5 -5 3 -7 -7 -4 -22 l4 -28 -14 25 c-8 14 -12 28
-10 32 5 8 -9 11 -38 9 -10 -1 -18 3 -18 9 0 6 5 8 12 4 7 -4 8 -3 4 4 -10 17
-36 3 -28 -16 3 -10 -6 -6 -23 11 -29 26 -62 40 -37 15 7 -7 12 -17 12 -22 0
-6 -7 0 -16 12 -8 12 -23 22 -32 22 -13 0 -12 -5 8 -20 l25 -21 -27 12 c-16 7
-28 15 -28 18 1 17 18 28 40 25 56 -8 99 -10 95 -5 -3 3 -15 6 -27 8 -12 2
-33 13 -45 25 -13 12 -23 18 -23 13 0 -5 -5 -4 -12 3 -7 7 -16 12 -22 12 -5 0
-1 -6 9 -14 11 -8 23 -12 27 -10 5 3 8 1 8 -4 0 -6 -7 -12 -15 -16 -8 -3 -15
-1 -15 3 0 5 -8 12 -17 16 -14 5 -15 3 -7 -5 9 -9 8 -20 -4 -43 l-16 -32 -7
25 c-6 23 -7 23 -8 3 -1 -12 4 -25 9 -28 6 -3 10 -11 10 -17 0 -7 -6 -6 -15 2
-10 9 -15 9 -15 1 0 -6 5 -11 12 -11 6 0 8 -3 5 -7 -4 -3 -1 -13 6 -21 10 -13
9 -14 -13 -3 -21 10 -22 10 -10 -1 8 -7 16 -19 17 -26 4 -16 -14 -16 -19 0 -3
8 -6 7 -10 -4 -5 -11 0 -15 15 -14 12 1 21 7 20 14 -2 7 2 12 7 12 6 0 8 -11
6 -24 -2 -14 -1 -27 2 -29 4 -2 1 -2 -7 0 -9 2 -11 -2 -7 -13 5 -14 4 -15 -9
-4 -13 10 -13 15 -3 21 8 5 5 8 -9 6 -15 -1 -19 -5 -13 -13 6 -6 6 -15 2 -19
-4 -5 -2 -5 5 -1 8 4 11 -1 10 -14 -1 -11 -8 -20 -17 -20 -13 0 -13 -1 0 -10
11 -7 17 -4 24 10 9 21 26 27 26 10 0 -5 -5 -10 -11 -10 -6 0 -8 -7 -5 -16 4
-9 2 -13 -5 -8 -7 4 -9 0 -5 -14 5 -14 0 -25 -16 -36 -15 -11 -17 -16 -8 -16
12 0 12 -2 2 -9 -11 -7 -11 -9 2 -14 9 -4 16 -11 16 -17 0 -6 -4 -9 -8 -6 -5
3 -8 -5 -7 -17 1 -12 -3 -26 -9 -30 -7 -6 -6 -7 3 -5 8 2 15 12 17 22 3 22 23
46 38 46 6 0 4 -5 -4 -10 -13 -9 -7 -14 12 -11 4 0 5 -6 1 -14 -5 -13 -7 -13
-19 2 -12 16 -13 16 -14 -11 0 -22 3 -27 18 -22 15 5 15 4 2 -7 -18 -14 -24
-37 -11 -37 5 0 11 3 14 8 2 4 3 2 1 -4 -1 -6 3 -18 9 -25 10 -10 8 -10 -6 0
-9 8 -18 12 -20 10 -19 -34 -28 -53 -22 -47 4 4 14 1 21 -7 8 -8 20 -13 27
-11 7 1 9 1 4 -1 -4 -3 -4 -10 0 -16 4 -7 -1 -6 -10 2 -15 12 -17 12 -11 -4 5
-11 3 -16 -2 -12 -6 3 -16 1 -24 -5 -13 -8 -12 -9 1 -5 9 3 22 0 29 -6 10 -9
11 -9 5 3 -5 8 -5 12 0 8 4 -4 15 -2 24 5 9 7 7 2 -4 -15 -16 -21 -23 -24 -35
-15 -13 10 -13 10 -2 -5 9 -11 10 -18 2 -23 -5 -3 -10 -11 -10 -16 0 -6 11 2
23 17 18 21 26 24 32 14 5 -9 4 -11 -3 -6 -7 4 -12 2 -12 -3 0 -6 7 -11 15
-11 8 0 15 -5 15 -10 0 -7 -6 -7 -19 0 -13 7 -22 7 -26 0 -3 -5 1 -10 9 -10 9
0 16 -5 16 -11 0 -5 4 -7 10 -4 6 4 7 -1 3 -11 -4 -12 -3 -15 5 -10 8 5 10 1
5 -10 -5 -14 -8 -12 -20 10 -17 33 -19 33 -18 -1 0 -25 3 -28 34 -26 24 1 30
-2 20 -8 -13 -8 -5 -13 14 -10 5 1 6 -3 2 -9 -5 -8 -11 -8 -20 0 -10 8 -14 7
-18 -2 -4 -10 -6 -10 -6 0 -1 6 -6 12 -13 12 -6 0 -8 -3 -5 -7 4 -3 1 -13 -6
-22 -10 -14 -10 -14 5 -3 14 11 18 10 31 -9 9 -12 13 -28 10 -35 -6 -17 13
-19 23 -2 4 7 3 8 -4 4 -18 -11 -14 0 5 15 9 8 14 9 10 3 -7 -12 20 -29 38
-25 6 2 6 -1 2 -6 -5 -4 -14 -8 -20 -8 -7 0 -13 -8 -15 -18 -3 -16 -1 -17 20
-7 22 11 22 11 -2 -10 -18 -16 -20 -20 -7 -16 11 3 16 2 12 -4 -3 -6 -14 -10
-23 -10 -12 0 -10 -4 8 -14 18 -9 29 -10 39 -2 9 6 12 7 9 1 -7 -12 11 -39 32
-48 12 -4 12 -6 -2 -6 -12 -1 -15 -6 -11 -17 5 -13 7 -13 14 -2 6 9 9 9 9 1 0
-22 -19 -24 -30 -3 -6 11 -15 18 -21 15 -5 -4 -9 -1 -9 5 0 6 -5 8 -11 4 -8
-5 -6 -10 5 -16 9 -5 14 -13 11 -18 -3 -5 0 -12 6 -16 8 -5 9 -3 4 6 -5 8 -3
11 6 8 8 -3 12 -12 11 -19 -7 -29 -7 -32 8 -36 12 -4 12 -3 2 5 -11 7 -10 12
3 26 17 16 40 13 29 -5 -3 -5 -10 -6 -16 -3 -6 4 -6 -1 1 -14 8 -16 8 -22 -2
-25 -6 -2 -4 -3 5 -2 20 3 44 -20 29 -29 -5 -3 -12 0 -14 6 -3 8 -6 6 -6 -4
-1 -10 3 -18 8 -18 13 0 32 26 24 33 -3 4 -1 7 6 7 8 0 11 -6 7 -15 -3 -8 -9
-22 -12 -30 -3 -8 -1 -15 5 -15 6 0 10 3 9 8 0 4 2 15 7 25 6 15 10 16 16 5 5
-7 9 -17 9 -23 0 -5 -4 -4 -9 4 -6 9 -11 10 -15 3 -4 -6 3 -16 15 -22 11 -7
18 -14 15 -17 -3 -3 -11 -1 -19 5 -9 8 -17 8 -27 0 -13 -8 -12 -9 2 -5 9 3 22
0 28 -8 6 -8 17 -12 23 -10 7 3 19 1 27 -5 12 -7 11 -13 -10 -36 l-25 -27 25
16 c28 20 40 21 40 6 0 -5 -3 -8 -7 -6 -5 2 -19 -7 -33 -20 l-25 -25 28 17
c20 13 30 15 40 6 8 -6 16 -8 20 -5 3 3 10 -4 16 -15 6 -11 17 -19 24 -17 6 1
9 1 4 -2 -4 -2 4 -13 18 -24 14 -10 29 -17 35 -13 6 3 7 0 4 -9 -3 -9 -11 -16
-17 -16 -6 0 -7 -3 -3 -7 4 -5 13 -8 19 -8 7 0 12 -12 12 -27 -1 -18 5 -28 18
-32 13 -3 15 -1 8 8 -6 7 -6 17 -1 26 7 11 10 11 11 3 2 -15 5 -31 9 -38 1 -3
3 -9 4 -15 0 -5 9 -18 18 -30 11 -12 13 -20 6 -20 -6 0 -8 -3 -5 -6 4 -4 13
-2 20 4 8 7 17 9 20 5 4 -3 7 -1 7 6 0 7 -6 11 -14 8 -8 -3 -20 2 -27 11 -11
14 -11 15 0 5 7 -6 20 -9 27 -6 8 3 17 -2 20 -11 3 -9 10 -14 14 -11 4 3 10
-2 14 -10 3 -8 0 -17 -6 -21 -6 -4 -8 -3 -5 3 11 17 -19 23 -40 8 -10 -8 -13
-15 -8 -15 6 0 16 5 23 12 7 7 12 8 12 2 0 -6 -5 -15 -12 -22 -9 -9 -9 -12 0
-12 7 0 12 4 12 8 0 10 38 13 45 3 2 -5 16 -7 31 -5 14 1 23 0 20 -3 -3 -4 -1
-12 5 -20 9 -10 15 -11 28 -2 9 6 4 0 -11 -14 l-26 -24 24 0 c13 0 21 3 19 8
-3 4 -1 11 5 14 6 4 10 3 9 -2 -3 -13 12 -43 23 -43 5 0 7 4 4 8 -2 4 6 8 19
8 19 0 22 -3 13 -13 -6 -8 -8 -17 -4 -20 4 -4 11 -2 15 6 7 10 9 9 14 -3 4 -9
13 -13 20 -10 8 3 17 -2 20 -10 4 -10 13 -13 24 -9 12 4 10 -1 -7 -15 -14 -12
-23 -22 -20 -23 3 -1 16 -2 30 -3 14 -2 33 -6 43 -11 15 -6 16 -10 5 -17 -8
-5 -4 -7 15 -4 17 3 27 0 27 -7 0 -7 4 -6 10 3 5 8 10 11 10 6 0 -5 7 -3 16 5
13 11 15 9 9 -17 -4 -20 -3 -23 3 -10 5 11 16 20 25 22 10 1 15 -2 11 -7 -3
-5 -9 -7 -14 -4 -10 6 -7 -21 3 -31 3 -4 13 -2 20 5 11 9 17 8 26 -3 7 -8 21
-13 31 -11 12 2 21 -4 26 -17 5 -16 8 -18 15 -7 9 15 -17 42 -32 33 -5 -3 -9
-1 -9 4 0 17 30 22 36 7 4 -8 11 -12 17 -8 6 3 7 1 3 -5 -4 -7 -1 -12 9 -12 9
0 13 4 10 10 -3 6 1 7 9 4 9 -3 16 -10 16 -16 0 -5 -4 -7 -9 -4 -4 3 -17 -1
-27 -10 -18 -14 -18 -15 2 -5 18 9 24 7 36 -10 14 -21 14 -21 14 -1 0 11 -4
18 -8 16 -15 -9 -8 3 9 17 11 10 14 10 9 2 -4 -7 -3 -13 3 -13 5 0 11 5 13 10
2 6 12 3 23 -7 23 -21 61 -31 50 -13 -4 7 1 7 14 -2 12 -7 21 -17 21 -22 0 -4
-7 -3 -15 4 -10 9 -15 9 -15 1 0 -11 13 -15 39 -12 7 2 10 -2 7 -8 -4 -5 4
-15 16 -21 21 -10 22 -10 5 3 -11 9 -14 18 -8 21 5 4 12 2 16 -4 9 -15 23 -12
45 10 12 12 20 15 21 7 0 -6 5 -3 10 8 l9 20 -3 -20 c-2 -11 -9 -19 -16 -17
-7 1 -9 -2 -5 -9 4 -8 3 -9 -4 -5 -8 5 -10 2 -6 -9 6 -14 8 -14 19 1 17 23 49
11 42 -16 -3 -11 -1 -18 4 -14 5 3 9 12 9 20 0 20 18 18 22 -3 3 -15 5 -14 10
3 5 18 2 22 -18 19 -13 -1 -21 2 -18 7 3 5 12 7 19 4 7 -2 18 1 24 7 8 8 9 5
6 -11 -3 -16 0 -19 13 -15 9 3 23 11 31 17 11 8 13 8 8 0 -4 -7 7 -11 33 -11
22 0 37 4 34 8 -2 4 0 11 6 14 6 4 9 1 8 -7 -2 -8 4 -12 16 -10 15 3 16 1 5
-11 -8 -8 -16 -11 -18 -5 -1 5 -12 2 -22 -8 -12 -11 -19 -13 -19 -5 0 7 -4 10
-9 7 -5 -4 -11 -1 -13 6 -3 9 -6 9 -12 0 -4 -7 -2 -12 4 -12 6 0 9 -4 6 -8 -6
-11 25 -9 43 2 8 5 17 3 22 -5 7 -11 9 -11 9 -1 0 7 5 10 12 6 7 -4 8 -3 4 4
-4 7 -1 12 8 12 10 0 13 6 9 18 -3 11 0 9 12 -6 13 -18 20 -21 31 -11 7 6 11
15 8 20 -3 5 6 4 20 -3 29 -12 34 -25 11 -25 -8 0 -12 4 -9 9 3 4 1 8 -5 8 -5
0 -13 -4 -16 -10 -5 -9 1 -12 21 -9 4 0 11 -5 15 -13 7 -10 9 -10 9 0 0 8 5
10 12 6 8 -5 9 -2 5 9 -6 15 3 22 26 18 4 0 7 4 7 11 0 6 2 9 5 6 3 -3 2 -13
-1 -22 -5 -14 -9 -15 -15 -4 -6 9 -9 9 -9 1 0 -6 5 -15 11 -18 12 -8 40 26 32
39 -4 5 0 6 7 1 18 -11 60 -15 60 -6 0 4 7 8 15 8 8 0 12 -4 9 -9 -3 -4 -2
-18 2 -30 6 -21 7 -21 23 8 17 30 59 49 48 21 -3 -9 4 -23 15 -34 14 -11 18
-13 13 -3 -11 17 -16 45 -8 36 4 -3 13 0 22 7 14 10 14 10 4 -3 -8 -11 -9 -20
-1 -30 8 -12 9 -12 4 3 -7 21 22 24 30 2 4 -8 14 -15 23 -14 11 0 12 2 3 6
-10 4 -10 8 0 21 11 13 11 14 -2 7 -8 -4 -12 -5 -8 0 4 4 2 15 -5 23 -9 11 -5
11 15 -2 15 -10 26 -21 23 -25 -2 -4 2 -8 10 -8 11 0 11 5 4 19 -6 11 -8 24
-5 31 2 7 5 3 5 -8 1 -17 3 -17 11 -5 6 10 10 11 10 2 0 -6 3 -11 8 -11 25 4
42 -2 36 -13 -6 -10 -5 -10 7 -1 9 7 25 11 38 8 12 -2 19 0 16 6 -4 5 -12 6
-18 2 -7 -4 -6 0 2 10 7 9 17 14 22 11 5 -3 9 1 9 8 0 7 9 0 20 -17 11 -16 20
-24 20 -17 0 8 5 10 13 6 8 -5 8 -2 -2 9 -11 14 -11 20 -1 32 7 9 19 14 26 11
16 -6 29 10 14 17 -6 3 -5 4 2 3 7 -2 12 -15 11 -30 -1 -16 2 -24 8 -20 6 3 9
19 7 35 -3 17 1 34 8 40 10 8 11 16 3 30 -5 11 -6 25 -2 32 17 28 10 43 -19
38 -5 0 -8 4 -8 10 0 6 9 8 20 4 11 -4 20 -2 20 4 0 6 6 9 13 7 6 -1 9 -1 5 1
-4 2 -4 11 -1 20 6 15 -12 33 -32 33 -5 0 -5 -4 2 -8 9 -6 7 -11 -6 -19 -15
-10 -17 -7 -16 26 1 20 -3 42 -8 49 -5 6 -6 12 -3 12 4 0 1 7 -8 15 -8 9 -12
23 -9 32 5 12 3 14 -7 8 -9 -5 -11 -4 -6 3 5 9 13 9 27 1 12 -6 23 -8 27 -5 3
3 0 6 -8 6 -9 0 -10 3 -1 13 6 8 8 17 4 20 -10 10 -33 8 -33 -3 0 -5 8 -7 18
-3 10 4 14 2 9 -3 -5 -5 -22 -9 -38 -10 -24 -1 -27 1 -16 10 18 14 31 50 15
40 -7 -5 -9 -2 -5 9 4 11 2 14 -9 10 -11 -4 -12 -9 -5 -16 6 -6 11 -14 11 -19
0 -4 -11 4 -25 18 -14 14 -23 29 -21 33 7 11 -29 48 -54 56 -11 3 -20 11 -20
16 0 6 -5 7 -10 4 -6 -4 -9 -1 -8 7 2 7 -2 12 -9 11 -7 -2 -10 4 -6 13 5 13 7
13 14 2 5 -8 9 -9 9 -2 0 20 -24 34 -40 24 -11 -7 -12 -10 -2 -10 7 0 10 -5 7
-10 -4 -6 -14 -1 -25 12 -11 13 -19 18 -20 13 0 -6 6 -17 13 -25 10 -12 9 -12
-5 -1 -9 7 -16 21 -15 31 1 14 4 16 14 8 9 -7 13 -7 13 1 0 6 -4 12 -10 12 -5
1 -14 3 -20 4 -5 1 -13 3 -17 4 -5 1 3 8 17 16 24 13 24 14 3 12 -13 -1 -23
-4 -23 -7 0 -14 -41 -2 -55 16 -12 15 -14 16 -9 2 4 -13 1 -16 -15 -13 -11 2
-23 0 -26 -4 -2 -5 9 -7 25 -6 25 2 28 0 19 -11 -7 -8 -14 -12 -17 -9 -3 3
-12 -1 -20 -8 -11 -8 -14 -8 -9 0 10 16 -5 24 -23 13 -9 -5 -19 -5 -27 2 -9 7
-17 7 -28 -2 -12 -10 -15 -9 -15 4 0 10 4 15 8 12 4 -2 14 -1 21 3 8 5 -2 8
-25 7 -22 0 -42 -5 -46 -11 -5 -6 -12 -4 -19 5 -9 13 -10 12 -5 -2 3 -10 1
-18 -5 -18 -6 0 -7 -5 -3 -11 4 -8 0 -8 -15 0 -25 14 -28 23 -3 15 13 -5 14
-4 3 4 -8 6 -25 8 -38 6 -14 -3 -22 -1 -19 4 2 4 -4 14 -16 21 -11 7 -17 8
-13 2 6 -10 -1 -13 -22 -10 -5 1 -7 5 -6 10 5 15 -15 10 -21 -6 -7 -18 -27
-20 -22 -2 1 6 1 9 -1 5 -3 -5 -12 -8 -21 -8 -13 0 -13 -3 4 -16 18 -14 18
-14 -5 -3 -24 11 -24 12 -6 25 10 8 14 14 9 14 -6 0 -14 -3 -18 -7 -13 -13
-47 -10 -42 3 3 8 -4 18 -14 24 -17 9 -22 7 -32 -15 -6 -14 -16 -25 -21 -25
-6 0 -6 5 0 13 6 6 13 21 16 32 6 17 4 17 -13 -4 -23 -27 -27 -16 -5 15 13 20
13 21 -21 19 -19 -1 -38 3 -41 8 -3 6 -1 7 5 3 6 -3 14 -1 18 5 4 7 3 9 -3 6
-11 -7 -37 16 -28 24 2 3 -6 5 -20 5 -13 0 -22 -3 -20 -6 2 -3 -1 -12 -6 -20
-8 -12 -9 -11 -7 5 2 12 -2 19 -9 18 -7 -2 -13 2 -13 8 0 6 6 9 14 6 9 -4 13
0 11 11 -1 11 -10 16 -25 14 -19 -2 -21 0 -10 13 7 9 11 16 9 18 -2 1 -19 16
-38 32 -19 17 -31 24 -27 18 5 -9 2 -11 -8 -7 -19 7 -20 14 -5 34 9 13 10 12
5 -2 -3 -12 -1 -15 10 -11 13 5 13 8 -1 23 -8 9 -12 20 -9 23 4 4 13 -1 21
-11 13 -15 13 -15 3 5 -5 12 -15 25 -20 28 -6 3 -10 11 -10 16 0 6 5 7 12 3 7
-5 8 -3 3 5 -5 9 -10 10 -18 2 -7 -7 -6 -15 2 -25 8 -10 9 -16 1 -21 -6 -3 -8
-10 -6 -14 3 -4 1 -13 -3 -20 -6 -9 -11 -10 -15 -2 -4 6 -2 11 4 11 6 0 8 5 5
10 -4 6 -10 8 -14 6 -4 -3 -8 1 -8 9 0 11 4 12 14 4 15 -13 17 -1 3 21 -6 10
-4 20 6 31 10 12 12 19 4 24 -5 3 -7 12 -3 18 7 11 9 20 12 68 0 11 4 18 9 15
4 -2 8 9 8 25 2 30 -9 38 -22 17 -4 -6 -3 -8 4 -4 6 3 9 -1 8 -11 -2 -9 -8
-19 -13 -20 -6 -2 -9 -13 -6 -23 3 -11 3 -20 0 -20 -10 0 -37 31 -37 43 0 6 6
2 14 -9 10 -13 14 -14 13 -4 -2 8 -6 21 -10 28 -9 14 0 35 13 27 4 -3 10 4 13
15 3 10 0 21 -7 24 -7 3 -7 5 2 5 7 1 10 6 7 11 -3 6 -1 10 6 10 7 0 10 3 7 6
-3 3 12 23 33 45 21 22 39 44 39 50 0 6 5 7 10 4 6 -3 10 -1 10 4 0 10 -14 15
-33 12 -5 -1 -6 3 -2 9 4 7 12 7 26 0 16 -9 21 -7 29 12 5 13 9 17 9 9 1 -7 7
-11 15 -8 7 3 19 1 25 -4 8 -6 8 -5 1 3 -14 17 -12 28 6 28 9 0 12 -5 8 -12
-4 -7 -3 -8 4 -4 16 9 3 36 -14 29 -8 -3 -14 0 -14 6 0 6 5 10 12 9 6 -2 17 7
23 20 10 19 14 20 18 8 4 -9 1 -16 -6 -16 -8 0 -7 -4 3 -11 13 -9 12 -10 -3
-5 -10 3 -15 2 -12 -3 3 -6 14 -9 25 -8 10 1 17 4 15 8 -7 11 29 37 47 34 10
-2 17 0 17 3 -3 21 2 32 13 26 7 -4 8 -3 4 5 -4 6 -13 8 -19 5 -7 -4 -9 -4 -5
1 4 4 2 15 -5 23 -8 11 -3 10 17 -3 28 -19 29 -19 47 4 11 13 19 20 19 16 0
-3 7 0 15 9 16 16 20 31 6 22 -5 -3 -11 3 -14 14 -4 17 -2 18 15 9 13 -7 18
-7 14 -1 -3 6 0 12 6 15 10 3 10 7 1 19 -7 8 -9 19 -5 23 4 5 1 5 -6 1 -10 -6
-10 -11 -2 -21 7 -8 7 -16 2 -19 -6 -3 -15 1 -21 8 -8 9 -8 16 -2 20 6 4 8 14
5 24 -5 14 -4 15 5 2 6 -8 11 -10 11 -5 0 6 9 -1 20 -15 l21 -25 -12 27 c-7
15 -20 30 -30 33 -17 6 -36 37 -20 32 5 -1 9 3 10 8 1 6 -4 10 -11 10 -6 0
-13 7 -15 15 -4 13 -3 13 6 0 6 -8 11 -10 12 -5 1 6 2 15 4 20 1 6 3 16 3 23
1 7 7 10 12 7 6 -4 7 -12 3 -18 -12 -19 -12 -36 -1 -44 6 -3 8 -1 4 5 -3 6 -2
13 3 16 5 4 12 -2 14 -11 4 -16 5 -16 6 -1 0 9 -4 20 -9 23 -8 5 -7 11 1 21 7
9 8 14 3 13 -21 -4 -28 2 -14 12 13 9 12 10 -2 5 -10 -3 -26 -9 -35 -12 -15
-5 -16 -4 -3 5 11 8 12 11 2 11 -7 0 -10 5 -6 11 5 8 9 8 14 -1 5 -9 9 -9 14
-1 4 6 3 11 -2 11 -5 0 -9 7 -9 15 0 10 8 13 24 11 13 -3 21 -1 18 4 -3 5 -19
7 -36 5 -26 -4 -29 -2 -19 10 7 8 10 20 7 27 -4 9 -6 8 -6 -3 -1 -16 -34 -19
-48 -4 -5 4 -2 5 5 1 6 -4 12 -2 12 4 0 6 5 8 10 5 6 -3 10 -2 10 3 0 6 -7 13
-16 16 -24 9 -31 7 -14 -4 13 -8 13 -10 -2 -10 -9 0 -19 -6 -22 -12 -2 -7 -4
-2 -3 12 2 20 -2 25 -20 24 -15 -1 -20 3 -15 14 4 11 7 12 10 4 2 -7 8 -9 13
-6 6 3 5 12 -3 22 -7 10 0 6 16 -8 20 -17 30 -21 33 -12 3 6 10 9 15 6 7 -4 8
-2 4 5 -6 9 -11 9 -22 0 -8 -7 -14 -7 -14 -1 0 16 -63 42 -76 31 -8 -7 -14 -7
-18 0 -4 5 -2 12 4 16 18 11 10 25 -15 25 -14 0 -25 -5 -25 -12 0 -6 -3 -8 -6
-5 -4 4 -2 13 5 21 9 11 8 15 -5 20 -23 9 -31 7 -14 -4 8 -5 10 -10 4 -10 -6
0 -14 3 -18 8 -12 12 -30 9 -44 -8 -11 -12 -11 -11 -2 9 10 19 9 26 -3 38 -11
12 -16 12 -22 2 -5 -7 -4 -10 3 -5 6 3 14 1 18 -5 4 -7 3 -9 -4 -5 -6 3 -13 2
-17 -4 -3 -5 -12 -10 -18 -10 -7 0 -6 4 3 10 8 5 13 10 10 11 -3 0 -13 2 -22
4 -10 2 -18 0 -18 -4 0 -4 -6 -8 -14 -8 -8 0 -12 6 -9 14 3 7 10 10 16 6 5 -3
7 -1 3 5 -3 6 -2 13 4 17 5 3 10 -2 10 -11 0 -10 3 -15 6 -11 4 3 4 14 0 23
-5 12 -9 14 -20 5 -17 -14 -29 -2 -15 16 6 7 9 13 6 13 -2 0 -10 -7 -17 -15z
m-241 -43 c-12 -19 -49 -27 -49 -11 0 6 4 8 9 4 6 -3 16 1 23 9 18 21 30 20
17 -2z m54 -7 c-7 -21 -12 -19 -10 4 0 11 5 18 9 15 4 -3 5 -11 1 -19z m-161
-20 c3 0 10 -3 14 -7 3 -4 -3 -6 -14 -3 -12 2 -24 0 -27 -5 -3 -5 -13 -6 -22
-3 -12 5 -14 3 -8 -8 4 -8 5 -11 1 -7 -4 3 -21 2 -38 -2 -25 -8 -28 -7 -18 5
7 8 15 13 19 10 4 -2 21 4 37 14 16 10 34 16 39 12 6 -3 13 -6 17 -6z m438
-10 c0 -2 -10 -9 -22 -15 -22 -11 -22 -10 -4 4 21 17 26 19 26 11z m65 -33
c-3 -3 -11 0 -18 7 -9 10 -8 11 6 5 10 -3 15 -9 12 -12z m-615 -20 c2 -2 -8
-1 -24 2 -22 4 -27 2 -22 -10 3 -8 2 -12 -3 -9 -5 3 -12 1 -16 -5 -9 -15 -22
-12 -29 6 -5 14 -4 15 8 5 11 -9 17 -6 30 14 15 23 20 24 34 13 9 -7 19 -14
22 -16z m720 -26 c0 -2 -7 -7 -16 -10 -8 -3 -12 -2 -9 4 6 10 25 14 25 6z
m-863 -12 c-3 -4 -2 -15 3 -25 7 -12 6 -20 -2 -25 -7 -4 -10 -4 -6 1 4 4 3 15
-2 25 -8 16 -4 30 8 30 3 0 2 -3 -1 -6z m948 -94 c-3 -6 1 -13 10 -17 16 -6
16 -7 0 -15 -9 -6 -19 -7 -22 -4 -4 3 0 6 8 6 12 0 12 2 0 9 -12 8 -8 31 5 31
3 0 2 -5 -1 -10z m-1105 -8 c0 -5 -9 -19 -20 -32 -11 -12 -17 -26 -15 -31 3
-4 1 -10 -4 -14 -6 -3 -8 4 -5 17 3 13 6 28 6 35 1 7 5 10 10 7 4 -3 11 2 14
10 7 17 14 21 14 8z m-86 -58 c14 -5 14 -8 0 -21 -8 -9 -18 -12 -22 -9 -3 4 0
11 8 16 9 6 10 10 3 10 -7 0 -17 -8 -22 -17 -6 -10 -11 -13 -11 -7 0 5 5 15
12 22 14 14 12 14 32 6z m-499 -34 c3 -6 -1 -7 -9 -4 -18 7 -21 14 -7 14 6 0
13 -4 16 -10z m475 -14 c0 -3 -4 -8 -10 -11 -5 -3 -10 -1 -10 4 0 6 5 11 10
11 6 0 10 -2 10 -4z m-545 -56 c1 -11 -1 -18 -3 -15 -3 3 -12 -1 -21 -8 -14
-10 -14 -10 -3 4 7 9 12 21 11 25 -1 5 -1 13 0 18 2 16 15 -3 16 -24z m99 -6
c3 -8 2 -12 -4 -9 -6 3 -10 10 -10 16 0 14 7 11 14 -7z m69 2 c4 -11 1 -13
-10 -9 -12 5 -14 3 -8 -8 7 -11 6 -12 -7 -2 -8 7 -19 9 -23 5 -5 -4 -5 -1 -1
6 4 7 11 10 16 7 5 -3 11 -1 15 5 8 13 12 13 18 -4z m-163 -36 c0 -5 -4 -10
-10 -10 -5 0 -10 5 -10 10 0 6 5 10 10 10 6 0 10 -4 10 -10z m174 -6 c3 -8 2
-12 -4 -9 -6 3 -10 10 -10 16 0 14 7 11 14 -7z m1586 -54 c0 -5 -5 -10 -11
-10 -5 0 -7 5 -4 10 3 6 8 10 11 10 2 0 4 -4 4 -10z m5 -30 c-3 -5 -1 -10 6
-10 7 0 10 -3 6 -6 -9 -9 -28 6 -22 17 4 5 8 9 11 9 3 0 2 -4 -1 -10z m-15
-24 c0 -14 -14 -36 -22 -36 -6 0 -4 7 3 16 12 15 11 16 -9 10 -12 -4 -22 -4
-22 1 0 5 11 10 25 11 14 1 25 0 25 -2z m-68 -46 c3 -25 3 -30 -4 -27 -3 1
-17 -8 -30 -20 l-23 -22 -1 27 c-1 15 1 21 3 15 3 -7 9 -13 14 -13 11 0 7 23
-6 32 -6 5 -6 8 2 8 6 0 15 -4 18 -10 3 -5 11 -10 17 -10 7 0 6 6 -2 15 -9 10
-9 15 -1 15 6 0 12 -4 13 -10z m-1682 -16 c0 -8 -19 -13 -24 -6 -3 5 1 9 9 9
8 0 15 -2 15 -3z m1577 -29 c0 -8 -4 -12 -9 -9 -5 3 -6 10 -3 15 9 13 12 11
12 -6z m-1604 -2 c-7 -2 -13 -9 -13 -14 0 -6 6 -7 13 -3 8 5 7 2 -2 -9 -14
-18 -26 -15 -26 6 -1 14 15 27 30 26 6 0 4 -3 -2 -6z m1478 -136 c-10 -9 -11
-8 -5 6 3 10 9 15 12 12 3 -3 0 -11 -7 -18z m-1456 -75 c-6 -7 -34 11 -29 19
3 5 11 3 19 -4 7 -6 12 -13 10 -15z m69 -140 c3 -5 -1 -9 -9 -9 -8 0 -12 4 -9
9 3 4 7 8 9 8 2 0 6 -4 9 -8z m1322 -45 c1 -9 -2 -20 -7 -23 -6 -4 -6 -11 1
-19 15 -18 -1 -26 -23 -10 -14 10 -15 14 -4 18 10 4 13 15 9 33 -3 19 -1 25 8
22 7 -2 14 -12 16 -21z m-42 -13 c3 -8 2 -12 -4 -9 -6 3 -10 10 -10 16 0 14 7
11 14 -7z m-1279 -44 c8 7 18 3 31 -13 19 -22 19 -22 -2 -5 -14 12 -24 14 -31
7 -7 -7 -14 -4 -23 8 -12 15 -12 16 0 6 9 -8 18 -9 25 -3z m1295 -34 c0 -3 -4
-8 -10 -11 -5 -3 -10 -1 -10 4 0 6 5 11 10 11 6 0 10 -2 10 -4z m-1236 -101
c-4 -8 -11 -12 -16 -9 -6 4 -5 10 3 15 19 12 19 11 13 -6z m1331 -35 c14 -15
15 -20 4 -20 -8 0 -20 9 -27 20 -7 11 -8 20 -4 20 5 0 17 -9 27 -20z m-30 -10
c3 -6 -1 -7 -9 -4 -18 7 -21 14 -7 14 6 0 13 -4 16 -10z m22 -42 c-3 -8 -6 -5
-6 6 -1 11 2 17 5 13 3 -3 4 -12 1 -19z m110 -70 c2 -21 -5 -22 -27 -7 -13 9
-12 10 2 5 12 -3 15 -1 11 9 -3 8 -9 12 -14 9 -5 -3 -6 2 -3 10 7 19 29 1 31
-26z m-1347 12 c-10 -6 -11 -10 -2 -10 6 0 12 -5 12 -11 0 -8 -5 -8 -15 1 -16
13 -11 30 8 30 7 0 6 -4 -3 -10z m1394 -41 c-9 -10 -13 -23 -8 -30 5 -8 3 -10
-5 -5 -7 5 -10 15 -7 23 5 11 2 14 -11 9 -17 -6 -17 -5 -1 7 10 8 24 14 33 14
13 0 13 -2 -1 -18z m79 -26 c-7 -3 -9 -12 -6 -21 3 -9 3 -14 -1 -11 -4 4 -8
16 -11 27 -3 16 0 19 13 15 9 -4 11 -8 5 -10z m-1369 -31 c3 -5 -1 -9 -9 -9
-8 0 -12 4 -9 9 3 4 7 8 9 8 2 0 6 -4 9 -8z m1406 -2 c0 -5 -5 -10 -11 -10 -5
0 -7 5 -4 10 3 6 8 10 11 10 2 0 4 -4 4 -10z m121 0 c14 8 19 6 24 -11 5 -15
10 -17 20 -9 9 8 14 7 18 -4 4 -9 1 -18 -5 -22 -7 -4 -8 -3 -4 4 4 7 2 12 -3
12 -6 0 -11 -6 -11 -12 -1 -7 -6 -3 -13 10 -7 12 -16 20 -20 16 -4 -4 -2 -13
4 -20 7 -9 6 -14 -3 -20 -7 -4 -10 -4 -6 1 11 12 -11 35 -28 28 -8 -3 -14 1
-14 8 0 11 -3 11 -10 -1 -5 -8 -10 -10 -10 -4 0 18 23 35 34 24 6 -6 16 -6 27
0z m169 -25 c0 -8 -4 -16 -9 -19 -5 -4 -7 4 -3 16 3 14 2 19 -6 14 -7 -4 -12
-15 -12 -24 0 -14 -2 -15 -9 -3 -7 10 -4 19 7 27 19 14 32 9 32 -11z m210 0
c8 -9 8 -20 2 -31 -6 -11 -11 -13 -16 -5 -4 6 -2 11 3 11 20 0 11 16 -9 17
-11 1 -18 -2 -16 -6 3 -4 -1 -8 -9 -8 -8 0 -15 4 -15 9 0 4 5 8 11 8 5 0 8 4
5 8 -8 14 32 11 44 -3z m-160 -15 c0 -5 -2 -10 -4 -10 -3 0 -8 5 -11 10 -3 6
-1 10 4 10 6 0 11 -4 11 -10z m-100 -14 c0 -3 -4 -8 -10 -11 -5 -3 -10 -1 -10
4 0 6 5 11 10 11 6 0 10 -2 10 -4z m-1583 -32 c-3 -3 -12 -4 -19 -1 -8 3 -5 6
6 6 11 1 17 -2 13 -5z m114 -121 c13 -16 12 -17 -3 -4 -10 7 -18 15 -18 17 0
8 8 3 21 -13z m1948 -46 c0 -9 -2 -8 -6 1 -2 6 -10 9 -15 6 -7 -4 -8 -2 -4 5
9 13 26 5 25 -12z m-1898 -40 c-10 -9 -11 -8 -5 6 3 10 9 15 12 12 3 -3 0 -11
-7 -18z m26 1 c-3 -8 -6 -5 -6 6 -1 11 2 17 5 13 3 -3 4 -12 1 -19z m89 -64
c1 -9 0 -13 -4 -10 -3 4 -7 14 -8 22 -1 9 0 13 4 10 3 -4 7 -14 8 -22z m1824
0 c0 -8 -19 -13 -24 -6 -3 5 1 9 9 9 8 0 15 -2 15 -3z m62 -96 c-6 -6 -15 -8
-19 -4 -4 4 -1 11 7 16 19 12 27 3 12 -12z m-1596 -81 c8 3 14 0 14 -6 0 -6 7
-11 15 -11 8 0 15 -6 15 -12 0 -9 3 -8 10 2 5 8 12 11 16 7 10 -9 1 -17 -25
-22 -13 -2 -24 2 -28 10 -3 8 -9 13 -13 10 -5 -3 -11 -1 -14 4 -4 5 -17 8 -31
7 -13 -2 -22 1 -19 6 3 5 12 7 20 4 8 -3 14 0 15 7 0 9 2 9 5 0 3 -7 12 -9 20
-6z m134 -27 c0 -5 -5 -10 -11 -10 -5 0 -7 5 -4 10 3 6 8 10 11 10 2 0 4 -4 4
-10z m50 -46 c-6 -6 -6 -15 -2 -20 4 -5 -2 -1 -14 8 -15 14 -23 15 -32 6 -6
-6 -14 -9 -18 -6 -3 4 5 12 17 19 17 9 24 9 27 0 2 -6 8 -9 12 -6 5 3 7 13 4
23 -5 14 -4 14 4 2 7 -9 7 -19 2 -26z m220 -30 c0 -8 -19 -13 -24 -6 -3 5 1 9
9 9 8 0 15 -2 15 -3z m1034 -3 c3 -4 -4 -7 -14 -6 -27 2 -33 10 -10 12 11 1
22 -2 24 -6z m49 -8 c-3 -7 -6 -13 -8 -13 -2 0 -5 6 -8 13 -3 8 1 14 8 14 7 0
11 -6 8 -14z m-1038 -3 c3 -6 -1 -7 -9 -4 -18 7 -21 14 -7 14 6 0 13 -4 16
-10z m80 -10 c3 -5 1 -10 -4 -10 -6 0 -11 5 -11 10 0 6 2 10 4 10 3 0 8 -4 11
-10z m465 6 c0 -2 -7 -7 -16 -10 -8 -3 -12 -2 -9 4 6 10 25 14 25 6z m420 -10
c0 -2 -7 -9 -15 -16 -13 -11 -14 -10 -9 4 5 14 24 23 24 12z m-940 -16 c0 -5
-2 -10 -4 -10 -3 0 -8 5 -11 10 -3 6 -1 10 4 10 6 0 11 -4 11 -10z m24 -2 c-5
-8 -1 -9 12 -4 14 5 16 4 7 -5 -6 -6 -16 -8 -22 -5 -14 9 -14 26 0 26 5 0 7
-5 3 -12z m101 2 c3 -5 1 -10 -4 -10 -6 0 -11 5 -11 10 0 6 2 10 4 10 3 0 8
-4 11 -10z m656 -22 c8 -15 8 -18 0 -14 -6 4 -16 16 -22 28 -8 15 -8 18 0 14
6 -4 16 -16 22 -28z m-381 2 c0 -5 -4 -10 -10 -10 -5 0 -10 5 -10 10 0 6 5 10
10 10 6 0 10 -4 10 -10z"/>
<path d="M2108 3149 c-3 -9 -3 -21 2 -28 5 -10 9 -9 14 4 3 9 10 13 16 10 5
-3 10 -1 10 5 0 7 -6 10 -14 7 -8 -3 -16 -1 -19 6 -2 7 -6 5 -9 -4z"/>
<path d="M2315 3151 c-6 -11 13 -26 22 -17 4 3 1 6 -6 6 -7 0 -9 5 -6 10 3 6
4 10 1 10 -3 0 -7 -4 -11 -9z"/>
<path d="M1640 3140 c-9 -6 -10 -10 -3 -10 6 0 15 5 18 10 8 12 4 12 -15 0z"/>
<path d="M1925 3140 c-3 -5 -3 -14 0 -20 3 -5 2 -10 -4 -10 -5 0 -12 6 -14 13
-4 7 -6 8 -6 1 -1 -13 29 -41 30 -28 0 5 2 19 3 32 3 24 0 27 -9 12z"/>
<path d="M1560 3126 c0 -9 5 -16 10 -16 6 0 10 4 10 9 0 6 -4 13 -10 16 -5 3
-10 -1 -10 -9z"/>
<path d="M1756 3107 c3 -10 9 -15 12 -12 3 3 0 11 -7 18 -10 9 -11 8 -5 -6z"/>
<path d="M2358 3107 c7 -8 10 -16 7 -19 -3 -2 1 -5 9 -5 18 0 10 24 -11 31
-12 5 -13 4 -5 -7z"/>
<path d="M1015 3091 c-8 -7 -6 -21 3 -21 5 0 17 6 28 14 18 14 18 15 -4 13
-13 -1 -25 -3 -27 -6z"/>
<path d="M3275 3090 c-4 -6 -4 -14 -1 -17 3 -3 1 -12 -5 -19 -6 -8 -6 -14 0
-18 5 -4 12 3 16 14 4 12 11 17 18 13 7 -4 5 2 -3 13 -8 10 -15 20 -16 22 -1
2 -5 -2 -9 -8z"/>
<path d="M1737 3079 c7 -7 15 -10 18 -7 3 3 -2 9 -12 12 -14 6 -15 5 -6 -5z"/>
<path d="M2441 3074 c0 -11 3 -14 6 -6 3 7 2 16 -1 19 -3 4 -6 -2 -5 -13z"/>
<path d="M3487 3084 c-3 -3 -3 -13 0 -22 4 -9 2 -13 -4 -9 -5 3 -10 0 -10 -8
0 -8 5 -13 10 -12 6 1 11 -15 12 -35 2 -44 6 -50 25 -38 12 8 12 10 -4 10 -13
0 -16 4 -9 13 8 10 10 32 3 40 -2 3 -11 40 -12 55 -1 14 -2 14 -11 6z"/>
<path d="M4506 3073 c-3 -8 -1 -11 5 -8 5 4 18 1 27 -7 15 -11 15 -11 5 3 -7
9 -11 18 -8 21 3 2 -2 5 -10 5 -8 0 -17 -7 -19 -14z"/>
<path d="M3455 3069 c-4 -6 -5 -12 -2 -15 2 -3 7 2 10 11 7 17 1 20 -8 4z"/>
<path d="M1010 3056 c0 -2 8 -10 18 -17 15 -13 16 -12 3 4 -13 16 -21 21 -21
13z"/>
<path d="M1556 3038 c3 -5 10 -6 15 -3 13 9 11 12 -6 12 -8 0 -12 -4 -9 -9z"/>
<path d="M2471 3027 c-13 -21 -12 -21 5 -5 10 10 16 20 13 22 -3 3 -11 -5 -18
-17z"/>
<path d="M2510 3030 c-9 -6 -10 -10 -3 -10 6 0 15 5 18 10 8 12 4 12 -15 0z"/>
<path d="M1130 3005 c-7 -8 -16 -13 -20 -10 -5 3 -11 1 -14 -4 -4 -5 -2 -12 3
-15 5 -4 12 -2 16 4 3 5 11 10 16 10 6 0 7 -5 4 -10 -4 -6 -1 -9 7 -8 7 2 12
-2 11 -8 -1 -6 4 -11 12 -11 8 0 12 4 9 9 -6 10 25 6 44 -5 6 -5 16 -6 21 -2
5 3 12 1 16 -5 4 -6 11 -8 16 -4 17 10 -1 23 -26 18 -17 -3 -27 1 -31 11 -4
10 -13 13 -24 10 -12 -4 -24 2 -33 15 -12 18 -16 19 -27 5z m31 -22 c13 -16
12 -17 -3 -4 -10 7 -18 15 -18 17 0 8 8 3 21 -13z"/>
<path d="M1581 2994 c0 -11 3 -14 6 -6 3 7 2 16 -1 19 -3 4 -6 -2 -5 -13z"/>
<path d="M1299 2963 c-12 -14 -12 -16 0 -8 11 6 13 4 8 -8 -9 -23 0 -21 13 2
13 25 -3 36 -21 14z"/>
<path d="M1515 2950 c-3 -5 -1 -10 4 -10 6 0 11 5 11 10 0 6 -2 10 -4 10 -3 0
-8 -4 -11 -10z"/>
<path d="M1483 2942 c-7 -4 -9 -13 -4 -21 6 -9 10 -7 14 8 3 12 4 21 4 21 -1
0 -7 -4 -14 -8z"/>
<path d="M1550 2940 c-8 -5 -12 -11 -9 -14 3 -3 14 1 25 9 21 16 8 20 -16 5z"/>
<path d="M3510 2940 c-9 -6 -10 -10 -3 -10 7 0 10 -9 8 -21 -3 -17 -1 -19 9
-9 24 19 11 56 -14 40z"/>
<path d="M4556 2942 c-3 -5 1 -9 9 -9 8 0 12 4 9 9 -3 4 -7 8 -9 8 -2 0 -6 -4
-9 -8z"/>
<path d="M1275 2931 c-3 -5 -2 -12 3 -15 5 -3 9 1 9 9 0 17 -3 19 -12 6z"/>
<path d="M1395 2931 c-3 -5 -2 -12 3 -15 5 -3 9 1 9 9 0 17 -3 19 -12 6z"/>
<path d="M1196 2913 c-6 -14 -5 -15 5 -6 7 7 10 15 7 18 -3 3 -9 -2 -12 -12z"/>
<path d="M1431 2913 c7 -12 15 -20 18 -17 3 2 -3 12 -13 22 -17 16 -18 16 -5
-5z"/>
<path d="M1504 2920 c2 -16 20 -14 24 2 3 10 2 10 -6 -1 -7 -9 -11 -10 -15 -2
-4 7 -5 8 -3 1z"/>
<path d="M3207 2916 c-3 -8 1 -22 9 -33 14 -17 15 -17 6 2 -5 11 -7 26 -5 33
6 17 -4 15 -10 -2z"/>
<path d="M3230 2900 c0 -5 9 -8 20 -7 21 1 18 10 -5 13 -8 1 -15 -2 -15 -6z"/>
<path d="M1354 2882 c4 -3 14 -7 22 -8 9 -1 13 0 10 4 -4 3 -14 7 -22 8 -9 1
-13 0 -10 -4z"/>
<path d="M3516 2869 c2 -4 -2 -10 -8 -13 -9 -4 -8 -5 2 -5 29 2 40 -1 40 -12
0 -5 -4 -8 -9 -4 -5 3 -12 1 -16 -5 -4 -6 -12 -7 -18 -3 -7 4 -6 0 2 -10 7 -9
19 -17 25 -16 7 0 6 2 -2 6 -6 2 -9 9 -6 14 3 6 12 5 22 -3 12 -10 14 -10 8 0
-4 7 -2 12 5 12 8 0 6 6 -4 18 -10 10 -15 21 -12 23 2 3 -4 5 -15 5 -10 0 -17
-3 -14 -7z"/>
<path d="M4507 2836 c-4 -10 2 -20 14 -27 19 -10 20 -9 8 13 -16 31 -16 31
-22 14z"/>
<path d="M4535 2840 c3 -5 8 -10 11 -10 2 0 4 5 4 10 0 6 -5 10 -11 10 -5 0
-7 -4 -4 -10z"/>
<path d="M895 2820 c3 -5 8 -10 11 -10 2 0 4 5 4 10 0 6 -5 10 -11 10 -5 0 -7
-4 -4 -10z"/>
<path d="M2716 2822 c-3 -5 1 -9 9 -9 8 0 12 4 9 9 -3 4 -7 8 -9 8 -2 0 -6 -4
-9 -8z"/>
<path d="M3165 2820 c-3 -6 1 -7 9 -4 18 7 21 14 7 14 -6 0 -13 -4 -16 -10z"/>
<path d="M1290 2775 c-8 -10 -17 -12 -24 -6 -8 7 -12 4 -13 -10 -2 -24 -1 -24
43 6 20 14 30 25 22 25 -9 0 -21 -7 -28 -15z"/>
<path d="M2730 2779 c0 -5 5 -7 10 -4 6 3 10 8 10 11 0 2 -4 4 -10 4 -5 0 -10
-5 -10 -11z"/>
<path d="M905 2760 c3 -5 11 -10 16 -10 6 0 7 5 4 10 -3 6 -11 10 -16 10 -6 0
-7 -4 -4 -10z"/>
<path d="M2675 2760 c3 -5 8 -10 11 -10 2 0 4 5 4 10 0 6 -5 10 -11 10 -5 0
-7 -4 -4 -10z"/>
<path d="M2966 2725 c-18 -13 -18 -14 2 -12 11 0 19 4 16 8 -2 4 2 10 8 12 7
3 9 6 3 6 -5 0 -18 -6 -29 -14z"/>
<path d="M2627 2724 c-8 -8 1 -24 14 -24 5 0 9 7 9 15 0 15 -12 20 -23 9z"/>
<path d="M1150 2710 c0 -5 5 -10 11 -10 5 0 7 5 4 10 -3 6 -8 10 -11 10 -2 0
-4 -4 -4 -10z"/>
<path d="M2686 2698 c3 -5 10 -6 15 -3 13 9 11 12 -6 12 -8 0 -12 -4 -9 -9z"/>
<path d="M3495 2629 c-4 -6 -5 -12 -2 -15 2 -3 7 2 10 11 7 17 1 20 -8 4z"/>
<path d="M4465 2582 c-2 -2 -1 -10 1 -17 3 -7 0 -16 -5 -20 -16 -9 -3 -25 15
-18 12 4 12 8 4 13 -9 6 -7 13 8 28 20 20 20 21 1 19 -11 -1 -22 -3 -24 -5z"/>
<path d="M2615 2539 c-4 -6 -5 -12 -2 -15 2 -3 7 2 10 11 7 17 1 20 -8 4z"/>
<path d="M3455 2540 c-3 -5 -1 -10 4 -10 6 0 11 5 11 10 0 6 -2 10 -4 10 -3 0
-8 -4 -11 -10z"/>
<path d="M738 2512 c4 -10 7 -12 10 -4 2 7 8 9 13 6 6 -3 5 -12 -3 -22 -12
-15 -11 -16 5 -3 12 10 15 17 8 24 -18 18 -40 17 -33 -1z"/>
<path d="M2693 2505 c0 -8 4 -12 9 -9 5 3 6 10 3 15 -9 13 -12 11 -12 -6z"/>
<path d="M2575 2500 c3 -5 8 -10 11 -10 2 0 4 5 4 10 0 6 -5 10 -11 10 -5 0
-7 -4 -4 -10z"/>
<path d="M2775 2490 c-3 -5 -3 -10 1 -10 4 0 -1 -9 -10 -19 -13 -15 -14 -21
-5 -27 7 -4 15 -2 17 4 2 8 8 7 19 -3 21 -22 31 -18 31 12 0 22 -2 23 -10 9
-13 -22 -38 -3 -33 25 4 21 0 25 -10 9z"/>
<path d="M3386 2447 c-14 -15 -15 -19 -4 -15 9 4 21 2 27 -3 7 -6 8 -5 2 2 -5
6 -7 18 -4 25 7 19 2 16 -21 -9z"/>
<path d="M735 2420 c3 -5 8 -10 11 -10 2 0 4 5 4 10 0 6 -5 10 -11 10 -5 0 -7
-4 -4 -10z"/>
<path d="M2859 2428 c-8 -26 -5 -39 6 -34 7 2 18 -1 24 -8 7 -8 25 -12 47 -9
22 2 33 0 29 -7 -3 -6 0 -7 9 -4 21 8 10 24 -15 24 -11 0 -18 4 -15 8 2 4 -5
9 -17 9 -17 2 -19 0 -7 -7 12 -8 11 -10 -7 -10 -25 0 -39 16 -21 24 7 3 2 3
-11 0 -16 -4 -21 -3 -17 5 4 6 5 11 2 11 -3 0 -6 -1 -7 -2z"/>
<path d="M3000 2400 c-12 -7 -10 -9 7 -7 12 0 19 5 17 9 -6 10 -6 10 -24 -2z"/>
<path d="M4450 2400 c0 -5 5 -10 10 -10 6 0 10 5 10 10 0 6 -4 10 -10 10 -5 0
-10 -4 -10 -10z"/>
<path d="M4425 2381 c3 -5 1 -12 -5 -16 -6 -4 -8 -11 -4 -16 4 -6 11 -6 19 1
10 8 14 8 17 -2 3 -8 7 -6 11 6 4 10 3 15 -3 11 -6 -3 -10 -2 -10 3 0 6 -7 13
-16 16 -8 3 -12 2 -9 -3z"/>
<path d="M2330 2352 c-62 -68 -90 -105 -84 -113 3 -5 1 -9 -4 -9 -5 0 -9 -7
-9 -15 0 -8 3 -13 5 -10 3 3 12 -1 21 -8 14 -10 14 -10 4 3 -6 8 -9 28 -6 43
4 20 8 25 14 16 4 -8 12 -10 16 -5 4 5 2 11 -5 13 -6 3 -10 9 -6 14 3 5 11 6
17 2 22 -14 33 -11 33 9 0 17 -1 18 -12 3 -7 -9 -14 -13 -17 -8 -7 11 18 45
26 36 4 -3 7 -1 7 6 0 7 5 9 12 5 6 -4 8 -3 5 2 -3 6 -1 16 4 24 7 12 11 13
18 2 7 -11 9 -11 14 0 9 25 -27 17 -53 -10z"/>
<path d="M3005 2371 c-3 -5 0 -13 6 -17 7 -4 9 -3 5 4 -3 5 0 13 6 15 9 4 10
6 1 6 -6 1 -14 -3 -18 -8z"/>
<path d="M775 2350 c-3 -5 -3 -10 1 -10 4 0 -1 -7 -12 -15 -16 -13 -16 -14 -1
-9 14 5 16 2 11 -12 -4 -11 -4 -16 1 -12 7 7 16 68 9 68 -1 0 -6 -4 -9 -10z"/>
<path d="M3156 2342 c-3 -6 -1 -14 5 -17 14 -9 20 -2 10 14 -6 8 -11 9 -15 3z"/>
<path d="M2635 2329 c-4 -6 -5 -12 -2 -15 2 -3 7 2 10 11 7 17 1 20 -8 4z"/>
<path d="M766 2238 c3 -4 9 -8 15 -8 5 0 9 4 9 8 0 5 -7 9 -15 9 -8 0 -12 -4
-9 -9z"/>
<path d="M2680 2180 c-9 -6 -10 -10 -3 -10 6 0 15 5 18 10 8 12 4 12 -15 0z"/>
<path d="M2200 2171 c0 -5 5 -13 10 -16 6 -3 10 -2 10 4 0 5 -4 13 -10 16 -5
3 -10 2 -10 -4z"/>
<path d="M4380 2170 c-13 -8 -13 -11 -1 -22 9 -8 12 -9 7 -1 -3 6 2 16 11 22
10 6 14 10 8 11 -5 0 -17 -5 -25 -10z"/>
<path d="M2693 2085 c0 -7 3 -14 6 -13 3 0 13 0 21 -1 13 -1 13 -2 0 -11 -9
-6 -10 -10 -3 -10 17 0 23 14 12 30 -5 8 -9 11 -9 6 0 -5 -6 -3 -13 3 -10 8
-14 7 -14 -4z"/>
<path d="M4361 2084 c0 -11 3 -14 6 -6 3 7 2 16 -1 19 -3 4 -6 -2 -5 -13z"/>
<path d="M840 1980 c-9 -6 -10 -10 -3 -10 6 0 15 5 18 10 8 12 4 12 -15 0z"/>
<path d="M892 1955 c-6 -8 -20 -12 -30 -9 -14 5 -14 4 -3 -4 15 -11 44 -1 56
18 9 15 -8 11 -23 -5z"/>
<path d="M4317 1963 c-10 -10 -8 -23 4 -23 5 0 8 4 5 9 -4 5 0 12 6 14 7 3 8
6 2 6 -6 1 -14 -2 -17 -6z"/>
<path d="M891 1914 c0 -11 3 -14 6 -6 3 7 2 16 -1 19 -3 4 -6 -2 -5 -13z"/>
<path d="M2290 1881 c0 -6 4 -13 10 -16 6 -3 7 1 4 9 -7 18 -14 21 -14 7z"/>
<path d="M920 1856 c14 -18 13 -19 -3 -13 -11 4 -16 3 -12 -4 4 -6 14 -8 22
-5 8 3 23 1 34 -5 19 -10 20 -9 9 11 -6 11 -15 18 -21 14 -5 -3 -18 0 -27 8
-16 12 -16 11 -2 -6z"/>
<path d="M2873 1827 c-9 -15 6 -20 22 -7 17 14 19 7 5 -20 -7 -13 -7 -21 2
-26 7 -5 8 -3 3 5 -5 9 -2 12 11 9 11 -2 18 -10 16 -18 -3 -11 0 -11 12 -1 14
12 13 16 -7 41 -21 27 -53 35 -64 17z m68 -34 c13 -17 13 -17 -6 -3 -11 8 -22
16 -24 17 -2 2 0 3 6 3 6 0 17 -8 24 -17z"/>
<path d="M2350 1800 c0 -5 5 -10 11 -10 5 0 7 5 4 10 -3 6 -8 10 -11 10 -2 0
-4 -4 -4 -10z"/>
<path d="M4189 1779 c-8 -5 -10 -9 -5 -9 5 0 1 -9 -9 -20 -12 -13 -14 -20 -5
-20 6 0 10 -6 7 -13 -3 -8 1 -14 7 -14 8 0 12 10 10 24 -1 13 2 23 8 23 6 0 7
8 4 18 -5 14 -4 14 9 -2 12 -16 15 -17 15 -4 0 20 -22 29 -41 17z"/>
<path d="M4211 1724 c0 -11 3 -14 6 -6 3 7 2 16 -1 19 -3 4 -6 -2 -5 -13z"/>
<path d="M2990 1715 c5 -7 6 -16 2 -21 -4 -5 -3 -5 2 -1 15 12 15 34 0 34 -9
0 -11 -4 -4 -12z"/>
<path d="M2554 1692 c3 -5 0 -13 -6 -15 -9 -4 -10 -6 -1 -6 17 -1 25 16 12 25
-7 4 -9 3 -5 -4z"/>
<path d="M3064 1678 c-4 -7 -3 -8 5 -4 6 4 20 2 29 -6 15 -12 16 -11 3 5 -16
20 -27 22 -37 5z"/>
<path d="M2730 1660 c0 -5 5 -10 11 -10 5 0 7 5 4 10 -3 6 -8 10 -11 10 -2 0
-4 -4 -4 -10z"/>
<path d="M2895 1660 c3 -5 8 -10 11 -10 2 0 4 5 4 10 0 6 -5 10 -11 10 -5 0
-7 -4 -4 -10z"/>
<path d="M2918 1649 c-21 -23 -23 -30 -5 -23 14 5 41 44 30 43 -5 0 -16 -9
-25 -20z"/>
<path d="M3263 1645 c-3 -9 -3 -18 -1 -21 3 -3 8 4 11 16 6 23 -1 27 -10 5z"/>
<path d="M1060 1616 c0 -2 7 -7 16 -10 8 -3 12 -2 9 4 -6 10 -25 14 -25 6z"/>
<path d="M3110 1600 c-6 -11 -8 -20 -6 -20 3 0 10 9 16 20 6 11 8 20 6 20 -3
0 -10 -9 -16 -20z"/>
<path d="M1106 1594 c-4 -9 -4 -19 -1 -22 3 -3 5 0 5 6 0 7 7 12 16 12 8 0 12
5 9 10 -9 15 -22 12 -29 -6z"/>
<path d="M3144 1602 c4 -3 14 -7 22 -8 9 -1 13 0 10 4 -4 3 -14 7 -22 8 -9 1
-13 0 -10 -4z"/>
<path d="M3320 1595 c-11 -13 -10 -14 4 -9 9 3 16 10 16 15 0 13 -6 11 -20 -6z"/>
<path d="M3168 1562 c-8 -27 37 -68 57 -52 6 5 14 8 17 5 2 -3 5 2 5 10 0 10
-4 11 -11 6 -13 -11 -51 15 -58 39 -3 10 -6 8 -10 -8z m52 -49 c0 -7 -39 17
-46 28 -3 6 5 3 20 -6 14 -10 26 -19 26 -22z"/>
<path d="M3206 1562 c-3 -5 1 -9 9 -9 8 0 12 4 9 9 -3 4 -7 8 -9 8 -2 0 -6 -4
-9 -8z"/>
<path d="M1155 1530 c-4 -6 -4 -14 -1 -17 3 -4 6 -1 6 6 0 7 5 9 10 6 6 -4 7
-11 4 -17 -4 -7 -2 -8 4 -4 11 6 16 -6 13 -26 0 -5 4 -8 10 -8 6 0 8 8 5 18
-5 14 -3 13 9 -3 9 -11 20 -20 25 -20 4 0 11 -3 15 -7 4 -3 -4 -5 -17 -4 -15
2 -25 -2 -25 -10 0 -9 5 -10 19 -3 14 7 18 6 18 -6 0 -10 -5 -13 -12 -9 -8 4
-10 3 -5 -2 5 -5 12 -9 15 -9 4 -1 16 -6 28 -12 16 -10 21 -9 21 2 0 7 -6 11
-14 8 -12 -5 -17 7 -14 33 1 7 -17 25 -39 41 -22 17 -36 34 -32 39 4 5 3 6 -2
2 -5 -4 -15 -3 -22 3 -8 7 -14 7 -19 -1z"/>
<path d="M3242 1478 c7 -13 12 -26 13 -30 0 -5 5 -7 10 -5 12 2 8 20 -6 25 -5
2 -9 10 -9 18 0 8 -5 14 -10 14 -7 0 -6 -8 2 -22z"/>
<path d="M3315 1460 c3 -5 8 -10 11 -10 2 0 4 5 4 10 0 6 -5 10 -11 10 -5 0
-7 -4 -4 -10z"/>
<path d="M3450 1460 c0 -5 5 -10 11 -10 5 0 7 5 4 10 -3 6 -8 10 -11 10 -2 0
-4 -4 -4 -10z"/>
<path d="M4053 1455 c-3 -9 -3 -18 -1 -21 3 -3 8 4 11 16 6 23 -1 27 -10 5z"/>
<path d="M1266 1382 c-3 -5 1 -9 9 -9 8 0 12 4 9 9 -3 4 -7 8 -9 8 -2 0 -6 -4
-9 -8z"/>
<path d="M1325 1350 c-16 -7 -17 -9 -3 -9 9 -1 20 4 23 9 7 11 7 11 -20 0z"/>
<path d="M3325 1310 c10 -11 15 -20 10 -20 -4 0 -3 -6 2 -12 6 -7 9 -21 8 -30
-2 -11 2 -15 11 -11 17 6 18 15 2 32 -11 11 -9 12 10 6 14 -4 22 -2 22 5 0 6
-4 9 -9 5 -5 -3 -21 6 -35 20 -30 30 -47 34 -21 5z"/>
<path d="M3870 1295 c-7 -8 -9 -15 -4 -15 5 -1 -2 -7 -16 -14 -14 -8 -29 -12
-34 -9 -5 4 -6 1 -3 -4 4 -6 0 -16 -8 -23 -7 -6 -11 -18 -8 -26 4 -12 9 -10
24 7 10 12 24 18 31 14 7 -3 4 1 -6 9 -17 14 -18 16 -3 16 9 0 24 11 33 25 19
29 14 44 -6 20z m-40 -59 c0 -2 -8 -10 -17 -17 -16 -13 -17 -12 -4 4 13 16 21
21 21 13z"/>
<path d="M3560 1260 c20 -13 33 -13 25 0 -3 6 -14 10 -23 10 -15 0 -15 -2 -2
-10z"/>
<path d="M1457 1254 c-15 -15 -6 -23 23 -20 20 2 30 -1 30 -10 0 -8 7 -14 17
-14 14 0 14 2 -2 20 -10 12 -24 19 -31 16 -6 -2 -16 0 -21 5 -5 5 -12 6 -16 3z"/>
<path d="M3873 1233 c0 -9 4 -10 14 -2 7 6 13 12 13 14 0 1 -6 2 -13 2 -8 0
-14 -6 -14 -14z"/>
<path d="M1477 1209 c7 -7 15 -10 18 -7 3 3 -2 9 -12 12 -14 6 -15 5 -6 -5z"/>
<path d="M3546 1198 c3 -5 10 -6 15 -3 13 9 11 12 -6 12 -8 0 -12 -4 -9 -9z"/>
<path d="M3581 1196 c-10 -11 -8 -19 6 -36 10 -11 18 -26 18 -32 0 -18 22 -21
28 -4 4 9 -3 23 -17 33 -13 10 -22 26 -20 36 3 21 0 21 -15 3z m38 -50 c9 -11
9 -16 -1 -22 -7 -4 -10 -4 -6 1 4 4 3 14 -3 22 -6 7 -9 13 -6 13 2 0 10 -6 16
-14z"/>
<path d="M1565 1181 c-3 -5 -2 -12 3 -15 5 -3 9 1 9 9 0 17 -3 19 -12 6z"/>
<path d="M1540 1173 c0 -6 8 -17 18 -24 16 -13 16 -13 2 6 -8 11 -16 22 -17
24 -2 2 -3 0 -3 -6z"/>
<path d="M1614 1165 c-4 -8 -10 -13 -14 -10 -4 3 -10 -1 -13 -8 -9 -24 21 -14
32 10 6 13 8 23 5 23 -2 0 -7 -7 -10 -15z"/>
<path d="M3400 1161 c-8 -6 -17 -8 -20 -6 -4 2 -7 -2 -7 -10 0 -8 7 -17 14
-19 8 -4 11 -1 8 5 -4 6 1 17 11 24 21 16 17 20 -6 6z"/>
<path d="M3554 1155 c1 -8 6 -18 11 -22 4 -4 5 -3 2 4 -4 6 -2 13 5 15 8 3 6
6 -4 10 -10 4 -15 2 -14 -7z"/>
<path d="M1650 1138 c0 -23 12 -29 28 -15 13 10 14 8 8 -13 -6 -22 -5 -23 5
-7 8 14 8 22 0 30 -6 6 -11 7 -11 3 0 -5 -7 -3 -15 4 -12 10 -15 10 -15 -2z"/>
<path d="M3366 1111 c-4 -6 -3 -19 3 -28 7 -13 5 -23 -5 -34 -12 -13 -12 -18
1 -35 15 -19 15 -19 8 1 -6 18 -5 19 13 5 15 -11 16 -11 7 0 -7 8 -13 21 -13
29 0 11 5 10 23 -5 l22 -19 -22 26 c-26 29 -31 48 -8 29 21 -18 19 -3 -4 21
-12 13 -21 17 -25 10z"/>
<path d="M1647 1099 c7 -7 15 -10 18 -7 3 3 -2 9 -12 12 -14 6 -15 5 -6 -5z"/>
<path d="M3594 1095 c1 -8 6 -18 11 -22 4 -4 5 -3 2 4 -4 6 -2 13 5 15 8 3 6
6 -4 10 -10 4 -15 2 -14 -7z"/>
<path d="M3700 1100 c-8 -5 -10 -10 -5 -10 6 0 17 5 25 10 8 5 11 10 5 10 -5
0 -17 -5 -25 -10z"/>
<path d="M1919 1008 c-5 -18 -6 -38 -1 -34 7 8 12 36 6 36 -2 0 -4 -1 -5 -2z"/>
<path d="M3285 990 c-3 -5 5 -14 17 -21 13 -6 20 -8 16 -4 -4 5 -4 13 2 19 6
8 3 12 -10 13 -11 1 -22 -2 -25 -7z"/>
<path d="M1970 980 c0 -5 5 -10 11 -10 5 0 7 5 4 10 -3 6 -8 10 -11 10 -2 0
-4 -4 -4 -10z"/>
<path d="M2101 981 c-9 -6 -10 -11 -2 -15 6 -4 11 -3 11 3 0 6 7 8 15 5 8 -4
12 -10 9 -15 -3 -5 0 -9 5 -9 14 0 14 13 -1 28 -14 14 -19 15 -37 3z"/>
<path d="M3357 975 c-4 -8 -3 -16 1 -19 4 -3 9 4 9 15 2 23 -3 25 -10 4z"/>
<path d="M2050 961 c0 -6 4 -13 10 -16 6 -3 7 1 4 9 -7 18 -14 21 -14 7z"/>
<path d="M2160 960 c0 -5 5 -10 11 -10 5 0 7 5 4 10 -3 6 -8 10 -11 10 -2 0
-4 -4 -4 -10z"/>
<path d="M3230 955 c0 -8 4 -15 10 -15 5 0 7 7 4 15 -4 8 -8 15 -10 15 -2 0
-4 -7 -4 -15z"/>
<path d="M3106 939 c3 -5 10 -6 16 -3 8 5 9 1 5 -10 -4 -11 -3 -15 4 -11 14
10 6 28 -14 31 -9 1 -15 -2 -11 -7z"/>
<path d="M3300 940 c-8 -5 -10 -10 -5 -10 6 0 17 5 25 10 8 5 11 10 5 10 -5 0
-17 -5 -25 -10z"/>
<path d="M2193 925 c0 -8 4 -12 9 -9 5 3 6 10 3 15 -9 13 -12 11 -12 -6z"/>
<path d="M2920 930 c-8 -5 -11 -10 -6 -10 5 0 2 -8 -5 -17 -12 -16 -12 -17 2
-6 12 10 18 10 29 0 12 -10 12 -9 1 5 -7 9 -10 22 -6 28 8 12 4 13 -15 0z"/>
<path d="M2116 918 c3 -5 10 -6 15 -3 13 9 11 12 -6 12 -8 0 -12 -4 -9 -9z"/>
<path d="M2295 920 c-3 -5 -1 -10 4 -10 6 0 11 5 11 10 0 6 -2 10 -4 10 -3 0
-8 -4 -11 -10z"/>
<path d="M2346 922 c-3 -5 1 -9 9 -9 8 0 12 4 9 9 -3 4 -7 8 -9 8 -2 0 -6 -4
-9 -8z"/>
<path d="M2786 921 c-3 -5 0 -14 7 -19 10 -8 13 -6 14 9 2 19 -11 26 -21 10z"/>
<path d="M2825 912 c-3 -8 -3 -17 0 -20 3 -3 5 0 5 6 0 7 7 12 15 12 8 0 15 4
15 8 0 15 -29 9 -35 -6z"/>
<path d="M3161 921 c-10 -7 -7 -9 12 -8 14 1 23 5 20 10 -6 9 -15 9 -32 -2z"/>
<path d="M2440 910 c-9 -6 -10 -10 -3 -10 6 0 15 5 18 10 8 12 4 12 -15 0z"/>
<path d="M2616 913 c-3 -3 -6 -11 -6 -17 0 -6 5 -4 10 4 6 9 10 10 10 3 0 -6
9 -11 20 -10 17 1 19 12 2 12 -4 0 -12 3 -18 7 -6 4 -14 5 -18 1z"/>
<path d="M3076 898 c3 -4 11 -5 19 -1 21 7 19 12 -4 10 -11 0 -18 -5 -15 -9z"/>
<path d="M2850 890 c-9 -6 -10 -10 -3 -10 6 0 15 5 18 10 8 12 4 12 -15 0z"/>
<path d="M2416 878 c3 -5 10 -6 15 -3 13 9 11 12 -6 12 -8 0 -12 -4 -9 -9z"/>
<path d="M2721 881 c-10 -7 -7 -9 12 -8 14 1 23 5 20 10 -6 9 -15 9 -32 -2z"/>
<path d="M2775 880 c3 -5 8 -10 11 -10 2 0 4 5 4 10 0 6 -5 10 -11 10 -5 0 -7
-4 -4 -10z"/>
</g>
</svg>
