<svg xmlns="http://www.w3.org/2000/svg" width="242.24319" height="200.20589" viewBox="0 0 242.24319 200.20589"><defs><style>.cls-1{fill:#fff;}.cls-2{fill:#e9142b;}.cls-3{fill:#26b04f;}</style></defs><title>logo-fick-neg</title><path class="cls-1" d="M183.3198,183.3022l3.8257,1.5557,2.6025-6.3999,3.1636,1.2871-2.603,6.3999,6.5703,2.6729-1.5952,3.9228-16.8208-6.8418,4.8677-11.9653,3.2612,1.3262Z" transform="translate(-135.8779 -118.3643)"/><path class="cls-1" d="M197.1987,174.1631l.5508.3691a2.59652,2.59652,0,0,0,3.81589-.7002,2.28971,2.28971,0,0,0-.5571-3.1382l2.1094-2.9292a6.1245,6.1245,0,0,1,.7461,7.6353c-2.106,3.4282-5.8687,4.1924-9.27349,2.1001-3.3828-2.0791-4.8789-5.7622-2.6899-9.3262a6.13219,6.13219,0,0,1,4.6074-2.9472,8.6333,8.6333,0,0,1,5.20849,1.5835Zm.5186-5.2427c-1.2827-.6938-2.6812-.9951-3.5689.4487-.9008,1.4659-.1645,2.6949,1.0747,3.6109Z" transform="translate(-135.8779 -118.3643)"/><path class="cls-1" d="M213.05619,162.7354l-1.5806-1.3692-.0342.0391a3.85014,3.85014,0,0,1-.5625,4.2431c-2.48,2.8589-5.9736,1.2305-8.333-.8164-2.41889-2.0986-4.73929-5.4433-2.17289-8.4018a3.62,3.62,0,0,1,3.48339-1.4297l-4.6391-4.0244,2.5503-2.939,13.7158,11.8999Zm-5.7603-4.7515c-.9795-.8491-2.729-2.2266-3.8916-.8867-1.457,1.6792.6909,3.6474,1.9102,4.706,1.1001.9541,3.0986,2.4063,4.3642.9468a1.99209,1.99209,0,0,0,.291-1.9902,4.27967,4.27967,0,0,0-1.2749-1.5616Z" transform="translate(-135.8779 -118.3643)"/><path class="cls-1" d="M215.84909,151.5303l.40291.5263a2.59581,2.59581,0,0,0,3.83879.5625,2.29034,2.29034,0,0,0,.48-3.1513l2.9385-2.0952a6.12408,6.12408,0,0,1-1.7451,7.4697c-3.09619,2.5713-6.9034,2.0859-9.458-.9902-2.53619-3.0547-2.7691-7.0235.4492-9.6954a6.12611,6.12611,0,0,1,5.30861-1.312,8.62875,8.62875,0,0,1,4.42429,3.1734Zm2.1743-4.7989c-.9907-1.0683-2.2207-1.8027-3.5229-.7207-1.3242,1.0992-1.02149,2.4996-.1421,3.7652Z" transform="translate(-135.8779 -118.3643)"/><path class="cls-1" d="M223.91359,136.4639l1.33641,2.1308.04539-.0283c-.4233-1.4224-.5391-3.1006.9663-3.8882l.5894-.3071,2.0678,3.2964c-2.5957,1.4409-1.6293,3.6782-.3632,5.6968l2.729,4.3501-3.2964,2.0678-7.146-11.3906Z" transform="translate(-135.8779 -118.3643)"/><path class="cls-1" d="M242.356,142.0005a8.02566,8.02566,0,0,1-1.03621-1.8267,4.71488,4.71488,0,0,1-2.92479,3.9229c-2.16751.9873-4.38041.6001-5.43411-1.7124a4.1913,4.1913,0,0,1,1.0874-4.8882,22.33327,22.33327,0,0,1,4.4908-2.9775l-.1324-.2886a2.75355,2.75355,0,0,0-1.0488-1.4712,2.01639,2.01639,0,0,0-1.7085.0801,2.041,2.041,0,0,0-1.3066,2.748l-3.4917,1.2139c-.9878-3.1275,1.5068-5.3125,4.084-6.4873a7.10073,7.10073,0,0,1,4.3823-.6592c1.7139.4409,2.2085,1.8447,2.8784,3.3145l2.6016,5.7075a6.45354,6.45354,0,0,0,1.0752,1.7207Zm-3.00441-5.6992c-1.2832.7583-3.62159,2.2031-2.8091,3.9853a1.62648,1.62648,0,0,0,2.3013.8999,2.34844,2.34844,0,0,0,1.3217-1.8242,4.24665,4.24665,0,0,0-.5947-2.5801Z" transform="translate(-135.8779 -118.3643)"/><path class="cls-1" d="M253.229,126.8838l-3.50591,9.4175,6.0015-1.7349.8023,2.772-10.1724,2.9404-.8018-2.7729,3.5137-9.1983-5.2129,1.5073-.75-2.5947,9.4346-2.7265Z" transform="translate(-135.8779 -118.3643)"/><path class="cls-1" d="M259.08689,122.062l-3.8291.6953-.6704-3.6992,3.82861-.6938Zm2.6182,14.4292-3.82909.6948-2.40041-13.2304,3.8286-.6958Z" transform="translate(-135.8779 -118.3643)"/><path class="cls-1" d="M275.812,128.646c.23,3.8325-2.09811,7.021-6.063,7.2573-4.12161.2476-6.55321-2.7368-6.78611-6.6206-.23389-3.9111,1.8564-7.0849,5.95311-7.3306C273.11619,121.7012,275.57619,124.6831,275.812,128.646Zm-8.69771-.0093c.0918,1.5322.26171,4.8101,2.4804,4.6773,2.1934-.1309,2.1411-2.7793,2.0449-4.3916a10.14035,10.14035,0,0,0-.6225-3.3042,1.75705,1.75705,0,0,0-1.9219-1.1045C267.00779,124.6387,267.02249,127.1035,267.11429,128.6367Z" transform="translate(-135.8779 -118.3643)"/><path class="cls-1" d="M282.748,122.3315l-.23241,2.2637.0518.0059a3.82254,3.82254,0,0,1,4.1045-2.1323,3.91456,3.91456,0,0,1,3.1396,1.8125c.6353,1.0766.4624,2.7612.3379,3.9731l-.8496,8.2681-3.8716-.398.7383-7.1885c.1411-1.3691.5308-3.351-1.417-3.5517a1.86673,1.86673,0,0,0-1.7358.8325,4.93578,4.93578,0,0,0-.6914,2.3247l-.73829,7.1875-3.87111-.3975,1.376-13.3759Z" transform="translate(-135.8779 -118.3643)"/><path class="cls-1" d="M296.37739,131.9932l-.2006.6323a2.59746,2.59746,0,0,0,1.74021,3.4668,2.29112,2.29112,0,0,0,2.85739-1.4141l3.4033,1.2051a6.12833,6.12833,0,0,1-7.1215,2.8555c-3.8799-1.0616-5.668-4.46-4.6133-8.3155,1.0473-3.8295,4.165-6.2978,8.1997-5.1938a6.13051,6.13051,0,0,1,4.1201,3.5972,8.62184,8.62184,0,0,1-.0625,5.4438Zm5.1773-.9703c.3086-1.4257.2041-2.853-1.43069-3.3007-1.65871-.4541-2.63231.5971-3.165,2.0424Z" transform="translate(-135.8779 -118.3643)"/><path class="cls-1" d="M315.415,145.9346l-3.75191-1.9678,8.4375-16.0796,3.751,1.9678Z" transform="translate(-135.8779 -118.3643)"/><path class="cls-1" d="M322.57229,137.9556l1.708-2.584,1.9648,1.3003,2.46291-3.0996,2.97269,1.6489-2.3223,3.5102,2.4062,1.5914-1.7089,2.583-2.4063-1.5913-2.9492,4.4589c-.8623,1.3037-1.2119,1.8326.3994,2.8037l1.0449.6275-1.622,2.4512-.25-.1016a15.56085,15.56085,0,0,1-1.94049-.9995,5.8135,5.8135,0,0,1-2.41211-2.6416c-.4082-1.3501.4824-2.6963,1.2129-3.8003l3.2715-4.9448Z" transform="translate(-135.8779 -118.3643)"/><path class="cls-1" d="M331.917,157.9307a7.92621,7.92621,0,0,1,1.24319-1.6919,4.71515,4.71515,0,0,1-4.7754-1.0689c-1.7862-1.5761-2.335-3.7549-.6543-5.6601a4.192,4.192,0,0,1,4.9082-1.0015,22.26941,22.26941,0,0,1,4.5498,2.8843l.2099-.2393a2.75633,2.75633,0,0,0,.9151-1.5571,2.0142,2.0142,0,0,0-.77149-1.5264,2.04,2.04,0,0,0-3.042-.0722l-2.53221-2.6914c2.4521-2.1802,5.4648-.794,7.5888,1.08a7.10606,7.10606,0,0,1,2.3897,3.7325c.2978,1.7441-.7822,2.7685-1.8496,3.9794l-4.1504,4.7046a6.46526,6.46526,0,0,0-1.1318,1.6846Zm3.97559-5.0699c-1.2168-.8613-3.4893-2.4067-4.7842-.937a1.62529,1.62529,0,0,0,.1162,2.4673,2.34649,2.34649,0,0,0,2.2051.4624,4.24154,4.24154,0,0,0,2.11331-1.5947Z" transform="translate(-135.8779 -118.3643)"/><path class="cls-1" d="M349.48539,149.8667l2.5898,2.9028-13.5459,12.0923-2.5918-2.9018Z" transform="translate(-135.8779 -118.3643)"/><path class="cls-1" d="M342.43849,169.812l-2.3662-3.0898,10.6748-8.1773,2.3662,3.0889Zm11.6416-8.9189-2.3672-3.0894,2.9834-2.2856,2.3672,3.0893Z" transform="translate(-135.8779 -118.3643)"/><path class="cls-1" d="M348.09079,178.6401a7.96337,7.96337,0,0,1,1.7051-1.2236,4.70819,4.70819,0,0,1-4.208-2.4936c-1.21289-2.0499-1.0625-4.2916,1.124-5.585a4.19335,4.19335,0,0,1,4.9766.5635,22.22583,22.22583,0,0,1,3.43651,4.1489l.27339-.1621a2.76854,2.76854,0,0,0,1.35261-1.1983,2.02035,2.02035,0,0,0-.26171-1.6904,2.04147,2.04147,0,0,0-2.8711-1.0088l-1.57619-3.3418c3.00389-1.3154,5.44039.9341,6.88279,3.3721a7.11117,7.11117,0,0,1,1.1201,4.2886c-.2578,1.7505-1.5996,2.3906-2.9892,3.2124l-5.4014,3.1928a6.49259,6.49259,0,0,0-1.5967,1.252Zm5.3487-3.5922c-.8907-1.1958-2.5743-3.3682-4.2608-2.3707a1.625,1.625,0,0,0-.6514,2.3833,2.34135,2.34135,0,0,0,1.9541,1.1202,4.23783,4.23783,0,0,0,2.503-.8633Z" transform="translate(-135.8779 -118.3643)"/><path class="cls-1" d="M364.64549,182.0991l-2.123.8213.01951.0498a3.82078,3.82078,0,0,1,3.76269,2.6875,3.91944,3.91944,0,0,1-.1885,3.6216c-.6699,1.0532-2.25,1.6655-3.3867,2.104l-7.752,2.9985-1.4033-3.6294,6.7393-2.6069c1.2842-.4966,3.22751-1.0498,2.52051-2.8765a1.86576,1.86576,0,0,0-1.53031-1.1674,4.91488,4.91488,0,0,0-2.3838.4399l-6.7402,2.606-1.4033-3.6289,12.542-4.8506Z" transform="translate(-135.8779 -118.3643)"/><path class="cls-1" d="M357.23049,204.4336a7.99713,7.99713,0,0,1,2.0117-.603,4.715,4.715,0,0,1-3.1738-3.7251c-.4815-2.333.38861-4.4043,2.8769-4.918a4.19491,4.19491,0,0,1,4.5244,2.1479,22.3847,22.3847,0,0,1,1.90431,5.0401l.31149-.064a2.75966,2.75966,0,0,0,1.667-.6948,2.023,2.023,0,0,0,.3018-1.6841c-.252-1.2187-1.0928-2.1538-2.3887-1.8862l-.4072-3.6724c3.2695-.269,4.8437,2.6489,5.417,5.4239a7.10259,7.10259,0,0,1-.332,4.4194c-.8116,1.5732-2.2891,1.7422-3.8711,2.0683l-6.1436,1.2671a6.51717,6.51717,0,0,0-1.918.6661Zm6.22651-1.6621c-.457-1.4194-1.34471-4.02-3.26171-3.6255a1.62876,1.62876,0,0,0-1.3906,2.0435,2.34488,2.34488,0,0,0,1.48531,1.6948,4.235,4.235,0,0,0,2.64649-.0064Z" transform="translate(-135.8779 -118.3643)"/><path class="cls-1" d="M214.83789,282.3691c1.5517-1.5517,2.49611-3.5205.7236-5.3398-2.2778-2.3379-5.56.418-7.2768,2.0898-1.9444,1.8936-4.2256,4.5606-1.7876,7.0625,1.5117,1.5508,3.52,1.0059,5.0664-.1377l2.937,3.4278c-3.5903,2.8125-7.6904,2.4521-10.87349-.8154-4.11091-4.2198-2.67291-9.6133,1.19529-13.3799,3.92971-3.8291,9.3564-5.0039,13.5078-.7432,3.4658,3.5586,3.17091,7.3926.1216,11.0889Z" transform="translate(-135.8779 -118.3643)"/><path class="cls-1" d="M221.72949,303.0098a8.76593,8.76593,0,0,1,1.10351-2.0078,5.14006,5.14006,0,0,1-5.31591-.4737c-2.1582-1.4463-3.065-3.7265-1.51909-6.0263a4.57334,4.57334,0,0,1,5.16309-1.7862,24.41627,24.41627,0,0,1,5.3345,2.4678l.19241-.2881a3.00674,3.00674,0,0,0,.76659-1.8164,2.20614,2.20614,0,0,0-1.0518-1.541c-1.1269-.7568-2.4961-.8408-3.3007.3594l-3.12409-2.5498c2.33939-2.7071,5.79639-1.6397,8.36139.0839a7.74311,7.74311,0,0,1,3.11961,3.6914c.57129,1.8458-.45021,3.1075-1.43071,4.5704l-3.8149,5.6826a7.05333,7.05333,0,0,0-.98339,1.9824Zm3.5752-6.0518c-1.4385-.7578-4.11769-2.1035-5.3091-.3301a1.77349,1.77349,0,0,0,.48,2.6524,2.55479,2.55479,0,0,0,2.4507.1845,4.62626,4.62626,0,0,0,2.0556-2.0283Z" transform="translate(-135.8779 -118.3643)"/><path class="cls-1" d="M239.57029,296.0479l-.9741,2.2851.0532.0225a4.16769,4.16769,0,0,1,4.9649-.8985,4.27581,4.27581,0,0,1,2.687,2.9024c.3134,1.3271-.4107,3.0283-.9312,4.25l-3.5542,8.3418-3.9057-1.6631L241,304.0342c.58889-1.3799,1.63529-3.3213-.33011-4.1582a2.02691,2.02691,0,0,0-2.0771.3076,5.34126,5.34126,0,0,0-1.4707,2.1973l-3.0904,7.2519-3.90469-1.6631,5.74949-13.4961Z" transform="translate(-135.8779 -118.3643)"/><path class="cls-1" d="M262.12109,310.5488c-.8867,4.0889-4.272,6.7539-8.5039,5.836-4.4024-.9532-6.0801-4.8037-5.17919-8.9532.90529-4.1757,4.03609-6.8945,8.40969-5.9462C261.33539,302.457,263.04,306.3145,262.12109,310.5488Zm-9.1333-2.5732c-.3545,1.6367-1.1421,5.1308,1.228,5.6435,2.3433.5088,3.0674-2.289,3.4409-4.0097a11.079,11.079,0,0,0,.3199-3.6553,1.91879,1.91879,0,0,0-1.6944-1.7266C254.05369,303.7432,253.34329,306.3379,252.98779,307.9756Z" transform="translate(-135.8779 -118.3643)"/><path class="cls-1" d="M274.79249,318.4043a8.70919,8.70919,0,0,1-.1431-2.2852,5.14337,5.14337,0,0,1-4.7436,2.4483c-2.5972-.0684-4.5821-1.5069-4.5103-4.2783a4.572,4.572,0,0,1,3.4043-4.2715,24.36383,24.36383,0,0,1,5.8267-.7754l.0097-.3438a3.021,3.021,0,0,0-.3247-1.9443,2.20031,2.20031,0,0,0-1.7138-.7383c-1.3584-.0361-2.5581.626-2.59569,2.0703l-4.003-.4814c.52489-3.5391,4.01659-4.4893,7.105-4.4063a7.74178,7.74178,0,0,1,4.61229,1.4483c1.4702,1.2519,1.28371,2.8642,1.2378,4.6269l-.1787,6.8399a7.04686,7.04686,0,0,0,.2319,2.2021Zm-.2212-7.0244c-1.6211.1308-4.604.4287-4.6602,2.5644a1.77464,1.77464,0,0,0,1.8267,1.9834,2.56114,2.56114,0,0,0,2.166-1.1552,4.61786,4.61786,0,0,0,.6519-2.8135Z" transform="translate(-135.8779 -118.3643)"/><path class="cls-1" d="M296.94039,305.167l3.3575-10.6904,4.2705-1.2412-2.6006,8.124,9.2676,10.5674-4.9073,1.4277-6.166-7.1397-1.5683,4.6358,1.2724,4.3818-4.32419,1.2578-5.53081-19.0224,4.3252-1.2578Z" transform="translate(-135.8779 -118.3643)"/><path class="cls-1" d="M323.72359,305.5625a8.78746,8.78746,0,0,1-1.25-1.918,5.13923,5.13923,0,0,1-2.9209,4.4659c-2.2939,1.2226-4.7295.9492-6.0322-1.4981a4.57477,4.57477,0,0,1,.85551-5.3965,24.48118,24.48118,0,0,1,4.68939-3.5449l-.164-.3047a2.99449,2.99449,0,0,0-1.2403-1.5303,2.206,2.206,0,0,0-1.8545.2022c-1.1982.6367-1.916,1.8057-1.2382,3.081l-3.7198,1.5557c-1.2871-3.3408,1.2842-5.8867,4.0098-7.3389a7.76118,7.76118,0,0,1,4.7285-1.0127c1.8955.3663,2.5283,1.8604,3.3555,3.417l3.2168,6.0391a7.07249,7.07249,0,0,0,1.2861,1.8027Zm-3.6543-6.0029c-1.3457.9131-3.7939,2.6406-2.791,4.5273a1.77537,1.77537,0,0,0,2.5664.8262,2.55521,2.55521,0,0,0,1.3164-2.0762,4.60784,4.60784,0,0,0-.8203-2.7685Z" transform="translate(-135.8779 -118.3643)"/><path class="cls-1" d="M337.36229,295.0625c1.1904,3.2891,2.416,5.7793-.8506,8.3516l-1.7422,1.1484-2.0537-2.6094,1.8047-1.1621a2.01146,2.01146,0,0,0,.7119-2.875l-13.2705-8.2246,3.6084-2.8398,7.59471,5.1201-3.28411-8.5127,2.49611-1.9639Z" transform="translate(-135.8779 -118.3643)"/><path class="cls-1" d="M350.71289,283.1875a8.757,8.757,0,0,1-1.83889-1.3652,5.14278,5.14278,0,0,1-1.19141,5.2021c-1.7295,1.9395-4.1074,2.5264-6.1787.6836a4.57859,4.57859,0,0,1-1.0674-5.3584,24.378,24.378,0,0,1,3.1719-4.9492l-.2578-.2305a3.01615,3.01615,0,0,0-1.6963-1.0058,2.20137,2.20137,0,0,0-1.6689.833c-.90339,1.0146-1.1729,2.3584-.0948,3.3183l-2.9502,2.7481c-2.3642-2.6856-.8359-5.9639,1.2198-8.2715a7.74556,7.74556,0,0,1,4.0839-2.5889c1.9043-.3164,3.0157.8682,4.3311,2.041l5.1103,4.5508a7.04764,7.04764,0,0,0,1.8311,1.2432Zm-5.5098-4.3643c-.9453,1.3223-2.6426,3.792-1.0478,5.2129a1.77358,1.77358,0,0,0,2.6924-.1132,2.55549,2.55549,0,0,0,.5156-2.4043,4.619,4.619,0,0,0-1.7295-2.3135Z" transform="translate(-135.8779 -118.3643)"/><path class="cls-1" d="M364.29589,262.9473l-2.4375,4.0947-7.2881-.7432,1.2705,3.5108,3.2256,1.9218-2.1709,3.6465L339.873,265.2471l2.17189-3.6494,10.1973,6.0703-.95219-2.1807-2.03611-5.9492,2.1426-3.5977,2.1494,6.1524Z" transform="translate(-135.8779 -118.3643)"/><path class="cls-1" d="M240.55469,229.9355s16.8447,3.2081,45.7217-6.4179c28.8769-9.6245,58.1543-18.4478,91.8447,17.2461,0,0-13.2354-8.4199-41.71-10.0244,0,0-23.66309,2.4062-40.90909,7.6181C278.25489,243.5713,249.37839,241.9678,240.55469,229.9355Z" transform="translate(-135.8779 -118.3643)"/><path class="cls-1" d="M321.38669,178.7715l-1.05269-2.2178a3.67032,3.67032,0,0,0-4.88281-1.7568l-4.4033,2.0923c-.0801.0376-.1524.0796-.2256.122-7.4912,3.7471-12.6451,8.4019-11.9751,10.8257l-7.5137,5.0698s-9.0669,6.1475-17.0879.9331a16.65813,16.65813,0,0,0-8.8232-3.0078s2.2065,2.6065-.8023,7.4195l-33.6894,10.0268s5.6147-20.8554,17.6469-8.4223c0,0,15.2393-3.6099,7.2193-13.2354,0,0-31.2832-4.813-29.9956,23.2026l-3.96829,1.0752a23.31292,23.31292,0,0,0-9.35161.9893,30.17348,30.17348,0,0,1,8.02061,4.4121s1.20309-2.0059,2.00629-3.6099l42.1104-12.2324s17.8715,10.1558,35.2749-11.1357l-.1592-.4546c2.2978,1.2148,8.4258.061,15.1748-2.9609.1181-.0435.2363-.0918.3535-.147l4.40331-2.0918A3.66809,3.66809,0,0,0,321.38669,178.7715Zm-55.1636,9.6543a7.0188,7.0188,0,1,0-7.017-7.0191A7.02,7.02,0,0,0,266.22309,188.4258Zm-9.6254,20.2539c-12.0318,10.0273-20.0523,3.208-20.0523,3.208-6.418,9.625.8013,15.2412.8013,15.2412,4.0117,1.2041,11.2309,1.2041,11.2309,1.2041A35.90439,35.90439,0,0,1,257,217.1025c10.82859-8.4218,18.04789,6.8174,18.04789,6.8174l6.416-1.6045-6.416-12.0317C272.23929,205.8721,268.62939,198.6523,256.59769,208.6797Z" transform="translate(-135.8779 -118.3643)"/><path class="cls-1" d="M208.31249,229.0527c-36.91359-34.1572-72.43459-4.8281-72.43459-4.8281s22.8282-18.4385,58.8262,14.4863c35.99659,32.9268,68.4829,10.0977,68.4829,10.0977S237.72509,256.2725,208.31249,229.0527Z" transform="translate(-135.8779 -118.3643)"/><path class="cls-2" d="M226.51759,225.5244c-33.72169-31.2065-66.17579-4.4121-66.17579-4.4121s20.8569-16.8447,53.74269,13.2363c32.8877,30.0801,62.5664,9.2227,62.5664,9.2227S253.39009,250.3896,226.51759,225.5244Z" transform="translate(-135.8779 -118.3643)"/><path class="cls-3" d="M199.397,238.1318c-30.3262-28.0605-59.5093-3.9668-59.5093-3.9668s18.7554-15.1464,48.3291,11.9043c29.57369,27.0498,56.2622,8.293,56.2622,8.293S223.561,260.4951,199.397,238.1318Z" transform="translate(-135.8779 -118.3643)"/></svg>